<svg xmlns="http://www.w3.org/2000/svg" xmlns:xlink="http://www.w3.org/1999/xlink" width="644" height="351" viewBox="0 0 644 351">
  <defs>
    <clipPath id="clip-path">
      <path id="path6582" d="M0-682.665H81.422v81.422H0Z" transform="translate(0 682.665)"/>
    </clipPath>
  </defs>
  <g id="Grupo_1202183" data-name="Grupo 1202183" transform="translate(-478 -2011)">
    <g id="Trazado_1040027" data-name="Trazado 1040027" transform="translate(892 2070)" fill="#fff">
      <path d="M 196.5 47.5 L 0.5 47.5 L 0.5 0.5 L 196.5 0.5 L 196.5 47.5 Z" stroke="none"/>
      <path d="M 1 1 L 1 47 L 196 47 L 196 1 L 1 1 M 0 0 L 197 0 L 197 48 L 0 48 L 0 0 Z" stroke="none" fill="#86b60c"/>
    </g>
    <g id="Trazado_1040028" data-name="Trazado 1040028" transform="translate(708 2315)" fill="#fff">
      <path d="M 196.5 46.5 L 0.5 46.5 L 0.5 0.5 L 196.5 0.5 L 196.5 46.5 Z" stroke="none"/>
      <path d="M 1 1 L 1 46 L 196 46 L 196 1 L 1 1 M 0 0 L 197 0 L 197 47 L 0 47 L 0 0 Z" stroke="none" fill="#86b60c"/>
    </g>
    <g id="Trazado_1040029" data-name="Trazado 1040029" transform="translate(478 2183)" fill="#fff">
      <path d="M 219.5 46.5 L 0.5 46.5 L 0.5 0.5 L 219.5 0.5 L 219.5 46.5 Z" stroke="none"/>
      <path d="M 1 1 L 1 46 L 219 46 L 219 1 L 1 1 M 0 0 L 220 0 L 220 47 L 0 47 L 0 0 Z" stroke="none" fill="#86b60c"/>
    </g>
    <path id="Trazado_1040030" data-name="Trazado 1040030" d="M10,0H1.6V-14H9.678v2.568H4.756V-8.32h4.58v2.559H4.756v3.2H10ZM28.205,0H25.09V-8.379q0-1.357.117-3h-.078a14.752,14.752,0,0,1-.439,1.855L21.408,0H18.83L15.49-9.424a18.338,18.338,0,0,1-.439-1.953h-.088q.127,2.07.127,3.633V0H12.248V-14h4.619l2.861,8.3a11.687,11.687,0,0,1,.5,2h.059a20.158,20.158,0,0,1,.557-2.021L23.7-14h4.5Zm6.34-4.824V0H31.391V-14h4.941q5.293,0,5.293,4.463a4.282,4.282,0,0,1-1.519,3.413,6.016,6.016,0,0,1-4.058,1.3Zm0-6.758v4.365h1.24q2.52,0,2.52-2.207,0-2.158-2.52-2.158ZM55.426,0H51.8L49.625-3.6q-.244-.41-.469-.732a4.069,4.069,0,0,0-.454-.552,1.806,1.806,0,0,0-.479-.352,1.215,1.215,0,0,0-.542-.122h-.85V0H43.678V-14h5q5.1,0,5.1,3.809a3.944,3.944,0,0,1-.225,1.353,3.757,3.757,0,0,1-.635,1.118,4.024,4.024,0,0,1-.991.859,5.112,5.112,0,0,1-1.294.566v.039a2.007,2.007,0,0,1,.605.317,4.336,4.336,0,0,1,.566.513,7.153,7.153,0,0,1,.522.63q.249.337.454.659ZM46.832-11.641v3.9H48.2A2.267,2.267,0,0,0,49.83-8.33,1.955,1.955,0,0,0,50.455-9.8q0-1.836-2.2-1.836ZM65.135,0h-8.4V-14h8.076v2.568H59.891V-8.32h4.58v2.559h-4.58v3.2h5.244Zm1.6-.537V-3.662a6,6,0,0,0,1.846,1.069,5.933,5.933,0,0,0,2.012.356,4.461,4.461,0,0,0,1.04-.107,2.436,2.436,0,0,0,.742-.3,1.3,1.3,0,0,0,.444-.449,1.121,1.121,0,0,0,.146-.562,1.214,1.214,0,0,0-.234-.732,2.522,2.522,0,0,0-.64-.6,6.683,6.683,0,0,0-.962-.527q-.557-.254-1.2-.518A6.131,6.131,0,0,1,67.486-7.7a3.646,3.646,0,0,1-.806-2.383,3.8,3.8,0,0,1,.439-1.88,3.732,3.732,0,0,1,1.2-1.294A5.364,5.364,0,0,1,70.069-14a9.007,9.007,0,0,1,2.109-.239,12.687,12.687,0,0,1,1.938.132,7.623,7.623,0,0,1,1.558.405v2.92a4.71,4.71,0,0,0-.767-.43,6.074,6.074,0,0,0-.854-.308,6.518,6.518,0,0,0-.874-.181,6.186,6.186,0,0,0-.825-.059,4.3,4.3,0,0,0-.977.1,2.5,2.5,0,0,0-.742.288,1.433,1.433,0,0,0-.469.444,1.053,1.053,0,0,0-.166.581,1.11,1.11,0,0,0,.186.63,2.128,2.128,0,0,0,.527.527,5.6,5.6,0,0,0,.83.488q.488.239,1.1.493a12.3,12.3,0,0,1,1.509.747,5.364,5.364,0,0,1,1.147.894,3.481,3.481,0,0,1,.732,1.138,4.02,4.02,0,0,1,.254,1.489,3.989,3.989,0,0,1-.444,1.968A3.607,3.607,0,0,1,74.639-.679a5.23,5.23,0,0,1-1.772.708,10.244,10.244,0,0,1-2.134.215,11.865,11.865,0,0,1-2.192-.2A6.618,6.618,0,0,1,66.739-.537ZM90.91,0H87.473l-1-3.115H81.5L80.51,0H77.092l5.1-14h3.74ZM85.754-5.537l-1.5-4.707a6.134,6.134,0,0,1-.234-1.26h-.078a5.341,5.341,0,0,1-.244,1.221L82.17-5.537Z" transform="translate(761 2159)" fill="#0b0a0a"/>
    <path id="Trazado_1040031" data-name="Trazado 1040031" d="M10.774,0H9.23L7.969-3.337H2.922L1.735,0H.183L4.748-11.9H6.192ZM7.512-4.59,5.645-9.662a4.856,4.856,0,0,1-.183-.8H5.429a4.446,4.446,0,0,1-.191.8L3.387-4.59ZM19.4,0H18.039V-4.848q0-2.706-1.976-2.706a2.143,2.143,0,0,0-1.689.768,2.846,2.846,0,0,0-.668,1.938V0H12.345V-8.5h1.361v1.411h.033A3.068,3.068,0,0,1,16.529-8.7a2.6,2.6,0,0,1,2.133.9A4.012,4.012,0,0,1,19.4-5.2Zm8.651,0H26.69V-1.328h-.033A2.85,2.85,0,0,1,24.042.2a2.794,2.794,0,0,1-1.988-.672,2.329,2.329,0,0,1-.718-1.785q0-2.382,2.806-2.772l2.548-.357q0-2.167-1.751-2.167a4.184,4.184,0,0,0-2.772,1.046V-7.9a5.268,5.268,0,0,1,2.889-.8q3,0,3,3.171ZM26.69-4.3l-2.05.282a3.329,3.329,0,0,0-1.428.469,1.353,1.353,0,0,0-.481,1.191,1.3,1.3,0,0,0,.444,1.017,1.716,1.716,0,0,0,1.183.394,2.185,2.185,0,0,0,1.673-.71,2.536,2.536,0,0,0,.66-1.8Zm.183-8.533L24.7-10.11H23.644L25.5-12.833ZM31.98,0H30.618V-12.584H31.98Zm3.455-10.658a.863.863,0,0,1-.623-.249.84.84,0,0,1-.257-.631.854.854,0,0,1,.257-.635.855.855,0,0,1,.623-.253.879.879,0,0,1,.635.253.847.847,0,0,1,.261.635.841.841,0,0,1-.261.623A.872.872,0,0,1,35.435-10.658ZM36.1,0H34.737V-8.5H36.1Zm2.243-.307V-1.768a4.029,4.029,0,0,0,2.449.822q1.793,0,1.793-1.2a1.037,1.037,0,0,0-.154-.577,1.53,1.53,0,0,0-.415-.419,3.2,3.2,0,0,0-.614-.328q-.353-.145-.76-.3a9.782,9.782,0,0,1-.992-.452,3,3,0,0,1-.714-.515,1.915,1.915,0,0,1-.432-.652,2.305,2.305,0,0,1-.145-.855A2.031,2.031,0,0,1,38.632-7.3a2.429,2.429,0,0,1,.73-.772A3.406,3.406,0,0,1,40.4-8.542,4.621,4.621,0,0,1,41.612-8.7a4.877,4.877,0,0,1,1.976.382v1.378a3.85,3.85,0,0,0-2.158-.614,2.523,2.523,0,0,0-.689.087,1.687,1.687,0,0,0-.527.245,1.131,1.131,0,0,0-.34.378,1,1,0,0,0-.12.486,1.165,1.165,0,0,0,.12.556,1.224,1.224,0,0,0,.353.4,2.7,2.7,0,0,0,.564.315q.332.141.755.307a10.513,10.513,0,0,1,1.013.444,3.473,3.473,0,0,1,.764.515,2.011,2.011,0,0,1,.486.66,2.128,2.128,0,0,1,.17.888,2.094,2.094,0,0,1-.278,1.1,2.383,2.383,0,0,1-.743.772A3.4,3.4,0,0,1,41.886.05,5.287,5.287,0,0,1,40.616.2,4.822,4.822,0,0,1,38.342-.307Zm8.427-10.351a.863.863,0,0,1-.623-.249.84.84,0,0,1-.257-.631.854.854,0,0,1,.257-.635.855.855,0,0,1,.623-.253.879.879,0,0,1,.635.253.847.847,0,0,1,.261.635.841.841,0,0,1-.261.623A.872.872,0,0,1,46.769-10.658ZM47.433,0H46.071V-8.5h1.361Zm2.243-.307V-1.768a4.029,4.029,0,0,0,2.449.822q1.793,0,1.793-1.2a1.037,1.037,0,0,0-.154-.577,1.53,1.53,0,0,0-.415-.419,3.2,3.2,0,0,0-.614-.328q-.353-.145-.76-.3a9.782,9.782,0,0,1-.992-.452,3,3,0,0,1-.714-.515,1.915,1.915,0,0,1-.432-.652,2.305,2.305,0,0,1-.145-.855A2.031,2.031,0,0,1,49.966-7.3a2.429,2.429,0,0,1,.73-.772,3.406,3.406,0,0,1,1.042-.469A4.621,4.621,0,0,1,52.946-8.7a4.877,4.877,0,0,1,1.976.382v1.378a3.85,3.85,0,0,0-2.158-.614,2.523,2.523,0,0,0-.689.087,1.687,1.687,0,0,0-.527.245,1.131,1.131,0,0,0-.34.378,1,1,0,0,0-.12.486,1.165,1.165,0,0,0,.12.556,1.224,1.224,0,0,0,.353.4,2.7,2.7,0,0,0,.564.315q.332.141.755.307a10.513,10.513,0,0,1,1.013.444,3.473,3.473,0,0,1,.764.515,2.011,2.011,0,0,1,.486.66,2.128,2.128,0,0,1,.17.888,2.094,2.094,0,0,1-.278,1.1,2.383,2.383,0,0,1-.743.772A3.4,3.4,0,0,1,53.22.05,5.287,5.287,0,0,1,51.95.2,4.822,4.822,0,0,1,49.675-.307Z" transform="translate(960 2100)" fill="#212429"/>
    <path id="Trazado_1040032" data-name="Trazado 1040032" d="M2.955-4.5V0H1.561V-11.9H4.831a4.317,4.317,0,0,1,2.959.93A3.319,3.319,0,0,1,8.84-8.351,3.608,3.608,0,0,1,7.674-5.578,4.456,4.456,0,0,1,4.524-4.5Zm0-6.143v4.881H4.416a3.266,3.266,0,0,0,2.2-.66,2.336,2.336,0,0,0,.76-1.864q0-2.357-2.789-2.357ZM12.262,0H10.9V-12.584h1.361ZM21.1,0H19.743V-1.328h-.033A2.85,2.85,0,0,1,17.095.2a2.794,2.794,0,0,1-1.988-.672,2.329,2.329,0,0,1-.718-1.785q0-2.382,2.806-2.772l2.548-.357q0-2.167-1.751-2.167a4.184,4.184,0,0,0-2.772,1.046V-7.9a5.268,5.268,0,0,1,2.889-.8q3,0,3,3.171ZM19.743-4.3l-2.05.282a3.329,3.329,0,0,0-1.428.469,1.353,1.353,0,0,0-.481,1.191,1.3,1.3,0,0,0,.444,1.017,1.716,1.716,0,0,0,1.183.394,2.185,2.185,0,0,0,1.673-.71,2.536,2.536,0,0,0,.66-1.8ZM30.726,0H29.365V-4.848q0-2.706-1.976-2.706a2.143,2.143,0,0,0-1.689.768,2.846,2.846,0,0,0-.668,1.938V0H23.671V-8.5h1.361v1.411h.033A3.068,3.068,0,0,1,27.854-8.7a2.6,2.6,0,0,1,2.133.9,4.012,4.012,0,0,1,.739,2.6Zm14.48,0H43.845V-1.444h-.033A3.143,3.143,0,0,1,40.89.2,3.175,3.175,0,0,1,38.329-.942a4.682,4.682,0,0,1-.959-3.109,5.094,5.094,0,0,1,1.063-3.378A3.5,3.5,0,0,1,41.263-8.7a2.725,2.725,0,0,1,2.548,1.378h.033v-5.263h1.361ZM43.845-3.843V-5.1a2.432,2.432,0,0,0-.681-1.743,2.283,2.283,0,0,0-1.727-.714,2.351,2.351,0,0,0-1.959.913,4,4,0,0,0-.714,2.523A3.6,3.6,0,0,0,39.45-1.8a2.238,2.238,0,0,0,1.839.851,2.325,2.325,0,0,0,1.847-.822A3.062,3.062,0,0,0,43.845-3.843ZM54.8-3.91h-6a3.179,3.179,0,0,0,.764,2.191,2.633,2.633,0,0,0,2.009.772,4.176,4.176,0,0,0,2.64-.946V-.614A4.933,4.933,0,0,1,51.243.2,3.593,3.593,0,0,1,48.412-.959a4.74,4.74,0,0,1-1.029-3.258A4.648,4.648,0,0,1,48.508-7.45,3.606,3.606,0,0,1,51.3-8.7,3.2,3.2,0,0,1,53.882-7.62a4.5,4.5,0,0,1,.913,3ZM53.4-5.063A2.77,2.77,0,0,0,52.832-6.9a1.937,1.937,0,0,0-1.556-.656,2.2,2.2,0,0,0-1.635.689,3.127,3.127,0,0,0-.83,1.8ZM67.6,0H66.237V-1.328H66.2A2.85,2.85,0,0,1,63.589.2,2.794,2.794,0,0,1,61.6-.473a2.329,2.329,0,0,1-.718-1.785q0-2.382,2.806-2.772l2.548-.357q0-2.167-1.751-2.167a4.184,4.184,0,0,0-2.772,1.046V-7.9A5.268,5.268,0,0,1,64.6-8.7q3,0,3,3.171ZM66.237-4.3l-2.05.282a3.329,3.329,0,0,0-1.428.469,1.353,1.353,0,0,0-.481,1.191,1.3,1.3,0,0,0,.444,1.017A1.716,1.716,0,0,0,63.9-.946a2.185,2.185,0,0,0,1.673-.71,2.536,2.536,0,0,0,.66-1.8ZM75.959-.39A4.423,4.423,0,0,1,73.635.2,3.848,3.848,0,0,1,70.7-.984a4.287,4.287,0,0,1-1.116-3.067,4.712,4.712,0,0,1,1.2-3.374A4.211,4.211,0,0,1,74-8.7a4.472,4.472,0,0,1,1.976.415V-6.89a3.461,3.461,0,0,0-2.025-.664,2.737,2.737,0,0,0-2.137.934,3.544,3.544,0,0,0-.834,2.453,3.374,3.374,0,0,0,.784,2.357,2.7,2.7,0,0,0,2.1.863,3.412,3.412,0,0,0,2.092-.739Zm7.854,0A4.423,4.423,0,0,1,81.489.2,3.848,3.848,0,0,1,78.555-.984a4.287,4.287,0,0,1-1.116-3.067,4.712,4.712,0,0,1,1.2-3.374A4.211,4.211,0,0,1,81.854-8.7a4.472,4.472,0,0,1,1.976.415V-6.89A3.461,3.461,0,0,0,81.8-7.554a2.737,2.737,0,0,0-2.137.934,3.544,3.544,0,0,0-.834,2.453,3.374,3.374,0,0,0,.784,2.357,2.7,2.7,0,0,0,2.1.863,3.412,3.412,0,0,0,2.092-.739Zm2.758-10.268a.862.862,0,0,1-.623-.249.841.841,0,0,1-.257-.631.854.854,0,0,1,.257-.635.855.855,0,0,1,.623-.253.879.879,0,0,1,.635.253.847.847,0,0,1,.261.635.841.841,0,0,1-.261.623A.872.872,0,0,1,86.571-10.658ZM87.235,0H85.874V-8.5h1.361Zm6.31.2A3.943,3.943,0,0,1,90.536-.992,4.412,4.412,0,0,1,89.412-4.15,4.6,4.6,0,0,1,90.582-7.5a4.208,4.208,0,0,1,3.163-1.2,3.812,3.812,0,0,1,2.968,1.17,4.641,4.641,0,0,1,1.067,3.246,4.566,4.566,0,0,1-1.15,3.258A4.028,4.028,0,0,1,93.545.2Zm.1-7.753a2.589,2.589,0,0,0-2.075.892A3.665,3.665,0,0,0,90.806-4.2a3.466,3.466,0,0,0,.772,2.382,2.624,2.624,0,0,0,2.067.872,2.489,2.489,0,0,0,2.03-.855,3.71,3.71,0,0,0,.71-2.432,3.774,3.774,0,0,0-.71-2.457A2.478,2.478,0,0,0,93.645-7.554Zm1.992-5.279L93.462-10.11H92.408l1.851-2.723ZM107.011,0H105.65V-4.848q0-2.706-1.976-2.706a2.143,2.143,0,0,0-1.689.768,2.846,2.846,0,0,0-.668,1.938V0H99.955V-8.5h1.361v1.411h.033a3.068,3.068,0,0,1,2.789-1.61,2.6,2.6,0,0,1,2.133.9,4.012,4.012,0,0,1,.739,2.6Z" transform="translate(747 2345)" fill="#212429"/>
    <path id="Trazado_1040033" data-name="Trazado 1040033" d="M2.955,0H1.561V-11.9H2.955Zm10,0H11.6V-4.848q0-2.706-1.976-2.706a2.143,2.143,0,0,0-1.689.768,2.846,2.846,0,0,0-.668,1.938V0H5.9V-8.5H7.265v1.411H7.3A3.068,3.068,0,0,1,10.087-8.7a2.6,2.6,0,0,1,2.133.9,4.012,4.012,0,0,1,.739,2.6Zm6.767-11.389a1.813,1.813,0,0,0-.9-.224q-1.428,0-1.428,1.8V-8.5h1.992v1.162H17.394V0H16.041V-7.338H14.588V-8.5h1.453V-9.878a2.863,2.863,0,0,1,.772-2.113,2.606,2.606,0,0,1,1.926-.776,2.668,2.668,0,0,1,.988.149ZM24.4.2A3.943,3.943,0,0,1,21.392-.992,4.412,4.412,0,0,1,20.267-4.15,4.6,4.6,0,0,1,21.438-7.5,4.208,4.208,0,0,1,24.6-8.7a3.812,3.812,0,0,1,2.968,1.17,4.641,4.641,0,0,1,1.067,3.246,4.566,4.566,0,0,1-1.15,3.258A4.028,4.028,0,0,1,24.4.2Zm.1-7.753a2.589,2.589,0,0,0-2.075.892A3.665,3.665,0,0,0,21.662-4.2a3.466,3.466,0,0,0,.772,2.382A2.624,2.624,0,0,0,24.5-.946,2.489,2.489,0,0,0,26.53-1.8a3.71,3.71,0,0,0,.71-2.432,3.774,3.774,0,0,0-.71-2.457A2.478,2.478,0,0,0,24.5-7.554Zm10.743.432A1.665,1.665,0,0,0,34.214-7.4a1.737,1.737,0,0,0-1.457.822,3.8,3.8,0,0,0-.585,2.241V0H30.811V-8.5h1.361v1.751h.033a2.968,2.968,0,0,1,.888-1.4,2.025,2.025,0,0,1,1.336-.5,2.222,2.222,0,0,1,.813.116ZM48.792,0H47.431V-4.881A3.682,3.682,0,0,0,47-6.923a1.653,1.653,0,0,0-1.465-.631,1.814,1.814,0,0,0-1.482.8,3.049,3.049,0,0,0-.61,1.909V0H42.077V-5.047q0-2.507-1.934-2.507a1.792,1.792,0,0,0-1.478.751,3.105,3.105,0,0,0-.581,1.955V0H36.723V-8.5h1.361v1.345h.033A2.888,2.888,0,0,1,40.757-8.7a2.461,2.461,0,0,1,1.519.486,2.443,2.443,0,0,1,.888,1.274A3.033,3.033,0,0,1,45.987-8.7q2.806,0,2.806,3.461ZM58.2-3.91h-6a3.179,3.179,0,0,0,.764,2.191,2.633,2.633,0,0,0,2.009.772,4.176,4.176,0,0,0,2.64-.946V-.614A4.933,4.933,0,0,1,54.646.2,3.593,3.593,0,0,1,51.815-.959a4.74,4.74,0,0,1-1.029-3.258A4.648,4.648,0,0,1,51.911-7.45,3.606,3.606,0,0,1,54.7-8.7,3.2,3.2,0,0,1,57.286-7.62a4.5,4.5,0,0,1,.913,3ZM56.8-5.063A2.77,2.77,0,0,0,56.236-6.9a1.937,1.937,0,0,0-1.556-.656,2.2,2.2,0,0,0-1.635.689,3.127,3.127,0,0,0-.83,1.8ZM72.172,0H70.811V-1.444h-.033A3.143,3.143,0,0,1,67.856.2,3.175,3.175,0,0,1,65.3-.942a4.682,4.682,0,0,1-.959-3.109A5.094,5.094,0,0,1,65.4-7.429,3.5,3.5,0,0,1,68.229-8.7a2.725,2.725,0,0,1,2.548,1.378h.033v-5.263h1.361ZM70.811-3.843V-5.1A2.432,2.432,0,0,0,70.13-6.84,2.283,2.283,0,0,0,68.4-7.554a2.351,2.351,0,0,0-1.959.913,4,4,0,0,0-.714,2.523,3.6,3.6,0,0,0,.685,2.32,2.238,2.238,0,0,0,1.839.851A2.325,2.325,0,0,0,70.1-1.768,3.062,3.062,0,0,0,70.811-3.843Zm10.95-.066h-6a3.179,3.179,0,0,0,.764,2.191,2.633,2.633,0,0,0,2.009.772,4.176,4.176,0,0,0,2.64-.946V-.614A4.933,4.933,0,0,1,78.209.2,3.593,3.593,0,0,1,75.378-.959a4.74,4.74,0,0,1-1.029-3.258A4.648,4.648,0,0,1,75.474-7.45,3.606,3.606,0,0,1,78.267-8.7,3.2,3.2,0,0,1,80.848-7.62a4.5,4.5,0,0,1,.913,3ZM80.367-5.063A2.77,2.77,0,0,0,79.8-6.9a1.937,1.937,0,0,0-1.556-.656,2.2,2.2,0,0,0-1.635.689,3.127,3.127,0,0,0-.83,1.8ZM85.183,0H83.822V-12.584h1.361ZM99.854,0H98.493V-1.444h-.033A3.143,3.143,0,0,1,95.537.2,3.175,3.175,0,0,1,92.977-.942a4.682,4.682,0,0,1-.959-3.109A5.094,5.094,0,0,1,93.08-7.429,3.5,3.5,0,0,1,95.911-8.7a2.725,2.725,0,0,1,2.548,1.378h.033v-5.263h1.361ZM98.493-3.843V-5.1a2.432,2.432,0,0,0-.681-1.743,2.283,2.283,0,0,0-1.727-.714,2.351,2.351,0,0,0-1.959.913,4,4,0,0,0-.714,2.523A3.6,3.6,0,0,0,94.1-1.8a2.238,2.238,0,0,0,1.839.851,2.325,2.325,0,0,0,1.847-.822A3.062,3.062,0,0,0,98.493-3.843Zm4.816-6.815a.862.862,0,0,1-.623-.249.841.841,0,0,1-.257-.631.854.854,0,0,1,.257-.635.855.855,0,0,1,.623-.253.879.879,0,0,1,.635.253.847.847,0,0,1,.261.635.841.841,0,0,1-.261.623A.872.872,0,0,1,103.309-10.658ZM103.973,0h-1.361V-8.5h1.361Zm8.842,0h-1.361V-1.328h-.033A2.85,2.85,0,0,1,108.806.2a2.794,2.794,0,0,1-1.988-.672,2.329,2.329,0,0,1-.718-1.785q0-2.382,2.806-2.772l2.548-.357q0-2.167-1.751-2.167a4.184,4.184,0,0,0-2.772,1.046V-7.9a5.268,5.268,0,0,1,2.889-.8q3,0,3,3.171Zm-1.361-4.3-2.05.282a3.329,3.329,0,0,0-1.428.469,1.353,1.353,0,0,0-.481,1.191,1.3,1.3,0,0,0,.444,1.017,1.716,1.716,0,0,0,1.183.394,2.185,2.185,0,0,0,1.673-.71,2.536,2.536,0,0,0,.66-1.8ZM122.636-.681Q122.636,4,118.154,4a6.018,6.018,0,0,1-2.756-.6V2.042a5.66,5.66,0,0,0,2.739.8q3.138,0,3.138-3.337v-.93h-.033A3.183,3.183,0,0,1,118.32.2a3.191,3.191,0,0,1-2.552-1.133,4.529,4.529,0,0,1-.967-3.042,5.292,5.292,0,0,1,1.042-3.445A3.48,3.48,0,0,1,118.693-8.7a2.771,2.771,0,0,1,2.548,1.378h.033V-8.5h1.361Zm-1.361-3.163V-5.1a2.432,2.432,0,0,0-.685-1.735,2.255,2.255,0,0,0-1.706-.722,2.364,2.364,0,0,0-1.976.917,4.094,4.094,0,0,0-.714,2.569,3.515,3.515,0,0,0,.685,2.27,2.212,2.212,0,0,0,1.814.851,2.369,2.369,0,0,0,1.864-.813A3.032,3.032,0,0,0,121.275-3.843ZM132.45,0h-1.361V-4.848q0-2.706-1.976-2.706a2.143,2.143,0,0,0-1.689.768,2.846,2.846,0,0,0-.668,1.938V0h-1.361V-8.5h1.361v1.411h.033a3.068,3.068,0,0,1,2.789-1.61,2.6,2.6,0,0,1,2.133.9,4.012,4.012,0,0,1,.739,2.6Zm6.119.2A3.943,3.943,0,0,1,135.56-.992a4.412,4.412,0,0,1-1.125-3.158,4.6,4.6,0,0,1,1.17-3.345,4.208,4.208,0,0,1,3.163-1.2,3.812,3.812,0,0,1,2.968,1.17A4.641,4.641,0,0,1,142.8-4.283a4.567,4.567,0,0,1-1.15,3.258A4.028,4.028,0,0,1,138.569.2Zm.1-7.753a2.589,2.589,0,0,0-2.075.892A3.665,3.665,0,0,0,135.83-4.2a3.466,3.466,0,0,0,.772,2.382,2.624,2.624,0,0,0,2.067.872A2.489,2.489,0,0,0,140.7-1.8a3.71,3.71,0,0,0,.71-2.432,3.774,3.774,0,0,0-.71-2.457A2.478,2.478,0,0,0,138.669-7.554Zm1.992-5.279-2.175,2.723h-1.054l1.851-2.723Zm3.8,12.526V-1.768a4.029,4.029,0,0,0,2.449.822q1.793,0,1.793-1.2a1.037,1.037,0,0,0-.154-.577,1.53,1.53,0,0,0-.415-.419,3.2,3.2,0,0,0-.614-.328q-.353-.145-.76-.3a9.782,9.782,0,0,1-.992-.452,3,3,0,0,1-.714-.515,1.915,1.915,0,0,1-.432-.652,2.305,2.305,0,0,1-.145-.855,2.031,2.031,0,0,1,.274-1.058,2.429,2.429,0,0,1,.73-.772,3.406,3.406,0,0,1,1.042-.469,4.621,4.621,0,0,1,1.208-.158,4.877,4.877,0,0,1,1.976.382v1.378a3.85,3.85,0,0,0-2.158-.614,2.523,2.523,0,0,0-.689.087,1.687,1.687,0,0,0-.527.245,1.131,1.131,0,0,0-.34.378,1,1,0,0,0-.12.486A1.165,1.165,0,0,0,146-5.8a1.224,1.224,0,0,0,.353.4,2.7,2.7,0,0,0,.564.315q.332.141.755.307a10.514,10.514,0,0,1,1.013.444,3.473,3.473,0,0,1,.764.515,2.011,2.011,0,0,1,.486.66,2.128,2.128,0,0,1,.17.888,2.094,2.094,0,0,1-.278,1.1,2.383,2.383,0,0,1-.743.772,3.4,3.4,0,0,1-1.071.457,5.287,5.287,0,0,1-1.27.149A4.822,4.822,0,0,1,144.464-.307Zm11.673.224a2.625,2.625,0,0,1-1.27.266q-2.233,0-2.233-2.49v-5.03h-1.461V-8.5h1.461v-2.075l1.361-.44V-8.5h2.142v1.162H154v4.79a1.986,1.986,0,0,0,.291,1.22,1.159,1.159,0,0,0,.963.365,1.431,1.431,0,0,0,.888-.282Zm2.517-10.575a.863.863,0,0,1-.623-.249.84.84,0,0,1-.257-.631.854.854,0,0,1,.257-.635.855.855,0,0,1,.623-.253.879.879,0,0,1,.635.253.847.847,0,0,1,.261.635.841.841,0,0,1-.261.623A.872.872,0,0,1,158.654-10.658ZM159.318,0h-1.361V-8.5h1.361Zm8.551-.39A4.423,4.423,0,0,1,165.545.2a3.848,3.848,0,0,1-2.934-1.183,4.287,4.287,0,0,1-1.116-3.067,4.712,4.712,0,0,1,1.2-3.374A4.211,4.211,0,0,1,165.91-8.7a4.472,4.472,0,0,1,1.976.415V-6.89a3.461,3.461,0,0,0-2.025-.664,2.737,2.737,0,0,0-2.137.934,3.544,3.544,0,0,0-.834,2.453,3.374,3.374,0,0,0,.784,2.357,2.7,2.7,0,0,0,2.1.863,3.412,3.412,0,0,0,2.092-.739ZM173.482.2a3.943,3.943,0,0,1-3.009-1.191,4.412,4.412,0,0,1-1.125-3.158,4.6,4.6,0,0,1,1.17-3.345,4.208,4.208,0,0,1,3.163-1.2,3.812,3.812,0,0,1,2.968,1.17,4.641,4.641,0,0,1,1.067,3.246,4.567,4.567,0,0,1-1.15,3.258A4.028,4.028,0,0,1,173.482.2Zm.1-7.753a2.589,2.589,0,0,0-2.075.892,3.665,3.665,0,0,0-.764,2.461,3.466,3.466,0,0,0,.772,2.382,2.624,2.624,0,0,0,2.067.872,2.489,2.489,0,0,0,2.03-.855,3.71,3.71,0,0,0,.71-2.432,3.774,3.774,0,0,0-.71-2.457A2.478,2.478,0,0,0,173.582-7.554Z" transform="translate(494 2213)" fill="#212429"/>
    <path id="Trazado_1040034" data-name="Trazado 1040034" d="M9.5,0H1.521V-13.3H9.194v2.44H4.518V-7.9H8.869v2.431H4.518v3.043H9.5ZM23.6,0H20.579L15.1-8.359a12.088,12.088,0,0,1-.668-1.1h-.037q.074.705.074,2.152V0h-2.83V-13.3h3.229l5.279,8.1q.362.547.668,1.085h.037a14.224,14.224,0,0,1-.074-1.828V-13.3H23.6ZM35.991-10.864H32.2V0H29.19V-10.864H25.414V-13.3H35.991ZM42.7.232a6.193,6.193,0,0,1-4.657-1.86,6.678,6.678,0,0,1-1.8-4.847,7.156,7.156,0,0,1,1.828-5.1,6.328,6.328,0,0,1,4.843-1.948,6.038,6.038,0,0,1,4.606,1.865,6.875,6.875,0,0,1,1.758,4.917,7.041,7.041,0,0,1-1.823,5.056A6.257,6.257,0,0,1,42.7.232Zm.13-11.179a3.016,3.016,0,0,0-2.5,1.183A4.932,4.932,0,0,0,39.4-6.633a4.841,4.841,0,0,0,.928,3.126,2.973,2.973,0,0,0,2.431,1.15,3,3,0,0,0,2.458-1.118,4.788,4.788,0,0,0,.909-3.1A5.188,5.188,0,0,0,45.242-9.8,2.874,2.874,0,0,0,42.83-10.947ZM62.648,0H59.206L57.137-3.423q-.232-.39-.445-.7a3.866,3.866,0,0,0-.431-.524,1.715,1.715,0,0,0-.455-.334,1.154,1.154,0,0,0-.515-.116h-.807V0h-3V-13.3h4.75q4.843,0,4.843,3.618A3.747,3.747,0,0,1,60.867-8.4a3.57,3.57,0,0,1-.6,1.062,3.823,3.823,0,0,1-.942.816,4.856,4.856,0,0,1-1.229.538v.037a1.907,1.907,0,0,1,.575.3,4.119,4.119,0,0,1,.538.487,6.8,6.8,0,0,1,.5.6q.237.32.431.626ZM54.484-11.059v3.7h1.3a2.153,2.153,0,0,0,1.549-.557,1.858,1.858,0,0,0,.594-1.4q0-1.744-2.087-1.744ZM75.861,0H72.837L67.354-8.359a12.086,12.086,0,0,1-.668-1.1h-.037q.074.705.074,2.152V0h-2.83V-13.3h3.229L72.4-5.2q.362.547.668,1.085h.037a14.225,14.225,0,0,1-.074-1.828V-13.3h2.83Zm8.667.232a6.193,6.193,0,0,1-4.657-1.86,6.678,6.678,0,0,1-1.8-4.847,7.156,7.156,0,0,1,1.828-5.1,6.328,6.328,0,0,1,4.843-1.948,6.038,6.038,0,0,1,4.606,1.865,6.875,6.875,0,0,1,1.758,4.917,7.041,7.041,0,0,1-1.823,5.056A6.257,6.257,0,0,1,84.528.232Zm.13-11.179a3.016,3.016,0,0,0-2.5,1.183,4.932,4.932,0,0,0-.928,3.131,4.841,4.841,0,0,0,.928,3.126,2.973,2.973,0,0,0,2.431,1.15,3,3,0,0,0,2.458-1.118,4.788,4.788,0,0,0,.909-3.1A5.188,5.188,0,0,0,87.07-9.8,2.874,2.874,0,0,0,84.658-10.947Z" transform="translate(589 2099)" fill="#0b0a0a"/>
    <path id="Trazado_1040035" data-name="Trazado 1040035" d="M9.5,0H1.521V-13.3H9.194v2.44H4.518V-7.9H8.869v2.431H4.518v3.043H9.5ZM23.6,0H20.579L15.1-8.359a12.088,12.088,0,0,1-.668-1.1h-.037q.074.705.074,2.152V0h-2.83V-13.3h3.229l5.279,8.1q.362.547.668,1.085h.037a14.224,14.224,0,0,1-.074-1.828V-13.3H23.6ZM35.991-10.864H32.2V0H29.19V-10.864H25.414V-13.3H35.991ZM42.7.232a6.193,6.193,0,0,1-4.657-1.86,6.678,6.678,0,0,1-1.8-4.847,7.156,7.156,0,0,1,1.828-5.1,6.328,6.328,0,0,1,4.843-1.948,6.038,6.038,0,0,1,4.606,1.865,6.875,6.875,0,0,1,1.758,4.917,7.041,7.041,0,0,1-1.823,5.056A6.257,6.257,0,0,1,42.7.232Zm.13-11.179a3.016,3.016,0,0,0-2.5,1.183A4.932,4.932,0,0,0,39.4-6.633a4.841,4.841,0,0,0,.928,3.126,2.973,2.973,0,0,0,2.431,1.15,3,3,0,0,0,2.458-1.118,4.788,4.788,0,0,0,.909-3.1A5.188,5.188,0,0,0,45.242-9.8,2.874,2.874,0,0,0,42.83-10.947ZM62.648,0H59.206L57.137-3.423q-.232-.39-.445-.7a3.866,3.866,0,0,0-.431-.524,1.715,1.715,0,0,0-.455-.334,1.154,1.154,0,0,0-.515-.116h-.807V0h-3V-13.3h4.75q4.843,0,4.843,3.618A3.747,3.747,0,0,1,60.867-8.4a3.57,3.57,0,0,1-.6,1.062,3.823,3.823,0,0,1-.942.816,4.856,4.856,0,0,1-1.229.538v.037a1.907,1.907,0,0,1,.575.3,4.119,4.119,0,0,1,.538.487,6.8,6.8,0,0,1,.5.6q.237.32.431.626ZM54.484-11.059v3.7h1.3a2.153,2.153,0,0,0,1.549-.557,1.858,1.858,0,0,0,.594-1.4q0-1.744-2.087-1.744ZM75.861,0H72.837L67.354-8.359a12.086,12.086,0,0,1-.668-1.1h-.037q.074.705.074,2.152V0h-2.83V-13.3h3.229L72.4-5.2q.362.547.668,1.085h.037a14.225,14.225,0,0,1-.074-1.828V-13.3h2.83Zm8.667.232a6.193,6.193,0,0,1-4.657-1.86,6.678,6.678,0,0,1-1.8-4.847,7.156,7.156,0,0,1,1.828-5.1,6.328,6.328,0,0,1,4.843-1.948,6.038,6.038,0,0,1,4.606,1.865,6.875,6.875,0,0,1,1.758,4.917,7.041,7.041,0,0,1-1.823,5.056A6.257,6.257,0,0,1,84.528.232Zm.13-11.179a3.016,3.016,0,0,0-2.5,1.183,4.932,4.932,0,0,0-.928,3.131,4.841,4.841,0,0,0,.928,3.126,2.973,2.973,0,0,0,2.431,1.15,3,3,0,0,0,2.458-1.118,4.788,4.788,0,0,0,.909-3.1A5.188,5.188,0,0,0,87.07-9.8,2.874,2.874,0,0,0,84.658-10.947Z" transform="translate(589 2283)" fill="#0b0a0a"/>
    <path id="Trazado_1040036" data-name="Trazado 1040036" d="M9.5,0H1.521V-13.3H9.194v2.44H4.518V-7.9H8.869v2.431H4.518v3.043H9.5ZM23.6,0H20.579L15.1-8.359a12.088,12.088,0,0,1-.668-1.1h-.037q.074.705.074,2.152V0h-2.83V-13.3h3.229l5.279,8.1q.362.547.668,1.085h.037a14.224,14.224,0,0,1-.074-1.828V-13.3H23.6ZM35.991-10.864H32.2V0H29.19V-10.864H25.414V-13.3H35.991ZM42.7.232a6.193,6.193,0,0,1-4.657-1.86,6.678,6.678,0,0,1-1.8-4.847,7.156,7.156,0,0,1,1.828-5.1,6.328,6.328,0,0,1,4.843-1.948,6.038,6.038,0,0,1,4.606,1.865,6.875,6.875,0,0,1,1.758,4.917,7.041,7.041,0,0,1-1.823,5.056A6.257,6.257,0,0,1,42.7.232Zm.13-11.179a3.016,3.016,0,0,0-2.5,1.183A4.932,4.932,0,0,0,39.4-6.633a4.841,4.841,0,0,0,.928,3.126,2.973,2.973,0,0,0,2.431,1.15,3,3,0,0,0,2.458-1.118,4.788,4.788,0,0,0,.909-3.1A5.188,5.188,0,0,0,45.242-9.8,2.874,2.874,0,0,0,42.83-10.947ZM62.648,0H59.206L57.137-3.423q-.232-.39-.445-.7a3.866,3.866,0,0,0-.431-.524,1.715,1.715,0,0,0-.455-.334,1.154,1.154,0,0,0-.515-.116h-.807V0h-3V-13.3h4.75q4.843,0,4.843,3.618A3.747,3.747,0,0,1,60.867-8.4a3.57,3.57,0,0,1-.6,1.062,3.823,3.823,0,0,1-.942.816,4.856,4.856,0,0,1-1.229.538v.037a1.907,1.907,0,0,1,.575.3,4.119,4.119,0,0,1,.538.487,6.8,6.8,0,0,1,.5.6q.237.32.431.626ZM54.484-11.059v3.7h1.3a2.153,2.153,0,0,0,1.549-.557,1.858,1.858,0,0,0,.594-1.4q0-1.744-2.087-1.744ZM75.861,0H72.837L67.354-8.359a12.086,12.086,0,0,1-.668-1.1h-.037q.074.705.074,2.152V0h-2.83V-13.3h3.229L72.4-5.2q.362.547.668,1.085h.037a14.225,14.225,0,0,1-.074-1.828V-13.3h2.83Zm8.667.232a6.193,6.193,0,0,1-4.657-1.86,6.678,6.678,0,0,1-1.8-4.847,7.156,7.156,0,0,1,1.828-5.1,6.328,6.328,0,0,1,4.843-1.948,6.038,6.038,0,0,1,4.606,1.865,6.875,6.875,0,0,1,1.758,4.917,7.041,7.041,0,0,1-1.823,5.056A6.257,6.257,0,0,1,84.528.232Zm.13-11.179a3.016,3.016,0,0,0-2.5,1.183,4.932,4.932,0,0,0-.928,3.131,4.841,4.841,0,0,0,.928,3.126,2.973,2.973,0,0,0,2.431,1.15,3,3,0,0,0,2.458-1.118,4.788,4.788,0,0,0,.909-3.1A5.188,5.188,0,0,0,87.07-9.8,2.874,2.874,0,0,0,84.658-10.947Z" transform="translate(956 2283)" fill="#0b0a0a"/>
    <path id="Trazado_1040037" data-name="Trazado 1040037" d="M9.5,0H1.521V-13.3H9.194v2.44H4.518V-7.9H8.869v2.431H4.518v3.043H9.5ZM23.6,0H20.579L15.1-8.359a12.088,12.088,0,0,1-.668-1.1h-.037q.074.705.074,2.152V0h-2.83V-13.3h3.229l5.279,8.1q.362.547.668,1.085h.037a14.224,14.224,0,0,1-.074-1.828V-13.3H23.6ZM35.991-10.864H32.2V0H29.19V-10.864H25.414V-13.3H35.991ZM42.7.232a6.193,6.193,0,0,1-4.657-1.86,6.678,6.678,0,0,1-1.8-4.847,7.156,7.156,0,0,1,1.828-5.1,6.328,6.328,0,0,1,4.843-1.948,6.038,6.038,0,0,1,4.606,1.865,6.875,6.875,0,0,1,1.758,4.917,7.041,7.041,0,0,1-1.823,5.056A6.257,6.257,0,0,1,42.7.232Zm.13-11.179a3.016,3.016,0,0,0-2.5,1.183A4.932,4.932,0,0,0,39.4-6.633a4.841,4.841,0,0,0,.928,3.126,2.973,2.973,0,0,0,2.431,1.15,3,3,0,0,0,2.458-1.118,4.788,4.788,0,0,0,.909-3.1A5.188,5.188,0,0,0,45.242-9.8,2.874,2.874,0,0,0,42.83-10.947ZM62.648,0H59.206L57.137-3.423q-.232-.39-.445-.7a3.866,3.866,0,0,0-.431-.524,1.715,1.715,0,0,0-.455-.334,1.154,1.154,0,0,0-.515-.116h-.807V0h-3V-13.3h4.75q4.843,0,4.843,3.618A3.747,3.747,0,0,1,60.867-8.4a3.57,3.57,0,0,1-.6,1.062,3.823,3.823,0,0,1-.942.816,4.856,4.856,0,0,1-1.229.538v.037a1.907,1.907,0,0,1,.575.3,4.119,4.119,0,0,1,.538.487,6.8,6.8,0,0,1,.5.6q.237.32.431.626ZM54.484-11.059v3.7h1.3a2.153,2.153,0,0,0,1.549-.557,1.858,1.858,0,0,0,.594-1.4q0-1.744-2.087-1.744ZM75.861,0H72.837L67.354-8.359a12.086,12.086,0,0,1-.668-1.1h-.037q.074.705.074,2.152V0h-2.83V-13.3h3.229L72.4-5.2q.362.547.668,1.085h.037a14.225,14.225,0,0,1-.074-1.828V-13.3h2.83Zm8.667.232a6.193,6.193,0,0,1-4.657-1.86,6.678,6.678,0,0,1-1.8-4.847,7.156,7.156,0,0,1,1.828-5.1,6.328,6.328,0,0,1,4.843-1.948,6.038,6.038,0,0,1,4.606,1.865,6.875,6.875,0,0,1,1.758,4.917,7.041,7.041,0,0,1-1.823,5.056A6.257,6.257,0,0,1,84.528.232Zm.13-11.179a3.016,3.016,0,0,0-2.5,1.183,4.932,4.932,0,0,0-.928,3.131,4.841,4.841,0,0,0,.928,3.126,2.973,2.973,0,0,0,2.431,1.15,3,3,0,0,0,2.458-1.118,4.788,4.788,0,0,0,.909-3.1A5.188,5.188,0,0,0,87.07-9.8,2.874,2.874,0,0,0,84.658-10.947Z" transform="translate(956 2041)" fill="#0b0a0a"/>
    <path id="Trazado_1035071" data-name="Trazado 1035071" d="M3954.835,2201.168l117.174-99.285,4.763-4.036" transform="translate(-3340.989 -26.51)" fill="none" stroke="#496406" stroke-width="2"/>
    <path id="Trazado_1040038" data-name="Trazado 1040038" d="M9.9,0l9.9,17.607H0Z" transform="translate(732.119 2059.377) rotate(45)" fill="#496406"/>
    <path id="Trazado_1040039" data-name="Trazado 1040039" d="M9.9,0l9.9,17.607H0Z" transform="translate(698.614 2230.076) rotate(-52)" fill="#496406"/>
    <path id="Trazado_1035074" data-name="Trazado 1035074" d="M0,0V118.308" transform="translate(718.586 2233.112) rotate(-52)" fill="none" stroke="#496406" stroke-width="2"/>
    <path id="Trazado_1040040" data-name="Trazado 1040040" d="M9.9,0l9.9,17.607H0Z" transform="matrix(-0.309, 0.951, -0.951, -0.309, 895.408, 2078.192)" fill="#496406"/>
    <path id="Trazado_1035074-2" data-name="Trazado 1035074" d="M0,0V90.517" transform="translate(875.602 2082.17) rotate(108)" fill="none" stroke="#496406" stroke-width="2"/>
    <path id="Trazado_1040041" data-name="Trazado 1040041" d="M9.9,0l9.9,17.607H0Z" transform="translate(825.332 2318.706) rotate(-112)" fill="#496406"/>
    <path id="Trazado_1035074-3" data-name="Trazado 1035074" d="M0,0V168.631" transform="matrix(-0.375, -0.927, 0.927, -0.375, 837.947, 2302.927)" fill="none" stroke="#496406" stroke-width="2"/>
    <g id="Trazado_1040042" data-name="Trazado 1040042" transform="translate(944 2183)" fill="#fff">
      <path d="M 177.5 59.5 L 0.5 59.5 L 0.5 0.5 L 177.5 0.5 L 177.5 59.5 Z" stroke="none"/>
      <path d="M 1 1 L 1 59 L 177 59 L 177 1 L 1 1 M 0 0 L 178 0 L 178 60 L 0 60 L 0 0 Z" stroke="none" fill="#86b60c"/>
    </g>
    <path id="Trazado_1040043" data-name="Trazado 1040043" d="M-61.515,0V-11.9h3.287q6.292,0,6.292,5.8a5.847,5.847,0,0,1-1.747,4.428A6.482,6.482,0,0,1-58.361,0Zm1.395-10.642v9.38h1.776A5.041,5.041,0,0,0-54.7-2.515a4.7,4.7,0,0,0,1.3-3.553q0-4.574-4.864-4.574ZM-42.944-3.91h-6a3.179,3.179,0,0,0,.764,2.191,2.633,2.633,0,0,0,2.009.772,4.176,4.176,0,0,0,2.64-.946V-.614A4.933,4.933,0,0,1-46.5.2,3.593,3.593,0,0,1-49.328-.959a4.74,4.74,0,0,1-1.029-3.258A4.648,4.648,0,0,1-49.232-7.45,3.606,3.606,0,0,1-46.439-8.7,3.2,3.2,0,0,1-43.857-7.62a4.5,4.5,0,0,1,.913,3Zm-1.395-1.154A2.77,2.77,0,0,0-44.908-6.9a1.937,1.937,0,0,0-1.556-.656,2.2,2.2,0,0,0-1.635.689,3.127,3.127,0,0,0-.83,1.8Zm7.655-6.325a1.813,1.813,0,0,0-.9-.224q-1.428,0-1.428,1.8V-8.5h1.992v1.162h-1.992V0h-1.353V-7.338h-1.453V-8.5h1.453V-9.878A2.863,2.863,0,0,1-39.6-11.99a2.606,2.606,0,0,1,1.926-.776,2.668,2.668,0,0,1,.988.149Zm1.82.73a.863.863,0,0,1-.623-.249.84.84,0,0,1-.257-.631.854.854,0,0,1,.257-.635.855.855,0,0,1,.623-.253.879.879,0,0,1,.635.253.847.847,0,0,1,.261.635.841.841,0,0,1-.261.623A.872.872,0,0,1-34.864-10.658ZM-34.2,0h-1.361V-8.5H-34.2Zm9.813,0h-1.361V-4.848q0-2.706-1.976-2.706a2.143,2.143,0,0,0-1.689.768,2.846,2.846,0,0,0-.668,1.938V0h-1.361V-8.5h1.361v1.411h.033A3.068,3.068,0,0,1-27.259-8.7a2.6,2.6,0,0,1,2.133.9,4.012,4.012,0,0,1,.739,2.6Zm3.264-10.658a.863.863,0,0,1-.623-.249A.841.841,0,0,1-22-11.538a.854.854,0,0,1,.257-.635.855.855,0,0,1,.623-.253.879.879,0,0,1,.635.253.847.847,0,0,1,.261.635.841.841,0,0,1-.261.623A.872.872,0,0,1-21.123-10.658ZM-20.459,0H-21.82V-8.5h1.361Zm7.19-7.122A1.665,1.665,0,0,0-14.3-7.4a1.737,1.737,0,0,0-1.457.822,3.8,3.8,0,0,0-.585,2.241V0H-17.7V-8.5h1.361v1.751h.033a2.968,2.968,0,0,1,.888-1.4,2.025,2.025,0,0,1,1.336-.5,2.222,2.222,0,0,1,.813.116ZM-7.646-.307V-1.768A4.029,4.029,0,0,0-5.2-.946q1.793,0,1.793-1.2a1.037,1.037,0,0,0-.154-.577,1.53,1.53,0,0,0-.415-.419,3.2,3.2,0,0,0-.614-.328q-.353-.145-.76-.3a9.782,9.782,0,0,1-.992-.452,3,3,0,0,1-.714-.515,1.915,1.915,0,0,1-.432-.652,2.305,2.305,0,0,1-.145-.855A2.031,2.031,0,0,1-7.355-7.3a2.429,2.429,0,0,1,.73-.772,3.406,3.406,0,0,1,1.042-.469A4.621,4.621,0,0,1-4.375-8.7,4.877,4.877,0,0,1-2.4-8.317v1.378a3.85,3.85,0,0,0-2.158-.614,2.523,2.523,0,0,0-.689.087,1.687,1.687,0,0,0-.527.245,1.131,1.131,0,0,0-.34.378,1,1,0,0,0-.12.486,1.165,1.165,0,0,0,.12.556,1.224,1.224,0,0,0,.353.4,2.7,2.7,0,0,0,.564.315q.332.141.755.307a10.513,10.513,0,0,1,1.013.444,3.473,3.473,0,0,1,.764.515,2.011,2.011,0,0,1,.486.66,2.128,2.128,0,0,1,.17.888,2.094,2.094,0,0,1-.278,1.1,2.383,2.383,0,0,1-.743.772A3.4,3.4,0,0,1-4.1.05,5.287,5.287,0,0,1-5.371.2,4.822,4.822,0,0,1-7.646-.307ZM.781-10.658a.863.863,0,0,1-.623-.249A.84.84,0,0,1-.1-11.538a.854.854,0,0,1,.257-.635.855.855,0,0,1,.623-.253.879.879,0,0,1,.635.253.847.847,0,0,1,.261.635.841.841,0,0,1-.261.623A.872.872,0,0,1,.781-10.658ZM1.445,0H.084V-8.5H1.445Zm6.7-.083a2.625,2.625,0,0,1-1.27.266q-2.233,0-2.233-2.49v-5.03H3.182V-8.5H4.643v-2.075L6-11.015V-8.5H8.146v1.162H6v4.79a1.986,1.986,0,0,0,.291,1.22,1.159,1.159,0,0,0,.963.365,1.431,1.431,0,0,0,.888-.282ZM16.838,0H15.477V-1.345h-.033A2.8,2.8,0,0,1,12.821.2Q9.783.2,9.783-3.42V-8.5h1.353v4.864q0,2.689,2.059,2.689a2.083,2.083,0,0,0,1.639-.735A2.811,2.811,0,0,0,15.477-3.6V-8.5h1.361Zm8.834,0H24.311V-1.328h-.033A2.85,2.85,0,0,1,21.663.2a2.794,2.794,0,0,1-1.988-.672,2.329,2.329,0,0,1-.718-1.785q0-2.382,2.806-2.772l2.548-.357q0-2.167-1.751-2.167a4.184,4.184,0,0,0-2.772,1.046V-7.9a5.268,5.268,0,0,1,2.889-.8q3,0,3,3.171ZM24.311-4.3l-2.05.282a3.329,3.329,0,0,0-1.428.469,1.353,1.353,0,0,0-.481,1.191A1.3,1.3,0,0,0,20.8-1.341a1.716,1.716,0,0,0,1.183.394,2.185,2.185,0,0,0,1.673-.71,2.536,2.536,0,0,0,.66-1.8ZM34.033-.39A4.423,4.423,0,0,1,31.708.2,3.848,3.848,0,0,1,28.774-.984a4.287,4.287,0,0,1-1.116-3.067,4.712,4.712,0,0,1,1.2-3.374A4.211,4.211,0,0,1,32.074-8.7a4.472,4.472,0,0,1,1.976.415V-6.89a3.461,3.461,0,0,0-2.025-.664,2.737,2.737,0,0,0-2.137.934,3.544,3.544,0,0,0-.834,2.453,3.374,3.374,0,0,0,.784,2.357,2.7,2.7,0,0,0,2.1.863,3.412,3.412,0,0,0,2.092-.739ZM36.79-10.658a.863.863,0,0,1-.623-.249.84.84,0,0,1-.257-.631.854.854,0,0,1,.257-.635.855.855,0,0,1,.623-.253.879.879,0,0,1,.635.253.847.847,0,0,1,.261.635.841.841,0,0,1-.261.623A.872.872,0,0,1,36.79-10.658ZM37.454,0H36.093V-8.5h1.361Zm6.31.2A3.943,3.943,0,0,1,40.755-.992,4.412,4.412,0,0,1,39.631-4.15,4.6,4.6,0,0,1,40.8-7.5a4.208,4.208,0,0,1,3.163-1.2,3.812,3.812,0,0,1,2.968,1.17A4.641,4.641,0,0,1,48-4.283a4.567,4.567,0,0,1-1.15,3.258A4.028,4.028,0,0,1,43.764.2Zm.1-7.753a2.589,2.589,0,0,0-2.075.892A3.665,3.665,0,0,0,41.025-4.2,3.466,3.466,0,0,0,41.8-1.818a2.624,2.624,0,0,0,2.067.872,2.489,2.489,0,0,0,2.03-.855,3.71,3.71,0,0,0,.71-2.432,3.774,3.774,0,0,0-.71-2.457A2.478,2.478,0,0,0,43.864-7.554Zm1.992-5.279L43.681-10.11H42.627l1.851-2.723ZM57.23,0H55.869V-4.848q0-2.706-1.976-2.706a2.143,2.143,0,0,0-1.689.768,2.846,2.846,0,0,0-.668,1.938V0H50.174V-8.5h1.361v1.411h.033A3.068,3.068,0,0,1,54.358-8.7a2.6,2.6,0,0,1,2.133.9,4.012,4.012,0,0,1,.739,2.6ZM-40.014,18.2a3.943,3.943,0,0,1-3.009-1.191,4.412,4.412,0,0,1-1.125-3.158,4.6,4.6,0,0,1,1.17-3.345,4.208,4.208,0,0,1,3.163-1.2,3.812,3.812,0,0,1,2.968,1.17,4.641,4.641,0,0,1,1.067,3.246,4.567,4.567,0,0,1-1.15,3.258A4.028,4.028,0,0,1-40.014,18.2Zm.1-7.753a2.589,2.589,0,0,0-2.075.892,3.665,3.665,0,0,0-.764,2.461,3.466,3.466,0,0,0,.772,2.382,2.624,2.624,0,0,0,2.067.872,2.489,2.489,0,0,0,2.03-.855,3.71,3.71,0,0,0,.71-2.432,3.774,3.774,0,0,0-.71-2.457A2.478,2.478,0,0,0-39.915,10.446ZM-21.89,18h-1.361V13.152q0-2.706-1.976-2.706a2.143,2.143,0,0,0-1.689.768,2.846,2.846,0,0,0-.668,1.938V18h-1.361V9.5h1.361v1.411h.033A3.068,3.068,0,0,1-24.762,9.3a2.6,2.6,0,0,1,2.133.9,4.012,4.012,0,0,1,.739,2.6Zm9.4-3.91h-6a3.179,3.179,0,0,0,.764,2.191,2.633,2.633,0,0,0,2.009.772,4.176,4.176,0,0,0,2.64-.946v1.278a4.933,4.933,0,0,1-2.963.813,3.593,3.593,0,0,1-2.831-1.158A4.74,4.74,0,0,1-19.9,13.783,4.648,4.648,0,0,1-18.78,10.55,3.606,3.606,0,0,1-15.987,9.3a3.2,3.2,0,0,1,2.582,1.079,4.5,4.5,0,0,1,.913,3Zm-1.395-1.154a2.77,2.77,0,0,0-.569-1.834,1.937,1.937,0,0,0-1.556-.656,2.2,2.2,0,0,0-1.635.689,3.127,3.127,0,0,0-.83,1.8Zm9.249,4.673a4.423,4.423,0,0,1-2.324.589A3.848,3.848,0,0,1-9.9,17.016a4.287,4.287,0,0,1-1.116-3.067,4.712,4.712,0,0,1,1.2-3.374A4.211,4.211,0,0,1-6.6,9.3a4.472,4.472,0,0,1,1.976.415V11.11a3.461,3.461,0,0,0-2.025-.664,2.737,2.737,0,0,0-2.137.934,3.544,3.544,0,0,0-.834,2.453,3.374,3.374,0,0,0,.784,2.357,2.7,2.7,0,0,0,2.1.863,3.412,3.412,0,0,0,2.092-.739Zm8.892-3.52h-6a3.179,3.179,0,0,0,.764,2.191,2.633,2.633,0,0,0,2.009.772,4.176,4.176,0,0,0,2.64-.946v1.278A4.933,4.933,0,0,1,.7,18.2a3.593,3.593,0,0,1-2.831-1.158,4.74,4.74,0,0,1-1.029-3.258A4.648,4.648,0,0,1-2.034,10.55,3.606,3.606,0,0,1,.76,9.3,3.2,3.2,0,0,1,3.341,10.38a4.5,4.5,0,0,1,.913,3ZM2.86,12.937A2.77,2.77,0,0,0,2.291,11.1a1.937,1.937,0,0,0-1.556-.656A2.2,2.2,0,0,0-.9,11.135a3.127,3.127,0,0,0-.83,1.8ZM5.8,17.693V16.232a4.029,4.029,0,0,0,2.449.822q1.793,0,1.793-1.2a1.037,1.037,0,0,0-.154-.577,1.53,1.53,0,0,0-.415-.419,3.2,3.2,0,0,0-.614-.328q-.353-.145-.76-.3a9.782,9.782,0,0,1-.992-.452,3,3,0,0,1-.714-.515,1.915,1.915,0,0,1-.432-.652,2.305,2.305,0,0,1-.145-.855A2.031,2.031,0,0,1,6.09,10.7a2.429,2.429,0,0,1,.73-.772,3.406,3.406,0,0,1,1.042-.469A4.621,4.621,0,0,1,9.07,9.3a4.877,4.877,0,0,1,1.976.382v1.378a3.85,3.85,0,0,0-2.158-.614,2.523,2.523,0,0,0-.689.087,1.687,1.687,0,0,0-.527.245,1.131,1.131,0,0,0-.34.378,1,1,0,0,0-.12.486,1.165,1.165,0,0,0,.12.556,1.224,1.224,0,0,0,.353.4,2.7,2.7,0,0,0,.564.315q.332.141.755.307a10.513,10.513,0,0,1,1.013.444,3.473,3.473,0,0,1,.764.515,2.011,2.011,0,0,1,.486.66,2.128,2.128,0,0,1,.17.888,2.094,2.094,0,0,1-.278,1.1,2.383,2.383,0,0,1-.743.772,3.4,3.4,0,0,1-1.071.457,5.287,5.287,0,0,1-1.27.149A4.822,4.822,0,0,1,5.8,17.693ZM14.227,7.342a.863.863,0,0,1-.623-.249.84.84,0,0,1-.257-.631.872.872,0,0,1,.88-.888.879.879,0,0,1,.635.253.887.887,0,0,1,0,1.258A.872.872,0,0,1,14.227,7.342ZM14.891,18H13.53V9.5h1.361ZM24.9,18H23.542V16.556h-.033A3.143,3.143,0,0,1,20.587,18.2a3.175,3.175,0,0,1-2.561-1.141,4.682,4.682,0,0,1-.959-3.109,5.094,5.094,0,0,1,1.063-3.378A3.5,3.5,0,0,1,20.96,9.3a2.725,2.725,0,0,1,2.548,1.378h.033V5.416H24.9Zm-1.361-3.843V12.9a2.432,2.432,0,0,0-.681-1.743,2.283,2.283,0,0,0-1.727-.714,2.351,2.351,0,0,0-1.959.913,4,4,0,0,0-.714,2.523,3.6,3.6,0,0,0,.685,2.32,2.238,2.238,0,0,0,1.839.851,2.325,2.325,0,0,0,1.847-.822A3.062,3.062,0,0,0,23.542,14.157ZM33.745,18H32.384V16.672h-.033A2.85,2.85,0,0,1,29.736,18.2a2.794,2.794,0,0,1-1.988-.672,2.329,2.329,0,0,1-.718-1.785q0-2.382,2.806-2.772l2.548-.357q0-2.167-1.751-2.167a4.184,4.184,0,0,0-2.772,1.046V10.1a5.268,5.268,0,0,1,2.889-.8q3,0,3,3.171Zm-1.361-4.3-2.05.282a3.329,3.329,0,0,0-1.428.469,1.353,1.353,0,0,0-.481,1.191,1.3,1.3,0,0,0,.444,1.017,1.716,1.716,0,0,0,1.183.394,2.185,2.185,0,0,0,1.673-.71,2.536,2.536,0,0,0,.66-1.8ZM43.567,18H42.206V16.556h-.033A3.143,3.143,0,0,1,39.25,18.2a3.175,3.175,0,0,1-2.561-1.141,4.682,4.682,0,0,1-.959-3.109,5.094,5.094,0,0,1,1.063-3.378A3.5,3.5,0,0,1,39.624,9.3a2.725,2.725,0,0,1,2.548,1.378h.033V5.416h1.361Zm-1.361-3.843V12.9a2.432,2.432,0,0,0-.681-1.743,2.283,2.283,0,0,0-1.727-.714,2.351,2.351,0,0,0-1.959.913,4,4,0,0,0-.714,2.523,3.6,3.6,0,0,0,.685,2.32,2.238,2.238,0,0,0,1.839.851,2.325,2.325,0,0,0,1.847-.822A3.062,3.062,0,0,0,42.206,14.157Z" transform="translate(1033 2210)" fill="#212429"/>
    <path id="Trazado_1035075" data-name="Trazado 1035075" d="M4298.371,2140" transform="translate(-3306.488 -22.277)" fill="none" stroke="#707070" stroke-width="1"/>
    <path id="Trazado_1035076" data-name="Trazado 1035076" d="M4296.655,2139.456v53.8" transform="translate(-3304.459 -22.332)" fill="none" stroke="#496406" stroke-width="2"/>
    <path id="Trazado_1040046" data-name="Trazado 1040046" d="M9.9,0l9.9,17.607H0Z" transform="translate(1001.787 2181.525) rotate(180)" fill="#496406"/>
    <g id="Trazado_1040044" data-name="Trazado 1040044" transform="translate(670 2011)" fill="#fff">
      <path d="M 196.5 46.5 L 0.5 46.5 L 0.5 0.5 L 196.5 0.5 L 196.5 46.5 Z" stroke="none"/>
      <path d="M 1 1 L 1 46 L 196 46 L 196 1 L 1 1 M 0 0 L 197 0 L 197 47 L 0 47 L 0 0 Z" stroke="none" fill="#86b60c"/>
    </g>
    <path id="Trazado_1040045" data-name="Trazado 1040045" d="M2.955-4.5V0H1.561V-11.9H4.831a4.317,4.317,0,0,1,2.959.93A3.319,3.319,0,0,1,8.84-8.351,3.608,3.608,0,0,1,7.674-5.578,4.456,4.456,0,0,1,4.524-4.5Zm0-6.143v4.881H4.416a3.266,3.266,0,0,0,2.2-.66,2.336,2.336,0,0,0,.76-1.864q0-2.357-2.789-2.357Zm12.378,3.52A1.665,1.665,0,0,0,14.3-7.4a1.737,1.737,0,0,0-1.457.822,3.8,3.8,0,0,0-.585,2.241V0H10.9V-8.5h1.361v1.751H12.3a2.968,2.968,0,0,1,.888-1.4,2.025,2.025,0,0,1,1.336-.5,2.222,2.222,0,0,1,.813.116ZM23.644-3.91h-6a3.179,3.179,0,0,0,.764,2.191,2.633,2.633,0,0,0,2.009.772,4.176,4.176,0,0,0,2.64-.946V-.614A4.933,4.933,0,0,1,20.091.2,3.593,3.593,0,0,1,17.261-.959a4.74,4.74,0,0,1-1.029-3.258A4.648,4.648,0,0,1,17.356-7.45,3.606,3.606,0,0,1,20.149-8.7,3.2,3.2,0,0,1,22.731-7.62a4.5,4.5,0,0,1,.913,3ZM22.249-5.063A2.77,2.77,0,0,0,21.681-6.9a1.937,1.937,0,0,0-1.556-.656,2.2,2.2,0,0,0-1.635.689,3.127,3.127,0,0,0-.83,1.8ZM27.1-1.229h-.033V3.91H25.7V-8.5h1.361v1.494H27.1A3.219,3.219,0,0,1,30.037-8.7,3.113,3.113,0,0,1,32.6-7.558,4.727,4.727,0,0,1,33.524-4.5a5.268,5.268,0,0,1-1.038,3.416A3.455,3.455,0,0,1,29.647.2,2.844,2.844,0,0,1,27.1-1.229Zm-.033-3.428V-3.47a2.527,2.527,0,0,0,.685,1.789,2.274,2.274,0,0,0,1.739.735,2.279,2.279,0,0,0,1.938-.946,4.341,4.341,0,0,0,.7-2.631,3.427,3.427,0,0,0-.656-2.225A2.17,2.17,0,0,0,29.7-7.554a2.412,2.412,0,0,0-1.909.826A3.033,3.033,0,0,0,27.066-4.657ZM41.785,0H40.423V-1.328H40.39A2.85,2.85,0,0,1,37.775.2a2.794,2.794,0,0,1-1.988-.672,2.329,2.329,0,0,1-.718-1.785q0-2.382,2.806-2.772l2.548-.357q0-2.167-1.751-2.167A4.184,4.184,0,0,0,35.9-6.508V-7.9a5.268,5.268,0,0,1,2.889-.8q3,0,3,3.171ZM40.423-4.3l-2.05.282a3.329,3.329,0,0,0-1.428.469,1.353,1.353,0,0,0-.481,1.191,1.3,1.3,0,0,0,.444,1.017,1.716,1.716,0,0,0,1.183.394,2.185,2.185,0,0,0,1.673-.71,2.536,2.536,0,0,0,.66-1.8Zm8.361-2.822A1.665,1.665,0,0,0,47.755-7.4a1.737,1.737,0,0,0-1.457.822,3.8,3.8,0,0,0-.585,2.241V0H44.351V-8.5h1.361v1.751h.033a2.968,2.968,0,0,1,.888-1.4,2.025,2.025,0,0,1,1.336-.5,2.222,2.222,0,0,1,.813.116ZM56.348,0H54.986V-1.328h-.033A2.85,2.85,0,0,1,52.338.2,2.794,2.794,0,0,1,50.35-.473a2.329,2.329,0,0,1-.718-1.785q0-2.382,2.806-2.772l2.548-.357q0-2.167-1.751-2.167a4.184,4.184,0,0,0-2.772,1.046V-7.9a5.268,5.268,0,0,1,2.889-.8q3,0,3,3.171ZM54.986-4.3l-2.05.282a3.329,3.329,0,0,0-1.428.469,1.353,1.353,0,0,0-.481,1.191,1.3,1.3,0,0,0,.444,1.017,1.716,1.716,0,0,0,1.183.394,2.185,2.185,0,0,0,1.673-.71,2.536,2.536,0,0,0,.66-1.8ZM64.708-.39A4.423,4.423,0,0,1,62.384.2,3.848,3.848,0,0,1,59.45-.984a4.287,4.287,0,0,1-1.116-3.067,4.712,4.712,0,0,1,1.2-3.374A4.211,4.211,0,0,1,62.749-8.7a4.472,4.472,0,0,1,1.976.415V-6.89A3.461,3.461,0,0,0,62.7-7.554a2.737,2.737,0,0,0-2.137.934,3.544,3.544,0,0,0-.834,2.453,3.374,3.374,0,0,0,.784,2.357,2.7,2.7,0,0,0,2.1.863,3.412,3.412,0,0,0,2.092-.739Zm2.758-10.268a.862.862,0,0,1-.623-.249.841.841,0,0,1-.257-.631.854.854,0,0,1,.257-.635.855.855,0,0,1,.623-.253.879.879,0,0,1,.635.253.847.847,0,0,1,.261.635.841.841,0,0,1-.261.623A.872.872,0,0,1,67.466-10.658ZM68.13,0H66.768V-8.5H68.13Zm6.31.2A3.943,3.943,0,0,1,71.431-.992,4.412,4.412,0,0,1,70.306-4.15,4.6,4.6,0,0,1,71.477-7.5a4.208,4.208,0,0,1,3.163-1.2,3.812,3.812,0,0,1,2.968,1.17,4.641,4.641,0,0,1,1.067,3.246,4.566,4.566,0,0,1-1.15,3.258A4.028,4.028,0,0,1,74.44.2Zm.1-7.753a2.589,2.589,0,0,0-2.075.892A3.665,3.665,0,0,0,71.7-4.2a3.466,3.466,0,0,0,.772,2.382,2.624,2.624,0,0,0,2.067.872,2.489,2.489,0,0,0,2.03-.855,3.71,3.71,0,0,0,.71-2.432,3.774,3.774,0,0,0-.71-2.457A2.478,2.478,0,0,0,74.54-7.554Zm1.992-5.279L74.357-10.11H73.3l1.851-2.723ZM87.906,0H86.544V-4.848q0-2.706-1.976-2.706a2.143,2.143,0,0,0-1.689.768,2.846,2.846,0,0,0-.668,1.938V0H80.85V-8.5h1.361v1.411h.033A3.068,3.068,0,0,1,85.034-8.7a2.6,2.6,0,0,1,2.133.9,4.012,4.012,0,0,1,.739,2.6Z" transform="translate(720 2039)" fill="#212429"/>
    <g id="g6580" transform="translate(809.354 2182.648)" clip-path="url(#clip-path)">
      <g id="g6586" transform="translate(19.464 3.02)">
        <path id="path6588" d="M-38.481-96.033h-5.211v-10.525a2.48,2.48,0,0,1,2.48-2.48h.251a2.48,2.48,0,0,1,2.48,2.48Z" transform="translate(43.692 109.038)" fill="#aca5d6"/>
      </g>
      <g id="g6590" transform="translate(20.607 3.02)">
        <path id="path6592" d="M-11.723,0h-.251a2.466,2.466,0,0,0-1.336.393A2.476,2.476,0,0,1-12.167,2.48V13.005h2.924V2.48A2.48,2.48,0,0,0-11.723,0" transform="translate(13.311)" fill="#978ecb"/>
      </g>
      <g id="g6594" transform="translate(10.777 4.537)">
        <path id="path6596" d="M-262.228-545.44h-35.512v-59.153a3.861,3.861,0,0,1,2.631-3.66l32.881-11.052Z" transform="translate(297.739 619.305)" fill="#c8effe"/>
      </g>
      <g id="g6598" transform="translate(42.861 4.537)">
        <path id="path6600" d="M0-8.508V64.205H3.428V-9.66Z" transform="translate(0 9.66)" fill="#99e6fc"/>
      </g>
      <g id="g6602" transform="translate(46.288 38.326)">
        <path id="path6604" d="M-182.369-19.529V17.9h-24.7V-22.173h22.052a2.644,2.644,0,0,1,2.645,2.645" transform="translate(207.066 22.173)" fill="#f5fcff"/>
      </g>
      <g id="g6606" transform="translate(64.913 38.325)">
        <path id="path6608" d="M-25.311,0h-3.428a2.646,2.646,0,0,1,2.646,2.646V40.077h3.428V2.646A2.646,2.646,0,0,0-25.311,0" transform="translate(28.739)" fill="#ddf4fe"/>
      </g>
      <g id="g6610" transform="translate(46.288 70.982)">
        <path id="path6612" d="M0-54.791H32.148a1.793,1.793,0,0,0,1.793-1.793v-5.627H0Z" transform="translate(0 62.211)" fill="#b6c4cf"/>
      </g>
      <g id="g6614" transform="translate(63.225 61.898)">
        <path id="path6616" d="M-57.306-.106V8.964h-7.761V6.519A6.64,6.64,0,0,1-58.426-.12h.673c.149,0,.3,0,.447.014" transform="translate(65.067 0.12)" fill="#ddf4fe"/>
      </g>
      <g id="g6618" transform="translate(75.009 70.982)">
        <path id="path6620" d="M-13.241,0V5.627A1.793,1.793,0,0,1-15.035,7.42h3.428A1.793,1.793,0,0,0-9.814,5.627V0Z" transform="translate(15.035)" fill="#9facba"/>
      </g>
      <g id="g6622" transform="translate(66.275 61.898)">
        <path id="path6624" d="M-49.037,0h.673a6.641,6.641,0,0,1,6.641,6.641V9.085H-55.677V6.641A6.641,6.641,0,0,1-49.037,0" transform="translate(55.677)" fill="#bbec6c"/>
      </g>
      <g id="g6626" transform="translate(71.538 61.898)">
        <path id="path6628" d="M-15.141,0h-.673a6.659,6.659,0,0,0-1.377.144,6.642,6.642,0,0,1,5.263,6.5V9.085H-8.5V6.641A6.641,6.641,0,0,0-15.141,0" transform="translate(17.192)" fill="#a2e62e"/>
      </g>
      <g id="g6630" transform="translate(1.193 70.982)">
        <path id="path6632" d="M-13.241-54.791h7.791v-7.42h-9.584v5.627a1.793,1.793,0,0,0,1.793,1.793" transform="translate(15.035 62.211)" fill="#b6c4cf"/>
      </g>
      <path id="path6634" d="M61.617-80.111h3.428v-7.42H61.617Z" transform="translate(-54.268 158.513)" fill="#9facba"/>
      <g id="g6636" transform="translate(1.193 61.898)">
        <path id="path6638" d="M-63.847,0h.938V9.085h-9.584V8.646A8.646,8.646,0,0,1-63.847,0" transform="translate(72.493)" fill="#bbec6c"/>
      </g>
      <g id="g6640" transform="translate(7.349 61.898)">
        <path id="path6642" d="M-18.386,0a8.645,8.645,0,0,0-2.49.366V9.085h3.428V0Z" transform="translate(20.876)" fill="#a2e62e"/>
      </g>
      <g id="g6644" transform="translate(46.288 4.537)">
        <path id="path6646" d="M0,0,11.171,10.8a3.861,3.861,0,0,1,1.177,2.776V33.788H0Z" fill="#60b8fe"/>
      </g>
      <g id="g6648" transform="translate(46.288 4.537)">
        <path id="path6650" d="M-82.492-79.739l-11.171-10.8v3.313l7.744,7.485a3.86,3.86,0,0,1,1.178,2.776v20.214h3.428V-76.963a3.861,3.861,0,0,0-1.177-2.776" transform="translate(93.664 90.537)" fill="#27a5fe"/>
      </g>
      <g id="g6652" transform="translate(19.464 63.433)">
        <path id="path6654" d="M-104.379-110.539h-14.135v-10.132a1.751,1.751,0,0,1,1.28-1.686l11.1-3.1a1.382,1.382,0,0,1,1.754,1.332Z" transform="translate(118.514 125.508)" fill="#60b8fe"/>
      </g>
      <g id="g6656" transform="translate(29.919 63.433)">
        <path id="path6658" d="M-14.217-.382l-1.925.538a1.369,1.369,0,0,1,.252.794V14.536h3.428V.95A1.382,1.382,0,0,0-14.217-.382" transform="translate(16.143 0.434)" fill="#27a5fe"/>
      </g>
      <g id="g6660" transform="translate(51.886 43.655)">
        <path id="path6662" d="M-92.416-33.291h-11.7a.819.819,0,0,1-.819-.819v-2.871a.819.819,0,0,1,.819-.819h11.7a.819.819,0,0,1,.819.819v2.871a.819.819,0,0,1-.819.819" transform="translate(104.932 37.8)" fill="#c8effe"/>
      </g>
      <g id="g6664" transform="translate(60.973 43.655)">
        <path id="path6666" d="M-25.311,0h-3.428a.819.819,0,0,1,.819.819V3.69a.819.819,0,0,1-.819.819h3.428a.819.819,0,0,0,.819-.819V.819A.819.819,0,0,0-25.311,0" transform="translate(28.739)" fill="#99e6fc"/>
      </g>
      <g id="g6668" transform="translate(51.886 52.724)">
        <path id="path6670" d="M-92.416-33.291h-11.7a.819.819,0,0,1-.819-.819v-2.871a.819.819,0,0,1,.819-.819h11.7a.819.819,0,0,1,.819.819v2.871a.819.819,0,0,1-.819.819" transform="translate(104.932 37.8)" fill="#c8effe"/>
      </g>
      <g id="g6672" transform="translate(60.973 52.724)">
        <path id="path6674" d="M-25.311,0h-3.428a.819.819,0,0,1,.819.819V3.69a.819.819,0,0,1-.819.819h3.428a.819.819,0,0,0,.819-.819V.819A.819.819,0,0,0-25.311,0" transform="translate(28.739)" fill="#99e6fc"/>
      </g>
      <g id="g6676" transform="translate(51.886 61.886)">
        <path id="path6678" d="M-34.614-33.291h-3.869a.819.819,0,0,1-.819-.819v-2.871a.819.819,0,0,1,.819-.819h3.869a.819.819,0,0,1,.819.819v2.871a.819.819,0,0,1-.819.819" transform="translate(39.301 37.8)" fill="#c8effe"/>
      </g>
      <g id="g6680" transform="translate(53.146 61.886)">
        <path id="path6682" d="M-25.31,0h-3.428a.819.819,0,0,1,.819.819V3.69a.819.819,0,0,1-.819.819h3.428a.819.819,0,0,0,.819-.819V.819A.819.819,0,0,0-25.31,0" transform="translate(28.737)" fill="#99e6fc"/>
      </g>
      <g id="g6684" transform="translate(10.777 4.537)">
        <path id="path6686" d="M-262.228-545.44h-35.512v-59.153a3.861,3.861,0,0,1,2.631-3.66l32.881-11.052Z" transform="translate(297.739 619.305)" fill="none" stroke="#000" stroke-linecap="round" stroke-linejoin="round" stroke-miterlimit="10" stroke-width="1"/>
      </g>
      <g id="g6688" transform="translate(46.288 38.326)">
        <path id="path6690" d="M-147.586-241.143v7.42h-19.987V-273.8h22.052a2.643,2.643,0,0,1,2.645,2.645v21.214" transform="translate(167.573 273.799)" fill="none" stroke="#000" stroke-linecap="round" stroke-linejoin="round" stroke-miterlimit="10" stroke-width="1"/>
      </g>
      <g id="g6692" transform="translate(46.288 70.982)">
        <path id="path6694" d="M0-54.791H32.148a1.793,1.793,0,0,0,1.793-1.793v-5.627H0Z" transform="translate(0 62.211)" fill="none" stroke="#000" stroke-linecap="round" stroke-linejoin="round" stroke-miterlimit="10" stroke-width="1"/>
      </g>
      <g id="g6696" transform="translate(66.275 61.898)">
        <path id="path6698" d="M-49.037,0h.673a6.641,6.641,0,0,1,6.641,6.641V9.085H-55.677V6.641A6.641,6.641,0,0,1-49.037,0Z" transform="translate(55.677)" fill="none" stroke="#000" stroke-linecap="round" stroke-linejoin="round" stroke-miterlimit="10" stroke-width="1"/>
      </g>
      <g id="g6700" transform="translate(1.193 70.982)">
        <path id="path6702" d="M-13.241-54.791h7.791v-7.42h-9.584v5.627A1.793,1.793,0,0,0-13.241-54.791Z" transform="translate(15.035 62.211)" fill="none" stroke="#000" stroke-linecap="round" stroke-linejoin="round" stroke-miterlimit="10" stroke-width="1"/>
      </g>
      <g id="g6704" transform="translate(1.193 61.898)">
        <path id="path6706" d="M-63.847,0h.938V9.085h-9.584V8.646A8.646,8.646,0,0,1-63.847,0Z" transform="translate(72.493)" fill="none" stroke="#000" stroke-linecap="round" stroke-linejoin="round" stroke-miterlimit="10" stroke-width="1"/>
      </g>
      <g id="g6708" transform="translate(46.288 4.537)">
        <path id="path6710" d="M-91.187-249.5h-12.349v-33.788l11.171,10.8a3.861,3.861,0,0,1,1.177,2.776v14.591" transform="translate(103.536 283.287)" fill="none" stroke="#000" stroke-linecap="round" stroke-linejoin="round" stroke-miterlimit="10" stroke-width="1"/>
      </g>
      <g id="g6712" transform="translate(19.463 3.02)">
        <path id="path6714" d="M0-77.786v-8.055A2.48,2.48,0,0,1,2.481-88.32h.251a2.479,2.479,0,0,1,2.479,2.479v6.3" transform="translate(0 88.32)" fill="none" stroke="#000" stroke-linecap="round" stroke-linejoin="round" stroke-miterlimit="10" stroke-width="1"/>
      </g>
      <g id="g6716" transform="translate(19.463 13.552)">
        <path id="path6718" d="M-198.081,0l-26.825,9.017" transform="translate(224.906)" fill="none" stroke="#000" stroke-linecap="round" stroke-linejoin="round" stroke-miterlimit="10" stroke-width="1"/>
      </g>
      <g id="g6720" transform="translate(19.463 22.137)">
        <path id="path6722" d="M-198.081,0l-26.825,9.017" transform="translate(224.906)" fill="none" stroke="#000" stroke-linecap="round" stroke-linejoin="round" stroke-miterlimit="10" stroke-width="1"/>
      </g>
      <g id="g6724" transform="translate(19.463 30.721)">
        <path id="path6726" d="M-198.081,0l-26.825,9.017" transform="translate(224.906)" fill="none" stroke="#000" stroke-linecap="round" stroke-linejoin="round" stroke-miterlimit="10" stroke-width="1"/>
      </g>
      <g id="g6728" transform="translate(19.463 39.305)">
        <path id="path6730" d="M-198.081,0l-26.825,9.017" transform="translate(224.906)" fill="none" stroke="#000" stroke-linecap="round" stroke-linejoin="round" stroke-miterlimit="10" stroke-width="1"/>
      </g>
      <g id="g6732" transform="translate(19.463 55.418)">
        <path id="path6734" d="M-32.7,0l-4.428,1.488" transform="translate(37.128)" fill="none" stroke="#000" stroke-linecap="round" stroke-linejoin="round" stroke-miterlimit="10" stroke-width="1"/>
      </g>
      <g id="g6736" transform="translate(29.233 47.89)">
        <path id="path6738" d="M-125.94,0-143,5.733" transform="translate(142.996)" fill="none" stroke="#000" stroke-linecap="round" stroke-linejoin="round" stroke-miterlimit="10" stroke-width="1"/>
      </g>
      <g id="g6740" transform="translate(19.464 63.433)">
        <path id="path6742" d="M-104.379-110.539h-14.135v-10.132a1.751,1.751,0,0,1,1.28-1.686l11.1-3.1a1.382,1.382,0,0,1,1.754,1.332Z" transform="translate(118.514 125.508)" fill="none" stroke="#000" stroke-linecap="round" stroke-linejoin="round" stroke-miterlimit="10" stroke-width="1"/>
      </g>
      <g id="g6744" transform="translate(51.886 43.655)">
        <path id="path6746" d="M-92.416-33.291h-11.7a.819.819,0,0,1-.819-.819v-2.871a.819.819,0,0,1,.819-.819h11.7a.819.819,0,0,1,.819.819v2.871A.819.819,0,0,1-92.416-33.291Z" transform="translate(104.932 37.8)" fill="none" stroke="#000" stroke-linecap="round" stroke-linejoin="round" stroke-miterlimit="10" stroke-width="1"/>
      </g>
      <g id="g6748" transform="translate(51.886 52.724)">
        <path id="path6750" d="M-92.416-33.291h-11.7a.819.819,0,0,1-.819-.819v-2.871a.819.819,0,0,1,.819-.819h11.7a.819.819,0,0,1,.819.819v2.871A.819.819,0,0,1-92.416-33.291Z" transform="translate(104.932 37.8)" fill="none" stroke="#000" stroke-linecap="round" stroke-linejoin="round" stroke-miterlimit="10" stroke-width="1"/>
      </g>
      <g id="g6752" transform="translate(51.886 61.886)">
        <path id="path6754" d="M-34.614-33.291h-3.869a.819.819,0,0,1-.819-.819v-2.871a.819.819,0,0,1,.819-.819h3.869a.819.819,0,0,1,.819.819v2.871A.819.819,0,0,1-34.614-33.291Z" transform="translate(39.301 37.8)" fill="none" stroke="#000" stroke-linecap="round" stroke-linejoin="round" stroke-miterlimit="10" stroke-width="1"/>
      </g>
      <g id="g6756" transform="translate(26.531 64.968)">
        <path id="path6758" d="M0,0V13.434" fill="none" stroke="#000" stroke-linecap="round" stroke-linejoin="round" stroke-miterlimit="10" stroke-width="1"/>
      </g>
    </g>
  </g>
</svg>
