<svg xmlns="http://www.w3.org/2000/svg" xmlns:xlink="http://www.w3.org/1999/xlink" width="108" height="108" viewBox="0 0 108 108">
  <defs>
    <filter id="Trazado_904820" x="0" y="0" width="108" height="108" filterUnits="userSpaceOnUse">
      <feOffset dy="3" input="SourceAlpha"/>
      <feGaussianBlur stdDeviation="3" result="blur"/>
      <feFlood flood-opacity="0.161"/>
      <feComposite operator="in" in2="blur"/>
      <feComposite in="SourceGraphic"/>
    </filter>
  </defs>
  <g id="Grupo_1201752" data-name="Grupo 1201752" transform="translate(9 6)">
    <g id="Grupo_1173585" data-name="Grupo 1173585" transform="translate(0 0)">
      <g id="Grupo_1173428" data-name="Grupo 1173428">
        <g id="Grupo_1171958" data-name="Grupo 1171958">
          <g id="Grupo_1167341" data-name="Grupo 1167341">
            <g id="Grupo_1166792" data-name="Grupo 1166792">
              <g transform="matrix(1, 0, 0, 1, -9, -6)" filter="url(#Trazado_904820)">
                <g id="Trazado_904820-2" data-name="Trazado 904820" transform="translate(9 6)" fill="#e9f9fd">
                  <path d="M 44.99999618530273 88.50002288818359 C 39.12687301635742 88.50002288818359 33.43022155761719 87.35009765625 28.06829643249512 85.08218383789062 C 22.88852119445801 82.89133453369141 18.23629570007324 79.75460815429688 14.24084663391113 75.75916290283203 C 10.24540901184082 71.76371002197266 7.108683586120605 67.11148834228516 4.917821407318115 61.93171310424805 C 2.649921178817749 56.56978607177734 1.499996185302734 50.87313461303711 1.499996185302734 45.0000114440918 C 1.499996185302734 39.12688827514648 2.649921178817749 33.43023681640625 4.917821407318115 28.06829833984375 C 7.108683586120605 22.88852310180664 10.24540901184082 18.2363109588623 14.24084663391113 14.2408618927002 C 18.23629570007324 10.24541187286377 22.88852119445801 7.108686447143555 28.06829643249512 4.917823791503906 C 33.43022155761719 2.649924039840698 39.12687301635742 1.499998927116394 44.99999618530273 1.499998927116394 C 50.87311935424805 1.499998927116394 56.56977081298828 2.649924039840698 61.93169784545898 4.917823791503906 C 67.11147308349609 7.108686447143555 71.76369476318359 10.24541187286377 75.75914764404297 14.2408618927002 C 79.75458526611328 18.2363109588623 82.89131164550781 22.88852310180664 85.08216857910156 28.06829833984375 C 87.35007476806641 33.43023681640625 88.5 39.12688827514648 88.5 45.0000114440918 C 88.5 50.87313461303711 87.35007476806641 56.56978607177734 85.08216857910156 61.93171310424805 C 82.89131164550781 67.11148834228516 79.75458526611328 71.76371002197266 75.75914764404297 75.75916290283203 C 71.76369476318359 79.75460815429688 67.11147308349609 82.89133453369141 61.93169784545898 85.08218383789062 C 56.56977081298828 87.35009765625 50.87311935424805 88.50002288818359 44.99999618530273 88.50002288818359 Z" stroke="none"/>
                  <path d="M 44.99999618530273 3 C 39.32870864868164 3 33.82865142822266 4.110054016113281 28.65262603759766 6.299339294433594 C 23.65165710449219 8.414566040039062 19.15968322753906 11.44333648681641 15.301513671875 15.30152893066406 C 11.44333648681641 19.15969848632812 8.414566040039062 23.65165710449219 6.299339294433594 28.65264129638672 C 4.110054016113281 33.82866668701172 2.999992370605469 39.3287239074707 2.999992370605469 45.0000114440918 C 2.999992370605469 50.67129898071289 4.110054016113281 56.17135620117188 6.299339294433594 61.34738159179688 C 8.414566040039062 66.34836578369141 11.44333648681641 70.84032440185547 15.301513671875 74.69849395751953 C 19.15968322753906 78.55668640136719 23.65165710449219 81.58545684814453 28.65262603759766 83.70068359375 C 33.82865142822266 85.88996887207031 39.32870864868164 87.00002288818359 44.99999618530273 87.00002288818359 C 50.67128372192383 87.00002288818359 56.17134094238281 85.88996887207031 61.34736633300781 83.70068359375 C 66.34834289550781 81.58545684814453 70.84030914306641 78.55668640136719 74.69847869873047 74.69849395751953 C 78.55665588378906 70.84032440185547 81.58542633056641 66.34836578369141 83.70065307617188 61.34738159179688 C 85.88993835449219 56.17135620117188 87 50.67129898071289 87 45.0000114440918 C 87 39.3287239074707 85.88993835449219 33.82866668701172 83.70065307617188 28.65264129638672 C 81.58542633056641 23.65165710449219 78.55665588378906 19.15969848632812 74.69847869873047 15.30152893066406 C 70.84030914306641 11.44333648681641 66.34834289550781 8.414566040039062 61.34736633300781 6.299339294433594 C 56.17134094238281 4.110054016113281 50.67128372192383 3 44.99999618530273 3 M 44.99999618530273 0 C 69.85281372070312 0 90 20.14719390869141 90 45.0000114440918 C 90 69.85282897949219 69.85281372070312 90.00002288818359 44.99999618530273 90.00002288818359 C 20.14717864990234 90.00002288818359 -7.62939453125e-06 69.85282897949219 -7.62939453125e-06 45.0000114440918 C -7.62939453125e-06 20.14719390869141 20.14717864990234 0 44.99999618530273 0 Z" stroke="none" fill="#1d7083"/>
                </g>
              </g>
            </g>
          </g>
        </g>
      </g>
    </g>
    <g id="data-analytics_2758683" transform="translate(17.068 17.068)">
      <g id="Grupo_1202134" data-name="Grupo 1202134" transform="translate(1.869 1.869)">
        <g id="Grupo_1202122" data-name="Grupo 1202122" transform="translate(13.9 3.475)">
          <path id="Trazado_1039785" data-name="Trazado 1039785" d="M31.813,25.2a12.831,12.831,0,0,0,.087-1.824,13.85,13.85,0,0,0-8.688-12.858V6H54.488a1.743,1.743,0,0,1,1.738,1.738V52.913a1.743,1.743,0,0,1-1.738,1.738H18a3.563,3.563,0,0,0,3.475-3.475V36.841A14.063,14.063,0,0,0,31.813,25.2Z" transform="translate(-18 -6)" fill="#e6e9ed"/>
        </g>
        <g id="Grupo_1202123" data-name="Grupo 1202123" transform="translate(40.832 45.176)">
          <path id="Trazado_1039786" data-name="Trazado 1039786" d="M49,54h5.213v3.475H49Z" transform="translate(-49 -54)" fill="#fcd770"/>
        </g>
        <g id="Grupo_1202124" data-name="Grupo 1202124" transform="translate(30.407 45.176)">
          <path id="Trazado_1039787" data-name="Trazado 1039787" d="M37,54h6.95v3.475H37Z" transform="translate(-37 -54)" fill="#fcd770"/>
        </g>
        <g id="Grupo_1202125" data-name="Grupo 1202125" transform="translate(21.719 45.176)">
          <path id="Trazado_1039788" data-name="Trazado 1039788" d="M27,54h5.213v3.475H27Z" transform="translate(-27 -54)" fill="#fcd770"/>
        </g>
        <g id="Grupo_1202126" data-name="Grupo 1202126" transform="translate(40.832 22.588)">
          <path id="Trazado_1039789" data-name="Trazado 1039789" d="M49,28h3.475V47.113H49Z" transform="translate(-49 -28)" fill="#5cd6b3"/>
        </g>
        <g id="Grupo_1202127" data-name="Grupo 1202127" transform="translate(36.488 6.95)">
          <path id="Trazado_1039790" data-name="Trazado 1039790" d="M50.081,10a6.081,6.081,0,1,1,0,12.163,5.894,5.894,0,0,1-3.823-1.39A5.975,5.975,0,0,1,44,16.081,6.044,6.044,0,0,1,50.081,10Z" transform="translate(-44 -10)" fill="#ff826e"/>
        </g>
        <g id="Grupo_1202128" data-name="Grupo 1202128" transform="translate(31.275 20.85)">
          <path id="Trazado_1039791" data-name="Trazado 1039791" d="M40.606,26A2.606,2.606,0,1,1,38,28.606v-.348A2.623,2.623,0,0,1,40.606,26Z" transform="translate(-38 -26)" fill="#ff826e"/>
        </g>
        <g id="Grupo_1202129" data-name="Grupo 1202129" transform="translate(32.144 29.538)">
          <path id="Trazado_1039792" data-name="Trazado 1039792" d="M39,36h3.475V48.163H39Z" transform="translate(-39 -36)" fill="#5cd6b3"/>
        </g>
        <g id="Grupo_1202130" data-name="Grupo 1202130" transform="translate(0 7.993)">
          <path id="Trazado_1039793" data-name="Trazado 1039793" d="M19.375,37.524a15.224,15.224,0,0,1-3.475.434,15.224,15.224,0,0,1-3.475-.434A13.886,13.886,0,0,1,10.688,11.2v3.823a10.476,10.476,0,0,0-5.213,9.035,16.87,16.87,0,0,0,.174,2.085,10.47,10.47,0,0,0,20.5,0,8.459,8.459,0,0,0,.174-2.085,10.476,10.476,0,0,0-5.213-9.035V11.2A13.85,13.85,0,0,1,29.8,24.058a12.831,12.831,0,0,1-.087,1.824A14.063,14.063,0,0,1,19.375,37.524Z" transform="translate(-2 -11.2)" fill="#fcd770"/>
        </g>
        <g id="Grupo_1202131" data-name="Grupo 1202131" transform="translate(23.457 34.751)">
          <path id="Trazado_1039794" data-name="Trazado 1039794" d="M29,42h3.475v6.95H29Z" transform="translate(-29 -42)" fill="#5cd6b3"/>
        </g>
        <path id="Trazado_1039795" data-name="Trazado 1039795" d="M21.638,15.6v3.823A1.743,1.743,0,0,1,19.9,21.16H12.95a1.743,1.743,0,0,1-1.738-1.738V15.6A10.476,10.476,0,0,0,6,24.635a16.87,16.87,0,0,0,.174,2.085,10.47,10.47,0,0,0,20.5,0,8.459,8.459,0,0,0,.174-2.085A10.476,10.476,0,0,0,21.638,15.6Z" transform="translate(-2.525 -3.785)" fill="#69d6f4"/>
        <g id="Grupo_1202132" data-name="Grupo 1202132" transform="translate(8.688 0)">
          <path id="Trazado_1039796" data-name="Trazado 1039796" d="M22.425,13.815v3.823a1.743,1.743,0,0,1-1.738,1.738h-6.95A1.743,1.743,0,0,1,12,17.638V3.738A1.743,1.743,0,0,1,13.738,2h6.95a1.743,1.743,0,0,1,1.738,1.738V13.815Z" transform="translate(-12 -2)" fill="#f0d0b4"/>
        </g>
        <g id="Grupo_1202133" data-name="Grupo 1202133" transform="translate(10.425 34.316)">
          <path id="Trazado_1039797" data-name="Trazado 1039797" d="M20.95,41.5V55.835a3.475,3.475,0,0,1-6.95,0V41.5a15.224,15.224,0,0,0,3.475.434A15.224,15.224,0,0,0,20.95,41.5Z" transform="translate(-14 -41.5)" fill="#969faa"/>
        </g>
      </g>
      <g id="Grupo_1202135" data-name="Grupo 1202135" transform="translate(1 1)">
        <path id="Trazado_1039798" data-name="Trazado 1039798" d="M52.257,4.475H21.85V3.606A2.56,2.56,0,0,0,19.244,1h-6.95A2.56,2.56,0,0,0,9.688,3.606V9.253a14.744,14.744,0,0,0,1.738,27.54V50.519a4.3,4.3,0,0,0,4.344,4.344H52.257a2.56,2.56,0,0,0,2.606-2.606V7.081A2.56,2.56,0,0,0,52.257,4.475ZM12.294,20.113h6.95a2.56,2.56,0,0,0,2.606-2.606V15.421a9.626,9.626,0,0,1,3.475,7.3,9.556,9.556,0,1,1-19.113,0,9.36,9.36,0,0,1,3.475-7.3v2.085A2.56,2.56,0,0,0,12.294,20.113ZM11.425,3.606a.821.821,0,0,1,.869-.869h6.95a.821.821,0,0,1,.869.869v13.9a.821.821,0,0,1-.869.869h-6.95a.821.821,0,0,1-.869-.869ZM2.738,22.719a12.845,12.845,0,0,1,6.95-11.468v2a11.294,11.294,0,1,0,12.163,0v-2A13.01,13.01,0,1,1,2.738,22.719Zm10.425,27.8V37.227a13.162,13.162,0,0,0,5.213,0V50.519a2.606,2.606,0,0,1-5.213,0Zm39.963,1.738a.821.821,0,0,1-.869.869H19.244a4.467,4.467,0,0,0,.869-2.606V36.793A14.782,14.782,0,0,0,30.277,25.412l2.085.261a3.416,3.416,0,0,0,3.475,3.041,3.485,3.485,0,0,0,3.475-3.475,3.628,3.628,0,0,0-.608-2l2.172-2.519a6,6,0,0,0,3.562,1.129,6.95,6.95,0,1,0-6.95-6.95A6.767,6.767,0,0,0,39.4,19.678L37.227,22.2a4.093,4.093,0,0,0-1.477-.348,3.409,3.409,0,0,0-3.214,2.172l-2.085-.261c0-.348.087-.7.087-1.043A14.789,14.789,0,0,0,21.85,9.253V6.213H52.257a.821.821,0,0,1,.869.869ZM37.488,25.325a1.738,1.738,0,1,1-1.738-1.738A1.743,1.743,0,0,1,37.488,25.325ZM39.226,14.9a5.213,5.213,0,1,1,5.213,5.213A5.228,5.228,0,0,1,39.226,14.9Z" transform="translate(-1 -1)"/>
        <path id="Trazado_1039799" data-name="Trazado 1039799" d="M9,27h1.738v1.738H9Z" transform="translate(-2.05 -4.412)"/>
        <path id="Trazado_1039800" data-name="Trazado 1039800" d="M21,27h1.738v1.738H21Z" transform="translate(-3.625 -4.412)"/>
        <path id="Trazado_1039801" data-name="Trazado 1039801" d="M13,27h1.738v1.738H13Z" transform="translate(-2.575 -4.412)"/>
        <path id="Trazado_1039802" data-name="Trazado 1039802" d="M25,27h1.738v1.738H25Z" transform="translate(-4.15 -4.412)"/>
        <path id="Trazado_1039803" data-name="Trazado 1039803" d="M17,27h1.738v1.738H17Z" transform="translate(-3.1 -4.412)"/>
        <path id="Trazado_1039804" data-name="Trazado 1039804" d="M15,5h5.213V6.738H15Z" transform="translate(-2.837 -1.525)"/>
        <path id="Trazado_1039805" data-name="Trazado 1039805" d="M15,9h5.213v1.738H15Z" transform="translate(-2.837 -2.05)"/>
        <path id="Trazado_1039806" data-name="Trazado 1039806" d="M15,13h5.213v1.738H15Z" transform="translate(-2.837 -2.575)"/>
        <path id="Trazado_1039807" data-name="Trazado 1039807" d="M15,17h5.213v1.738H15Z" transform="translate(-2.837 -3.1)"/>
        <path id="Trazado_1039808" data-name="Trazado 1039808" d="M53.381,14.3l-3.736,3.736-1.129-1.129L47.3,18.123l2.346,2.346L54.6,15.516Z" transform="translate(-7.076 -2.745)"/>
        <path id="Trazado_1039809" data-name="Trazado 1039809" d="M50.325,27H45.113V46.113H41.638V33.95H36.425V46.113H32.95v-6.95H27.738v6.95H26V47.85H52.063V46.113H50.325ZM46.85,28.738h1.738V46.113H46.85Zm-8.688,6.95H39.9V46.113H38.163ZM29.475,40.9h1.738v5.213H29.475Z" transform="translate(-4.281 -4.412)"/>
        <path id="Trazado_1039810" data-name="Trazado 1039810" d="M26,58.213h6.95V53H26Zm1.738-3.475h3.475v1.738H27.738Z" transform="translate(-4.281 -7.824)"/>
        <path id="Trazado_1039811" data-name="Trazado 1039811" d="M36,58.213h8.688V53H36Zm1.738-3.475H42.95v1.738H37.738Z" transform="translate(-5.593 -7.824)"/>
        <path id="Trazado_1039812" data-name="Trazado 1039812" d="M48,58.213h6.95V53H48Zm1.738-3.475h3.475v1.738H49.738Z" transform="translate(-7.168 -7.824)"/>
      </g>
    </g>
  </g>
</svg>
