<svg xmlns="http://www.w3.org/2000/svg" xmlns:xlink="http://www.w3.org/1999/xlink" width="113" height="113" viewBox="0 0 113 113">
  <defs>
    <filter id="Trazado_982547" x="0" y="0" width="113" height="113" filterUnits="userSpaceOnUse">
      <feOffset dy="3" input="SourceAlpha"/>
      <feGaussianBlur stdDeviation="3" result="blur"/>
      <feFlood flood-opacity="0.161"/>
      <feComposite operator="in" in2="blur"/>
      <feComposite in="SourceGraphic"/>
    </filter>
  </defs>
  <g id="Grupo_1202047" data-name="Grupo 1202047" transform="translate(-271 -870.414)">
    <g id="Grupo_1174813" data-name="Grupo 1174813" transform="translate(280 876.414)">
      <g id="Grupo_1201680" data-name="Grupo 1201680">
        <g id="Grupo_1201330" data-name="Grupo 1201330">
          <g id="Grupo_1172010" data-name="Grupo 1172010">
            <g id="Grupo_1171046" data-name="Grupo 1171046">
              <g id="Grupo_1148525" data-name="Grupo 1148525">
                <g transform="matrix(1, 0, 0, 1, -9, -6)" filter="url(#Trazado_982547)">
                  <g id="Trazado_982547-2" data-name="Trazado 982547" transform="translate(9 6)" fill="#e9f9fd">
                    <path d="M 47.5 93.5 C 41.28937149047852 93.5 35.26533508300781 92.28397369384766 29.59518623352051 89.88570404052734 C 24.11771965026855 87.56893157958984 19.19813346862793 84.25196075439453 14.97309303283691 80.02691650390625 C 10.74804019927979 75.80186462402344 7.431066513061523 70.88229370117188 5.114293098449707 65.40481567382812 C 2.716026782989502 59.73468017578125 1.5 53.71062850952148 1.5 47.5 C 1.5 41.28937149047852 2.716026782989502 35.26533508300781 5.114293098449707 29.59518623352051 C 7.431066513061523 24.11771965026855 10.74804019927979 19.19813346862793 14.97309303283691 14.97309303283691 C 19.19813346862793 10.74804019927979 24.11771965026855 7.431066513061523 29.59518623352051 5.114293098449707 C 35.26533508300781 2.716026782989502 41.28937149047852 1.5 47.5 1.5 C 53.71062850952148 1.5 59.73468017578125 2.716026782989502 65.40481567382812 5.114293098449707 C 70.88229370117188 7.431066513061523 75.80186462402344 10.74804019927979 80.02691650390625 14.97309303283691 C 84.25196075439453 19.19813346862793 87.56893157958984 24.11771965026855 89.88570404052734 29.59518623352051 C 92.28397369384766 35.26533508300781 93.5 41.28937149047852 93.5 47.5 C 93.5 53.71062850952148 92.28397369384766 59.73468017578125 89.88570404052734 65.40481567382812 C 87.56893157958984 70.88229370117188 84.25196075439453 75.80186462402344 80.02691650390625 80.02691650390625 C 75.80186462402344 84.25196075439453 70.88229370117188 87.56893157958984 65.40481567382812 89.88570404052734 C 59.73468017578125 92.28397369384766 53.71062850952148 93.5 47.5 93.5 Z" stroke="none"/>
                    <path d="M 47.5 3 C 41.49121475219727 3 35.66376876831055 4.176155090332031 30.17950439453125 6.495796203613281 C 24.88084411621094 8.736953735351562 20.12152099609375 11.94598388671875 16.03375244140625 16.03375244140625 C 11.94598388671875 20.12152099609375 8.736953735351562 24.88084411621094 6.495796203613281 30.17950439453125 C 4.176155090332031 35.66376876831055 3 41.49121475219727 3 47.5 C 3 53.50878524780273 4.176155090332031 59.33623123168945 6.495796203613281 64.82049560546875 C 8.736953735351562 70.11915588378906 11.94598388671875 74.87847900390625 16.03375244140625 78.96624755859375 C 20.12152099609375 83.05401611328125 24.88084411621094 86.26304626464844 30.17950439453125 88.50419616699219 C 35.66376876831055 90.82384490966797 41.49121475219727 92 47.5 92 C 53.50878524780273 92 59.33623123168945 90.82384490966797 64.82049560546875 88.50419616699219 C 70.11915588378906 86.26304626464844 74.87847900390625 83.05401611328125 78.96624755859375 78.96624755859375 C 83.05401611328125 74.87847900390625 86.26304626464844 70.11915588378906 88.50419616699219 64.82049560546875 C 90.82384490966797 59.33623123168945 92 53.50878524780273 92 47.5 C 92 41.49121475219727 90.82384490966797 35.66376876831055 88.50419616699219 30.17950439453125 C 86.26304626464844 24.88084411621094 83.05401611328125 20.12152099609375 78.96624755859375 16.03375244140625 C 74.87847900390625 11.94598388671875 70.11915588378906 8.736953735351562 64.82049560546875 6.495796203613281 C 59.33623123168945 4.176155090332031 53.50878524780273 3 47.5 3 M 47.5 0 C 73.7335205078125 0 95 21.2664794921875 95 47.5 C 95 73.7335205078125 73.7335205078125 95 47.5 95 C 21.2664794921875 95 0 73.7335205078125 0 47.5 C 0 21.2664794921875 21.2664794921875 0 47.5 0 Z" stroke="none" fill="#1d7083"/>
                  </g>
                </g>
              </g>
            </g>
          </g>
        </g>
      </g>
    </g>
    <g id="note_8234433" transform="translate(289.174 865.049)">
      <path id="Trazado_1039558" data-name="Trazado 1039558" d="M225.179,208.427l-29.872-4.068a2.333,2.333,0,0,1-2-2.626l4.068-29.872a2.333,2.333,0,0,1,2.626-2l29.872,4.068a2.333,2.333,0,0,1,2,2.626l-4.068,29.872A2.333,2.333,0,0,1,225.179,208.427Z" transform="translate(-162.742 -121.665)" fill="#ffab56"/>
      <path id="Trazado_1039559" data-name="Trazado 1039559" d="M200.381,169.864a2.333,2.333,0,0,0-2.626,2L193.719,201.5h22.8a4.571,4.571,0,0,0,4.566-4.566V172.684Z" transform="translate(-163.119 -121.666)" fill="#ff982a"/>
      <path id="Trazado_1039560" data-name="Trazado 1039560" d="M42.429,110.6l-30.056,2.358a2.333,2.333,0,0,1-2.508-2.143L7.508,80.762a2.333,2.333,0,0,1,2.143-2.508L39.707,75.9a2.333,2.333,0,0,1,2.508,2.143L44.572,108.1A2.333,2.333,0,0,1,42.429,110.6Z" transform="translate(-0.001 -39.367)" fill="#9ff497"/>
      <path id="Trazado_1039561" data-name="Trazado 1039561" d="M97.68,112.965v27.978l23.742-1.862a2.333,2.333,0,0,0,2.143-2.508l-2.21-28.173H102.246A4.571,4.571,0,0,0,97.68,112.965Z" transform="translate(-78.994 -67.844)" fill="#6ce79a"/>
      <path id="Trazado_1039562" data-name="Trazado 1039562" d="M231.4,180.061l.477-3.5a2.333,2.333,0,0,0-2-2.626l-29.872-4.068a2.333,2.333,0,0,0-2.626,2l-4.068,29.872a2.333,2.333,0,0,0,2,2.626l29.872,4.068a2.333,2.333,0,0,0,2.626-2l3.1-22.772" transform="translate(-162.743 -121.665)" fill="none" stroke="#000" stroke-linecap="round" stroke-linejoin="round" stroke-miterlimit="10" stroke-width="1.3"/>
      <path id="Trazado_1039563" data-name="Trazado 1039563" d="M15.944,77.761l-6.294.494a2.333,2.333,0,0,0-2.143,2.508l2.358,30.056a2.333,2.333,0,0,0,2.508,2.143L42.428,110.6a2.333,2.333,0,0,0,2.143-2.508L42.214,78.041A2.333,2.333,0,0,0,39.706,75.9L19.541,77.479" transform="translate(0 -39.368)" fill="none" stroke="#000" stroke-linecap="round" stroke-linejoin="round" stroke-miterlimit="10" stroke-width="1.3"/>
      <path id="Trazado_1039564" data-name="Trazado 1039564" d="M148.161,161.212H118.013a2.333,2.333,0,0,1-2.333-2.333V128.731a2.333,2.333,0,0,1,2.333-2.333h30.148a2.333,2.333,0,0,1,2.333,2.333v30.148A2.333,2.333,0,0,1,148.161,161.212Z" transform="translate(-94.761 -83.61)" fill="#ffe270"/>
      <path id="Trazado_1039565" data-name="Trazado 1039565" d="M355.419,126.4H352.29a2.333,2.333,0,0,1,2.333,2.333V158.88a2.333,2.333,0,0,1-2.333,2.333h3.129a2.333,2.333,0,0,0,2.333-2.333V128.732A2.333,2.333,0,0,0,355.419,126.4Z" transform="translate(-302.019 -83.611)" fill="#ffd250"/>
      <line id="Línea_827" data-name="Línea 827" y1="10.05" x2="11.373" transform="translate(38.326 36.233)" fill="none" stroke="#000" stroke-linecap="round" stroke-linejoin="round" stroke-miterlimit="10" stroke-width="1.3"/>
      <circle id="Elipse_12290" data-name="Elipse 12290" cx="3.054" cy="3.054" r="3.054" transform="translate(49.043 30.947)" fill="#5844a0"/>
      <circle id="Elipse_12291" data-name="Elipse 12291" cx="3.054" cy="3.054" r="3.054" transform="translate(49.043 30.947)" fill="none" stroke="#000" stroke-linecap="round" stroke-linejoin="round" stroke-miterlimit="10" stroke-width="1.3"/>
      <g id="Grupo_1202046" data-name="Grupo 1202046" transform="translate(28.325 50.851)">
        <line id="Línea_828" data-name="Línea 828" x2="20.002" fill="none" stroke="#000" stroke-linecap="round" stroke-linejoin="round" stroke-miterlimit="10" stroke-width="1.3"/>
        <line id="Línea_829" data-name="Línea 829" x2="20.002" transform="translate(0 4.672)" fill="none" stroke="#000" stroke-linecap="round" stroke-linejoin="round" stroke-miterlimit="10" stroke-width="1.3"/>
        <line id="Línea_830" data-name="Línea 830" x2="20.002" transform="translate(0 9.343)" fill="none" stroke="#000" stroke-linecap="round" stroke-linejoin="round" stroke-miterlimit="10" stroke-width="1.3"/>
        <line id="Línea_831" data-name="Línea 831" x2="20.002" transform="translate(0 14.015)" fill="none" stroke="#000" stroke-linecap="round" stroke-linejoin="round" stroke-miterlimit="10" stroke-width="1.3"/>
        <line id="Línea_832" data-name="Línea 832" x2="20.002" transform="translate(0 18.687)" fill="none" stroke="#000" stroke-linecap="round" stroke-linejoin="round" stroke-miterlimit="10" stroke-width="1.3"/>
      </g>
      <path id="Trazado_1039566" data-name="Trazado 1039566" d="M136.684,161.213h11.477a2.333,2.333,0,0,0,2.333-2.333V128.732a2.333,2.333,0,0,0-2.333-2.333H118.013a2.333,2.333,0,0,0-2.333,2.333V158.88a2.333,2.333,0,0,0,2.333,2.333h15.074" transform="translate(-94.761 -83.611)" fill="none" stroke="#000" stroke-linecap="round" stroke-linejoin="round" stroke-miterlimit="10" stroke-width="1.3"/>
    </g>
  </g>
</svg>
