<svg xmlns="http://www.w3.org/2000/svg" xmlns:xlink="http://www.w3.org/1999/xlink" width="108" height="108" viewBox="0 0 108 108">
  <defs>
    <filter id="Trazado_904820" x="0" y="0" width="108" height="108" filterUnits="userSpaceOnUse">
      <feOffset dy="3" input="SourceAlpha"/>
      <feGaussianBlur stdDeviation="3" result="blur"/>
      <feFlood flood-opacity="0.161"/>
      <feComposite operator="in" in2="blur"/>
      <feComposite in="SourceGraphic"/>
    </filter>
  </defs>
  <g id="Grupo_1201703" data-name="Grupo 1201703" transform="translate(9 6)">
    <g id="Grupo_1173585" data-name="Grupo 1173585" transform="translate(0 0)">
      <g id="Grupo_1173428" data-name="Grupo 1173428">
        <g id="Grupo_1171958" data-name="Grupo 1171958">
          <g id="Grupo_1167341" data-name="Grupo 1167341">
            <g id="Grupo_1166792" data-name="Grupo 1166792">
              <g transform="matrix(1, 0, 0, 1, -9, -6)" filter="url(#Trazado_904820)">
                <g id="Trazado_904820-2" data-name="Trazado 904820" transform="translate(9 6)" fill="#fff4e6">
                  <path d="M 44.99999618530273 88.50002288818359 C 39.12687301635742 88.50002288818359 33.43022155761719 87.35009765625 28.06829643249512 85.08218383789062 C 22.88852119445801 82.89133453369141 18.23629570007324 79.75460815429688 14.24084663391113 75.75916290283203 C 10.24540901184082 71.76371002197266 7.108683586120605 67.11148834228516 4.917821407318115 61.93171310424805 C 2.649921178817749 56.56978607177734 1.499996185302734 50.87313461303711 1.499996185302734 45.0000114440918 C 1.499996185302734 39.12688827514648 2.649921178817749 33.43023681640625 4.917821407318115 28.06829833984375 C 7.108683586120605 22.88852310180664 10.24540901184082 18.2363109588623 14.24084663391113 14.2408618927002 C 18.23629570007324 10.24541187286377 22.88852119445801 7.108686447143555 28.06829643249512 4.917823791503906 C 33.43022155761719 2.649924039840698 39.12687301635742 1.499998927116394 44.99999618530273 1.499998927116394 C 50.87311935424805 1.499998927116394 56.56977081298828 2.649924039840698 61.93169784545898 4.917823791503906 C 67.11147308349609 7.108686447143555 71.76369476318359 10.24541187286377 75.75914764404297 14.2408618927002 C 79.75458526611328 18.2363109588623 82.89131164550781 22.88852310180664 85.08216857910156 28.06829833984375 C 87.35007476806641 33.43023681640625 88.5 39.12688827514648 88.5 45.0000114440918 C 88.5 50.87313461303711 87.35007476806641 56.56978607177734 85.08216857910156 61.93171310424805 C 82.89131164550781 67.11148834228516 79.75458526611328 71.76371002197266 75.75914764404297 75.75916290283203 C 71.76369476318359 79.75460815429688 67.11147308349609 82.89133453369141 61.93169784545898 85.08218383789062 C 56.56977081298828 87.35009765625 50.87311935424805 88.50002288818359 44.99999618530273 88.50002288818359 Z" stroke="none"/>
                  <path d="M 44.99999618530273 3 C 39.32870864868164 3 33.82865142822266 4.110054016113281 28.65262603759766 6.299339294433594 C 23.65165710449219 8.414566040039062 19.15968322753906 11.44333648681641 15.301513671875 15.30152893066406 C 11.44333648681641 19.15969848632812 8.414566040039062 23.65165710449219 6.299339294433594 28.65264129638672 C 4.110054016113281 33.82866668701172 2.999992370605469 39.3287239074707 2.999992370605469 45.0000114440918 C 2.999992370605469 50.67129898071289 4.110054016113281 56.17135620117188 6.299339294433594 61.34738159179688 C 8.414566040039062 66.34836578369141 11.44333648681641 70.84032440185547 15.301513671875 74.69849395751953 C 19.15968322753906 78.55668640136719 23.65165710449219 81.58545684814453 28.65262603759766 83.70068359375 C 33.82865142822266 85.88996887207031 39.32870864868164 87.00002288818359 44.99999618530273 87.00002288818359 C 50.67128372192383 87.00002288818359 56.17134094238281 85.88996887207031 61.34736633300781 83.70068359375 C 66.34834289550781 81.58545684814453 70.84030914306641 78.55668640136719 74.69847869873047 74.69849395751953 C 78.55665588378906 70.84032440185547 81.58542633056641 66.34836578369141 83.70065307617188 61.34738159179688 C 85.88993835449219 56.17135620117188 87 50.67129898071289 87 45.0000114440918 C 87 39.3287239074707 85.88993835449219 33.82866668701172 83.70065307617188 28.65264129638672 C 81.58542633056641 23.65165710449219 78.55665588378906 19.15969848632812 74.69847869873047 15.30152893066406 C 70.84030914306641 11.44333648681641 66.34834289550781 8.414566040039062 61.34736633300781 6.299339294433594 C 56.17134094238281 4.110054016113281 50.67128372192383 3 44.99999618530273 3 M 44.99999618530273 0 C 69.85281372070312 0 90 20.14719390869141 90 45.0000114440918 C 90 69.85282897949219 69.85281372070312 90.00002288818359 44.99999618530273 90.00002288818359 C 20.14717864990234 90.00002288818359 -7.62939453125e-06 69.85282897949219 -7.62939453125e-06 45.0000114440918 C -7.62939453125e-06 20.14719390869141 20.14717864990234 0 44.99999618530273 0 Z" stroke="none" fill="#ff9d1c"/>
                </g>
              </g>
            </g>
          </g>
        </g>
      </g>
    </g>
    <g id="business-impact_4365114" transform="translate(17.268 17.268)">
      <g id="Grupo_1202071" data-name="Grupo 1202071" transform="translate(0.895 0.895)">
        <g id="Grupo_1202055" data-name="Grupo 1202055" transform="translate(35.783 21.47)">
          <path id="Trazado_1039567" data-name="Trazado 1039567" d="M41,30.368V26.789A1.794,1.794,0,0,1,42.789,25H57.1a1.794,1.794,0,0,1,1.789,1.789v3.578A1.794,1.794,0,0,1,57.1,32.157H42.789A1.794,1.794,0,0,1,41,30.368Z" transform="translate(-41 -25)" fill="#e6e9ed"/>
        </g>
        <g id="Grupo_1202056" data-name="Grupo 1202056" transform="translate(35.783 10.735)">
          <path id="Trazado_1039568" data-name="Trazado 1039568" d="M41,18.368V14.789A1.794,1.794,0,0,1,42.789,13H57.1a1.794,1.794,0,0,1,1.789,1.789v3.578A1.794,1.794,0,0,1,57.1,20.157H42.789A1.794,1.794,0,0,1,41,18.368Z" transform="translate(-41 -13)" fill="#e6e9ed"/>
        </g>
        <g id="Grupo_1202057" data-name="Grupo 1202057" transform="translate(35.783)">
          <path id="Trazado_1039569" data-name="Trazado 1039569" d="M58.892,2.789V6.368A1.794,1.794,0,0,1,57.1,8.157H42.789A1.794,1.794,0,0,1,41,6.368V2.789A1.794,1.794,0,0,1,42.789,1H57.1A1.794,1.794,0,0,1,58.892,2.789Z" transform="translate(-41 -1)" fill="#e6e9ed"/>
        </g>
        <g id="Grupo_1202058" data-name="Grupo 1202058" transform="translate(26.838 31.31)">
          <path id="Trazado_1039570" data-name="Trazado 1039570" d="M38.157,50.313V52.1H32.789A1.794,1.794,0,0,1,31,50.313V37.789A1.794,1.794,0,0,1,32.789,36h5.368v5.368l-1.789,1.789,1.789.895Z" transform="translate(-31 -36)" fill="#ffc729"/>
        </g>
        <g id="Grupo_1202059" data-name="Grupo 1202059" transform="translate(32.205 33.1)">
          <path id="Trazado_1039571" data-name="Trazado 1039571" d="M58.47,38V50.524H38.789V44.262L37,43.368l1.789-1.789V38Z" transform="translate(-37 -38)" fill="#fcd770"/>
        </g>
        <g id="Grupo_1202060" data-name="Grupo 1202060" transform="translate(10.735 33.994)">
          <path id="Trazado_1039572" data-name="Trazado 1039572" d="M20.157,53.313v3.578a1.794,1.794,0,0,1-1.789,1.789H14.789A1.794,1.794,0,0,1,13,56.892V53.313h1.789a1.794,1.794,0,0,0,1.789-1.789,1.8,1.8,0,0,0-1.789-1.789,1.794,1.794,0,0,0,1.789-1.789,1.8,1.8,0,0,0-1.789-1.789,1.794,1.794,0,0,0,1.789-1.789,1.8,1.8,0,0,0-1.789-1.789,1.794,1.794,0,0,0,1.789-1.789A1.8,1.8,0,0,0,14.789,39h5.368Z" transform="translate(-13 -39)" fill="#969faa"/>
        </g>
        <g id="Grupo_1202061" data-name="Grupo 1202061" transform="translate(7.157 44.729)">
          <path id="Trazado_1039573" data-name="Trazado 1039573" d="M15.629,51.528a1.749,1.749,0,0,1,.528,1.261,1.794,1.794,0,0,1-1.789,1.789H10.789A1.8,1.8,0,0,1,9,52.789,1.794,1.794,0,0,1,10.789,51h3.578A1.749,1.749,0,0,1,15.629,51.528Z" transform="translate(-9 -51)" fill="#f0d0b4"/>
        </g>
        <g id="Grupo_1202062" data-name="Grupo 1202062" transform="translate(7.157 41.151)">
          <path id="Trazado_1039574" data-name="Trazado 1039574" d="M15.629,47.528a1.749,1.749,0,0,1,.528,1.261,1.794,1.794,0,0,1-1.789,1.789H10.789A1.8,1.8,0,0,1,9,48.789,1.794,1.794,0,0,1,10.789,47h3.578A1.749,1.749,0,0,1,15.629,47.528Z" transform="translate(-9 -47)" fill="#f0d0b4"/>
        </g>
        <g id="Grupo_1202063" data-name="Grupo 1202063" transform="translate(7.157 37.573)">
          <path id="Trazado_1039575" data-name="Trazado 1039575" d="M15.629,43.528a1.749,1.749,0,0,1,.528,1.261,1.794,1.794,0,0,1-1.789,1.789H10.789A1.8,1.8,0,0,1,9,44.789,1.794,1.794,0,0,1,10.789,43h3.578A1.749,1.749,0,0,1,15.629,43.528Z" transform="translate(-9 -43)" fill="#f0d0b4"/>
        </g>
        <g id="Grupo_1202064" data-name="Grupo 1202064" transform="translate(7.157 33.994)">
          <path id="Trazado_1039576" data-name="Trazado 1039576" d="M15.629,39.528a1.749,1.749,0,0,1,.528,1.261,1.794,1.794,0,0,1-1.789,1.789H10.789A1.8,1.8,0,0,1,9,40.789,1.794,1.794,0,0,1,10.789,39h3.578A1.749,1.749,0,0,1,15.629,39.528Z" transform="translate(-9 -39)" fill="#f0d0b4"/>
        </g>
        <g id="Grupo_1202065" data-name="Grupo 1202065" transform="translate(9.84 30.416)">
          <path id="Trazado_1039577" data-name="Trazado 1039577" d="M20.051,38.578H14.684A2.68,2.68,0,0,1,12,35.895.9.9,0,0,1,12.895,35h9.644a7.127,7.127,0,0,1,3.686,1.02L29,37.684V50.208l-2.773,1.664a7.127,7.127,0,0,1-3.686,1.02H20.051Z" transform="translate(-12 -35)" fill="#f0d0b4"/>
        </g>
        <g id="Grupo_1202066" data-name="Grupo 1202066" transform="translate(0 1.789)">
          <path id="Trazado_1039578" data-name="Trazado 1039578" d="M29.519,15.524a14.782,14.782,0,0,1,.107,1.789,14.2,14.2,0,1,1-.107-1.789Z" transform="translate(-1 -3)" fill="#ccd1d9"/>
        </g>
        <g id="Grupo_1202067" data-name="Grupo 1202067" transform="translate(3.578 5.368)">
          <path id="Trazado_1039579" data-name="Trazado 1039579" d="M26.47,17.735A10.735,10.735,0,1,1,15.735,7,10.732,10.732,0,0,1,26.47,17.735Z" transform="translate(-5 -7)" fill="#69d6f4"/>
        </g>
        <g id="Grupo_1202068" data-name="Grupo 1202068" transform="translate(16.103 14.313)">
          <path id="Trazado_1039580" data-name="Trazado 1039580" d="M19,17h3.578v8.946H19Z" transform="translate(-19 -17)" fill="#ff826e"/>
        </g>
        <g id="Grupo_1202069" data-name="Grupo 1202069" transform="translate(12.524 8.946)">
          <path id="Trazado_1039581" data-name="Trazado 1039581" d="M18.578,16.368v8.946H15V11h3.578Z" transform="translate(-15 -11)" fill="#ff826e"/>
        </g>
        <g id="Grupo_1202070" data-name="Grupo 1202070" transform="translate(8.946 12.524)">
          <path id="Trazado_1039582" data-name="Trazado 1039582" d="M11,15h3.578V25.735H11Z" transform="translate(-11 -15)" fill="#ff826e"/>
        </g>
      </g>
      <g id="Grupo_1202072" data-name="Grupo 1202072">
        <path id="Trazado_1039583" data-name="Trazado 1039583" d="M35.783,31.521H29.521a2.674,2.674,0,0,0-2.3,1.331l-1.8-1.078a8.032,8.032,0,0,0-3.2-1.083,15.3,15.3,0,0,0,5.74-5.219l2.168,1.576h3.869V25.259H30.707L28.841,23.9a15.083,15.083,0,0,0,1.574-6.7c0-.3-.028-.6-.046-.895h3.624V14.524h-3.83a15.116,15.116,0,0,0-2.848-6.48l3.39-2.465h3.288V3.789H30.125L26.154,6.677a15.194,15.194,0,1,0-16.06,24.835,1.769,1.769,0,0,0-.254.9,3.542,3.542,0,0,0,.5,1.789h-.5a2.672,2.672,0,0,0-1.986,4.473,2.643,2.643,0,0,0,0,3.578,2.643,2.643,0,0,0,0,3.578A2.672,2.672,0,0,0,9.84,50.308h.895v2.684a2.687,2.687,0,0,0,2.684,2.684H17a2.687,2.687,0,0,0,2.684-2.684V50.308h1.6a8.042,8.042,0,0,0,4.142-1.148l1.8-1.078a2.677,2.677,0,0,0,2.305,1.331h6.262V47.624H55.464V33.31H35.783ZM1.789,17.208A13.419,13.419,0,1,1,15.208,30.627,13.434,13.434,0,0,1,1.789,17.208ZM9.84,35.994h3.578a.895.895,0,1,1,0,1.789H9.84a.895.895,0,1,1,0-1.789Zm-.895,8.051a.9.9,0,0,1,.895-.895h3.578a.895.895,0,0,1,0,1.789H9.84A.9.9,0,0,1,8.946,44.045Zm0-3.578a.9.9,0,0,1,.895-.895h3.578a.895.895,0,0,1,0,1.789H9.84A.9.9,0,0,1,8.946,40.467Zm0,7.157a.9.9,0,0,1,.895-.895h3.578a.895.895,0,0,1,0,1.789H9.84A.9.9,0,0,1,8.946,47.624ZM17,53.886H13.419a.9.9,0,0,1-.895-.895V50.308h.895A2.672,2.672,0,0,0,15.4,45.835a2.643,2.643,0,0,0,0-3.578,2.643,2.643,0,0,0,0-3.578,2.6,2.6,0,0,0,.533-2.684h1.954v17A.9.9,0,0,1,17,53.886Zm7.5-6.26a6.256,6.256,0,0,1-3.221.893h-1.6V37.307a6.9,6.9,0,0,0,4.12,1.371h.353V36.889H23.8a5.121,5.121,0,0,1-4.27-2.286l-.266-.4H13.419a1.791,1.791,0,0,1-1.789-1.789h9.647a6.256,6.256,0,0,1,3.221.893l2.339,1.4V46.223Zm9.5-10.213-2.4,2.4,2.4,1.2v6.6H29.521a.9.9,0,0,1-.895-.895V34.205a.9.9,0,0,1,.895-.895h4.473ZM53.675,35.1V45.835H35.783v-5.92l-1.174-.587,1.174-1.174V35.1Z" transform="translate(0 -0.211)"/>
        <path id="Trazado_1039584" data-name="Trazado 1039584" d="M27.259,17.63a11.63,11.63,0,1,0-11.63,11.63A11.643,11.643,0,0,0,27.259,17.63ZM9.989,25.681h11.28a9.784,9.784,0,0,1-11.28,0ZM20.1,23.892H18.313V16.735H20.1Zm-3.578-8.946v8.946H14.735V11.368h1.789Zm-3.578,8.946H11.157V14.946h1.789ZM5.789,17.63a9.84,9.84,0,1,1,17.426,6.262H21.892V14.946H18.313V9.578H12.946v3.578H9.368V23.892H8.044A9.8,9.8,0,0,1,5.789,17.63Z" transform="translate(-0.422 -0.632)"/>
        <path id="Trazado_1039585" data-name="Trazado 1039585" d="M57,0H42.684A2.687,2.687,0,0,0,40,2.684V6.262a2.687,2.687,0,0,0,2.684,2.684H57a2.687,2.687,0,0,0,2.684-2.684V2.684A2.687,2.687,0,0,0,57,0Zm.895,6.262A.9.9,0,0,1,57,7.157H42.684a.9.9,0,0,1-.895-.895V2.684a.9.9,0,0,1,.895-.895H57a.9.9,0,0,1,.895.895Z" transform="translate(-4.217)"/>
        <path id="Trazado_1039586" data-name="Trazado 1039586" d="M56,4h1.789V5.789H56Z" transform="translate(-5.903 -0.422)"/>
        <path id="Trazado_1039587" data-name="Trazado 1039587" d="M48,4h1.789V5.789H48Z" transform="translate(-5.06 -0.422)"/>
        <path id="Trazado_1039588" data-name="Trazado 1039588" d="M52,4h1.789V5.789H52Z" transform="translate(-5.482 -0.422)"/>
        <path id="Trazado_1039589" data-name="Trazado 1039589" d="M44,4h1.789V5.789H44Z" transform="translate(-4.638 -0.422)"/>
        <path id="Trazado_1039590" data-name="Trazado 1039590" d="M57,12H42.684A2.687,2.687,0,0,0,40,14.684v3.578a2.687,2.687,0,0,0,2.684,2.684H57a2.687,2.687,0,0,0,2.684-2.684V14.684A2.687,2.687,0,0,0,57,12Zm.895,6.262a.9.9,0,0,1-.895.895H42.684a.9.9,0,0,1-.895-.895V14.684a.9.9,0,0,1,.895-.895H57a.9.9,0,0,1,.895.895Z" transform="translate(-4.217 -1.265)"/>
        <path id="Trazado_1039591" data-name="Trazado 1039591" d="M48,16h1.789v1.789H48Z" transform="translate(-5.06 -1.687)"/>
        <path id="Trazado_1039592" data-name="Trazado 1039592" d="M52,16h1.789v1.789H52Z" transform="translate(-5.482 -1.687)"/>
        <path id="Trazado_1039593" data-name="Trazado 1039593" d="M56,16h1.789v1.789H56Z" transform="translate(-5.903 -1.687)"/>
        <path id="Trazado_1039594" data-name="Trazado 1039594" d="M44,16h1.789v1.789H44Z" transform="translate(-4.638 -1.687)"/>
        <path id="Trazado_1039595" data-name="Trazado 1039595" d="M57,24H42.684A2.687,2.687,0,0,0,40,26.684v3.578a2.687,2.687,0,0,0,2.684,2.684H57a2.687,2.687,0,0,0,2.684-2.684V26.684A2.687,2.687,0,0,0,57,24Zm.895,6.262a.9.9,0,0,1-.895.895H42.684a.9.9,0,0,1-.895-.895V26.684a.9.9,0,0,1,.895-.895H57a.9.9,0,0,1,.895.895Z" transform="translate(-4.217 -2.53)"/>
        <path id="Trazado_1039596" data-name="Trazado 1039596" d="M56,28h1.789v1.789H56Z" transform="translate(-5.903 -2.952)"/>
        <path id="Trazado_1039597" data-name="Trazado 1039597" d="M52,28h1.789v1.789H52Z" transform="translate(-5.482 -2.952)"/>
        <path id="Trazado_1039598" data-name="Trazado 1039598" d="M48,28h1.789v1.789H48Z" transform="translate(-5.06 -2.952)"/>
        <path id="Trazado_1039599" data-name="Trazado 1039599" d="M44,28h1.789v1.789H44Z" transform="translate(-4.638 -2.952)"/>
      </g>
    </g>
  </g>
</svg>
