<svg xmlns="http://www.w3.org/2000/svg" width="37.382" height="37.103" viewBox="0 0 37.382 37.103">
  <g id="business_16722949" transform="translate(0 -0.18)">
    <path id="Trazado_1035379" data-name="Trazado 1035379" d="M21.028,37.282H2.336A2.339,2.339,0,0,1,0,34.946V2.518A2.335,2.335,0,0,1,2.72.213L19.842,2.808a2.328,2.328,0,0,1,1.964,2.305V36.5A.779.779,0,0,1,21.028,37.282ZM2.333,1.739a.778.778,0,0,0-.776.779V34.946a.78.78,0,0,0,.779.779H20.249V5.113a.775.775,0,0,0-.651-.768L2.475,1.75a.869.869,0,0,0-.142-.011Z" transform="translate(0 0)"/>
    <path id="Trazado_1035380" data-name="Trazado 1035380" d="M27.8,32.364H13.779A.779.779,0,0,1,13,31.585V9.779a.776.776,0,0,1,.285-.6.766.766,0,0,1,.646-.162L28.288,11.86a2.326,2.326,0,0,1,1.846,2.283V30.028A2.339,2.339,0,0,1,27.8,32.364Zm-13.24-1.558H27.8a.78.78,0,0,0,.779-.779V14.143a.774.774,0,0,0-.611-.76L14.558,10.728Z" transform="translate(7.249 4.918)"/>
    <path id="Trazado_1035381" data-name="Trazado 1035381" d="M12.567,27.9H4.779A.779.779,0,0,1,4,27.124V19.336A2.339,2.339,0,0,1,6.336,17h4.673a2.339,2.339,0,0,1,2.336,2.336v7.788A.779.779,0,0,1,12.567,27.9ZM5.558,26.346h6.23V19.336a.78.78,0,0,0-.779-.779H6.336a.78.78,0,0,0-.779.779Z" transform="translate(2.23 9.379)"/>
    <path id="Trazado_1035382" data-name="Trazado 1035382" d="M6.894,6.558H3.779A.779.779,0,1,1,3.779,5H6.894a.779.779,0,1,1,0,1.558Z" transform="translate(1.673 2.688)"/>
    <path id="Trazado_1035383" data-name="Trazado 1035383" d="M11.894,6.558H8.779A.779.779,0,0,1,8.779,5h3.115a.779.779,0,1,1,0,1.558Z" transform="translate(4.461 2.688)"/>
    <path id="Trazado_1035384" data-name="Trazado 1035384" d="M6.894,9.558H3.779A.779.779,0,1,1,3.779,8H6.894a.779.779,0,0,1,0,1.558Z" transform="translate(1.673 4.361)"/>
    <path id="Trazado_1035385" data-name="Trazado 1035385" d="M11.894,9.558H8.779A.779.779,0,0,1,8.779,8h3.115a.779.779,0,1,1,0,1.558Z" transform="translate(4.461 4.361)"/>
    <path id="Trazado_1035386" data-name="Trazado 1035386" d="M6.894,12.558H3.779a.779.779,0,1,1,0-1.558H6.894a.779.779,0,1,1,0,1.558Z" transform="translate(1.673 6.033)"/>
    <path id="Trazado_1035387" data-name="Trazado 1035387" d="M11.894,12.558H8.779a.779.779,0,0,1,0-1.558h3.115a.779.779,0,1,1,0,1.558Z" transform="translate(4.461 6.033)"/>
    <path id="Trazado_1035388" data-name="Trazado 1035388" d="M6.894,15.558H3.779a.779.779,0,0,1,0-1.558H6.894a.779.779,0,0,1,0,1.558Z" transform="translate(1.673 7.706)"/>
    <path id="Trazado_1035389" data-name="Trazado 1035389" d="M11.894,15.558H8.779a.779.779,0,0,1,0-1.558h3.115a.779.779,0,0,1,0,1.558Z" transform="translate(4.461 7.706)"/>
    <path id="Trazado_1035390" data-name="Trazado 1035390" d="M20.894,15.558H17.779a.779.779,0,0,1,0-1.558h3.115a.779.779,0,1,1,0,1.558Z" transform="translate(9.479 7.706)"/>
    <path id="Trazado_1035391" data-name="Trazado 1035391" d="M20.894,18.558H17.779a.779.779,0,0,1,0-1.558h3.115a.779.779,0,0,1,0,1.558Z" transform="translate(9.479 9.379)"/>
    <path id="Trazado_1035392" data-name="Trazado 1035392" d="M20.894,21.558H17.779a.779.779,0,1,1,0-1.558h3.115a.779.779,0,1,1,0,1.558Z" transform="translate(9.479 11.052)"/>
  </g>
</svg>
