<svg xmlns="http://www.w3.org/2000/svg" xmlns:xlink="http://www.w3.org/1999/xlink" width="579.824" height="456.14" viewBox="0 0 579.824 456.14">
  <defs>
    <clipPath id="clip-path">
      <path id="path783" d="M0-682.665H90.835v90.835H0Z"/>
    </clipPath>
    <clipPath id="clip-path-2">
      <path id="path1365" d="M0-682.665H86.726v86.726H0Z" transform="translate(0 682.665)"/>
    </clipPath>
  </defs>
  <g id="Grupo_1202184" data-name="Grupo 1202184" transform="translate(-512.676 -5207)">
    <path id="Trazado_1039089" data-name="Trazado 1039089" d="M6765,5213.247" transform="translate(-6171.5)" fill="none" stroke="#707070" stroke-width="1"/>
    <path id="Trazado_1040047" data-name="Trazado 1040047" d="M15.892,8.708H12.3V19H9.45V8.708H5.873V6.4h10.02ZM23.277,19H20.649V17.708h-.035a2.933,2.933,0,0,1-2.681,1.512,2.8,2.8,0,0,1-2.061-.743A2.661,2.661,0,0,1,15.12,16.5q0-2.619,3.1-3.023l2.443-.325q0-1.477-1.6-1.477a5.46,5.46,0,0,0-3.059.958V10.536a6.881,6.881,0,0,1,1.586-.527,8.339,8.339,0,0,1,1.833-.229q3.85,0,3.85,3.841Zm-2.61-3.656v-.606l-1.635.211q-1.354.176-1.354,1.222a1.01,1.01,0,0,0,.33.778,1.266,1.266,0,0,0,.892.3,1.644,1.644,0,0,0,1.274-.541A1.952,1.952,0,0,0,20.666,15.344Zm4.221,3.419v-2.25a5.913,5.913,0,0,0,1.367.615,4.531,4.531,0,0,0,1.288.2,2.762,2.762,0,0,0,1.165-.2.653.653,0,0,0,.426-.615.569.569,0,0,0-.193-.439,1.8,1.8,0,0,0-.5-.308,5.635,5.635,0,0,0-.664-.237q-.36-.105-.694-.237a6.653,6.653,0,0,1-.945-.435,2.731,2.731,0,0,1-.686-.541,2.125,2.125,0,0,1-.422-.712,2.841,2.841,0,0,1-.145-.958,2.466,2.466,0,0,1,.33-1.3,2.692,2.692,0,0,1,.879-.892,4.016,4.016,0,0,1,1.257-.51,6.553,6.553,0,0,1,1.472-.163,8.168,8.168,0,0,1,1.213.092,9.053,9.053,0,0,1,1.213.268v2.145a4.383,4.383,0,0,0-1.129-.461,4.764,4.764,0,0,0-1.182-.154,2.619,2.619,0,0,0-.514.048,1.693,1.693,0,0,0-.426.141.783.783,0,0,0-.29.237.546.546,0,0,0-.105.33.609.609,0,0,0,.158.422,1.374,1.374,0,0,0,.413.3,4.078,4.078,0,0,0,.567.229q.312.1.62.207a8.056,8.056,0,0,1,1,.422,3.2,3.2,0,0,1,.769.536,2.105,2.105,0,0,1,.492.721,2.884,2.884,0,0,1-.176,2.351,2.78,2.78,0,0,1-.923.923,4.185,4.185,0,0,1-1.327.519,7.357,7.357,0,0,1-1.56.163A8.042,8.042,0,0,1,24.887,18.763Zm16,.237H38.257V17.708h-.035a2.933,2.933,0,0,1-2.681,1.512,2.8,2.8,0,0,1-2.061-.743,2.661,2.661,0,0,1-.751-1.982q0-2.619,3.1-3.023l2.443-.325q0-1.477-1.6-1.477a5.46,5.46,0,0,0-3.059.958V10.536a6.881,6.881,0,0,1,1.586-.527,8.339,8.339,0,0,1,1.833-.229q3.85,0,3.85,3.841Zm-2.61-3.656v-.606l-1.635.211q-1.354.176-1.354,1.222a1.01,1.01,0,0,0,.33.778,1.266,1.266,0,0,0,.892.3,1.644,1.644,0,0,0,1.274-.541A1.952,1.952,0,0,0,38.274,15.344ZM56.858,19H54.081V17.761h-.035a3.114,3.114,0,0,1-2.786,1.459,3.412,3.412,0,0,1-2.716-1.191A4.93,4.93,0,0,1,47.515,14.7a5.366,5.366,0,0,1,1.134-3.577A3.7,3.7,0,0,1,51.62,9.78a2.527,2.527,0,0,1,2.426,1.248h.035V5.676h2.777Zm-2.725-4.377v-.677a2.13,2.13,0,0,0-.51-1.459,1.8,1.8,0,0,0-2.769.145,3.367,3.367,0,0,0-.519,1.991,2.914,2.914,0,0,0,.5,1.828,1.779,1.779,0,0,0,2.764-.035A2.821,2.821,0,0,0,54.133,14.623Zm13.15.668H61.413q.141,1.96,2.47,1.96a4.822,4.822,0,0,0,2.61-.7v2a6.858,6.858,0,0,1-3.243.668,4.565,4.565,0,0,1-3.384-1.208,4.566,4.566,0,0,1-1.2-3.371,4.816,4.816,0,0,1,1.3-3.551,4.334,4.334,0,0,1,3.2-1.31,3.933,3.933,0,0,1,3.045,1.169,4.5,4.5,0,0,1,1.077,3.173Zm-2.575-1.705q0-1.934-1.564-1.934a1.494,1.494,0,0,0-1.156.554,2.513,2.513,0,0,0-.593,1.38Zm16.017,5.089a5.492,5.492,0,0,1-2.716.545,4.593,4.593,0,0,1-3.357-1.257,4.341,4.341,0,0,1-1.283-3.243A4.782,4.782,0,0,1,74.745,11.1,5.083,5.083,0,0,1,78.423,9.78a4.72,4.72,0,0,1,2.3.422v2.355a3.166,3.166,0,0,0-1.942-.65,2.559,2.559,0,0,0-1.894.7,2.607,2.607,0,0,0-.7,1.929,2.565,2.565,0,0,0,.668,1.876,2.455,2.455,0,0,0,1.837.681,3.666,3.666,0,0,0,2.03-.65Zm7.692-6.17a2.409,2.409,0,0,0-1.169-.272,1.684,1.684,0,0,0-1.415.664,2.9,2.9,0,0,0-.51,1.806V19H82.547V10h2.777v1.67h.035a2.4,2.4,0,0,1,2.373-1.828,1.788,1.788,0,0,1,.686.105Zm9.309,2.786H91.856q.141,1.96,2.47,1.96a4.822,4.822,0,0,0,2.61-.7v2a6.858,6.858,0,0,1-3.243.668,4.565,4.565,0,0,1-3.384-1.208,4.566,4.566,0,0,1-1.2-3.371,4.816,4.816,0,0,1,1.3-3.551,4.334,4.334,0,0,1,3.2-1.31,3.933,3.933,0,0,1,3.045,1.169,4.5,4.5,0,0,1,1.077,3.173Zm-2.575-1.705q0-1.934-1.564-1.934a1.494,1.494,0,0,0-1.156.554,2.513,2.513,0,0,0-.593,1.38Zm11.05,5.089a5.492,5.492,0,0,1-2.716.545,4.593,4.593,0,0,1-3.357-1.257,4.341,4.341,0,0,1-1.283-3.243,4.782,4.782,0,0,1,1.375-3.617A5.083,5.083,0,0,1,103.9,9.78a4.72,4.72,0,0,1,2.3.422v2.355a3.166,3.166,0,0,0-1.942-.65,2.559,2.559,0,0,0-1.894.7,2.607,2.607,0,0,0-.7,1.929,2.565,2.565,0,0,0,.668,1.876,2.455,2.455,0,0,0,1.837.681,3.666,3.666,0,0,0,2.03-.65Zm3.227-10.1a1.622,1.622,0,0,1-1.151-.417,1.345,1.345,0,0,1-.448-1.024,1.3,1.3,0,0,1,.448-1.02,1.88,1.88,0,0,1,2.307,0,1.3,1.3,0,0,1,.444,1.02,1.34,1.34,0,0,1-.444,1.037A1.65,1.65,0,0,1,109.429,8.576ZM110.8,19h-2.777V10H110.8Zm16.631,0h-2.769V13.867q0-1.96-1.441-1.96a1.324,1.324,0,0,0-1.116.589,2.42,2.42,0,0,0-.431,1.468V19H118.9V13.814q0-1.907-1.415-1.907a1.356,1.356,0,0,0-1.138.563A2.475,2.475,0,0,0,115.917,14v5H113.14V10h2.777v1.406h.035a3.41,3.41,0,0,1,2.909-1.626,2.592,2.592,0,0,1,2.61,1.679A3.329,3.329,0,0,1,124.5,9.78q2.936,0,2.936,3.621Zm3.605-10.424a1.622,1.622,0,0,1-1.151-.417,1.345,1.345,0,0,1-.448-1.024,1.3,1.3,0,0,1,.448-1.02,1.88,1.88,0,0,1,2.307,0,1.3,1.3,0,0,1,.444,1.02,1.34,1.34,0,0,1-.444,1.037A1.65,1.65,0,0,1,131.036,8.576ZM132.408,19H129.63V10h2.777Zm10.426-3.709h-5.871q.141,1.96,2.47,1.96a4.822,4.822,0,0,0,2.61-.7v2a6.858,6.858,0,0,1-3.243.668,4.565,4.565,0,0,1-3.384-1.208,4.566,4.566,0,0,1-1.2-3.371,4.816,4.816,0,0,1,1.3-3.551,4.334,4.334,0,0,1,3.2-1.31,3.933,3.933,0,0,1,3.045,1.169,4.5,4.5,0,0,1,1.077,3.173Zm-2.575-1.705q0-1.934-1.564-1.934a1.494,1.494,0,0,0-1.156.554,2.513,2.513,0,0,0-.593,1.38ZM153.18,19h-2.769V14q0-2.092-1.494-2.092a1.483,1.483,0,0,0-1.187.554,2.109,2.109,0,0,0-.466,1.406V19h-2.777V10h2.777v1.424h.035a3.183,3.183,0,0,1,2.892-1.644q2.988,0,2.988,3.709Zm7.639-.105a4.105,4.105,0,0,1-1.854.325q-2.936,0-2.936-3.05V12.048H154.57V10h1.459V8.058l2.769-.791V10h2.021v2.048H158.8v3.639q0,1.406,1.116,1.406a1.882,1.882,0,0,0,.905-.255Zm5.785.325a4.838,4.838,0,0,1-3.538-1.261,4.573,4.573,0,0,1-1.288-3.423,4.573,4.573,0,0,1,1.336-3.494,5.048,5.048,0,0,1,3.612-1.261,4.78,4.78,0,0,1,3.516,1.261,4.483,4.483,0,0,1,1.274,3.335,4.759,4.759,0,0,1-1.314,3.542A4.892,4.892,0,0,1,166.6,19.22Zm.07-7.312a1.852,1.852,0,0,0-1.529.677A2.984,2.984,0,0,0,164.6,14.5q0,2.593,2.092,2.593,2,0,2-2.663Q168.687,11.907,166.674,11.907ZM187.1,19h-2.777V17.761h-.035A3.114,3.114,0,0,1,181.5,19.22a3.412,3.412,0,0,1-2.716-1.191,4.93,4.93,0,0,1-1.028-3.327,5.366,5.366,0,0,1,1.134-3.577,3.7,3.7,0,0,1,2.971-1.345,2.527,2.527,0,0,1,2.426,1.248h.035V5.676H187.1Zm-2.725-4.377v-.677a2.13,2.13,0,0,0-.51-1.459,1.8,1.8,0,0,0-2.769.145,3.367,3.367,0,0,0-.519,1.991,2.914,2.914,0,0,0,.5,1.828,1.779,1.779,0,0,0,2.764-.035A2.821,2.821,0,0,0,184.37,14.623Zm13.15.668H191.65q.141,1.96,2.47,1.96a4.822,4.822,0,0,0,2.61-.7v2a6.858,6.858,0,0,1-3.243.668,4.565,4.565,0,0,1-3.384-1.208,4.566,4.566,0,0,1-1.2-3.371,4.816,4.816,0,0,1,1.3-3.551,4.334,4.334,0,0,1,3.2-1.31,3.933,3.933,0,0,1,3.045,1.169,4.5,4.5,0,0,1,1.077,3.173Zm-2.575-1.705q0-1.934-1.564-1.934a1.494,1.494,0,0,0-1.156.554,2.513,2.513,0,0,0-.593,1.38ZM206.92,19h-2.777V5.676h2.777Zm9.828,0H214.12V17.708h-.035A2.933,2.933,0,0,1,211.4,19.22a2.8,2.8,0,0,1-2.061-.743,2.661,2.661,0,0,1-.751-1.982q0-2.619,3.1-3.023l2.443-.325q0-1.477-1.6-1.477a5.46,5.46,0,0,0-3.059.958V10.536a6.881,6.881,0,0,1,1.586-.527A8.339,8.339,0,0,1,212.9,9.78q3.85,0,3.85,3.841Zm-2.61-3.656v-.606l-1.635.211q-1.354.176-1.354,1.222a1.01,1.01,0,0,0,.33.778,1.266,1.266,0,0,0,.892.3,1.644,1.644,0,0,0,1.274-.541A1.952,1.952,0,0,0,214.137,15.344Zm11.183-6.768a1.622,1.622,0,0,1-1.151-.417,1.345,1.345,0,0,1-.448-1.024,1.3,1.3,0,0,1,.448-1.02,1.88,1.88,0,0,1,2.307,0,1.3,1.3,0,0,1,.444,1.02,1.34,1.34,0,0,1-.444,1.037A1.65,1.65,0,0,1,225.321,8.576ZM226.692,19h-2.777V10h2.777Zm11.032,0h-2.769V14q0-2.092-1.494-2.092a1.483,1.483,0,0,0-1.187.554,2.109,2.109,0,0,0-.466,1.406V19h-2.777V10h2.777v1.424h.035a3.183,3.183,0,0,1,2.892-1.644q2.988,0,2.988,3.709Zm11.006,0h-2.777V17.761h-.035a3.114,3.114,0,0,1-2.786,1.459,3.412,3.412,0,0,1-2.716-1.191,4.93,4.93,0,0,1-1.028-3.327,5.366,5.366,0,0,1,1.134-3.577,3.7,3.7,0,0,1,2.971-1.345,2.527,2.527,0,0,1,2.426,1.248h.035V5.676h2.777ZM246,14.623v-.677a2.13,2.13,0,0,0-.51-1.459,1.8,1.8,0,0,0-2.769.145,3.367,3.367,0,0,0-.519,1.991,2.914,2.914,0,0,0,.5,1.828,1.779,1.779,0,0,0,2.764-.035A2.821,2.821,0,0,0,246,14.623ZM259.621,19h-2.769V17.629h-.044a3.141,3.141,0,0,1-2.751,1.591q-3.129,0-3.129-3.788V10H253.7v5.186q0,1.907,1.512,1.907a1.5,1.5,0,0,0,1.2-.523,2.109,2.109,0,0,0,.448-1.419V10h2.769Zm1.751-.237v-2.25a5.913,5.913,0,0,0,1.367.615,4.531,4.531,0,0,0,1.288.2,2.762,2.762,0,0,0,1.165-.2.653.653,0,0,0,.426-.615.569.569,0,0,0-.193-.439,1.8,1.8,0,0,0-.5-.308,5.635,5.635,0,0,0-.664-.237q-.36-.105-.694-.237a6.653,6.653,0,0,1-.945-.435,2.731,2.731,0,0,1-.686-.541,2.125,2.125,0,0,1-.422-.712,2.841,2.841,0,0,1-.145-.958,2.466,2.466,0,0,1,.33-1.3,2.692,2.692,0,0,1,.879-.892,4.016,4.016,0,0,1,1.257-.51,6.553,6.553,0,0,1,1.472-.163,8.168,8.168,0,0,1,1.213.092,9.053,9.053,0,0,1,1.213.268v2.145a4.383,4.383,0,0,0-1.129-.461,4.764,4.764,0,0,0-1.182-.154,2.619,2.619,0,0,0-.514.048,1.693,1.693,0,0,0-.426.141.783.783,0,0,0-.29.237.546.546,0,0,0-.105.33.609.609,0,0,0,.158.422,1.374,1.374,0,0,0,.413.3,4.078,4.078,0,0,0,.567.229q.312.1.62.207a8.056,8.056,0,0,1,1,.422,3.2,3.2,0,0,1,.769.536,2.105,2.105,0,0,1,.492.721,2.884,2.884,0,0,1-.176,2.351,2.78,2.78,0,0,1-.923.923,4.185,4.185,0,0,1-1.327.519,7.357,7.357,0,0,1-1.56.163A8.042,8.042,0,0,1,261.372,18.763Zm13.95.132a4.105,4.105,0,0,1-1.854.325q-2.936,0-2.936-3.05V12.048h-1.459V10h1.459V8.058l2.769-.791V10h2.021v2.048H273.3v3.639q0,1.406,1.116,1.406a1.882,1.882,0,0,0,.905-.255Zm7.437-6.39a2.409,2.409,0,0,0-1.169-.272,1.684,1.684,0,0,0-1.415.664,2.9,2.9,0,0,0-.51,1.806V19h-2.777V10h2.777v1.67h.035a2.4,2.4,0,0,1,2.373-1.828,1.788,1.788,0,0,1,.686.105Zm2.77-3.929a1.622,1.622,0,0,1-1.151-.417,1.345,1.345,0,0,1-.448-1.024,1.3,1.3,0,0,1,.448-1.02,1.88,1.88,0,0,1,2.307,0,1.3,1.3,0,0,1,.444,1.02,1.34,1.34,0,0,1-.444,1.037A1.65,1.65,0,0,1,285.53,8.576ZM286.9,19h-2.777V10H286.9Zm9.828,0H294.1V17.708h-.035a2.933,2.933,0,0,1-2.681,1.512,2.8,2.8,0,0,1-2.061-.743,2.661,2.661,0,0,1-.751-1.982q0-2.619,3.1-3.023l2.443-.325q0-1.477-1.6-1.477a5.46,5.46,0,0,0-3.059.958V10.536a6.881,6.881,0,0,1,1.586-.527,8.339,8.339,0,0,1,1.833-.229q3.85,0,3.85,3.841Zm-2.61-3.656v-.606l-1.635.211q-1.354.176-1.354,1.222a1.01,1.01,0,0,0,.33.778,1.266,1.266,0,0,0,.892.3,1.644,1.644,0,0,0,1.274-.541A1.952,1.952,0,0,0,294.118,15.344ZM312.465,10l-3.656,9.721q-1.318,3.507-3.973,3.507A5.09,5.09,0,0,1,303.175,23V20.784a2.336,2.336,0,0,0,1.2.325,1.5,1.5,0,0,0,1.494-1.011l.475-1.116L302.691,10h3.076l1.679,5.476a7.115,7.115,0,0,1,.246,1.2h.035a8.4,8.4,0,0,1,.29-1.187l1.7-5.493Zm8.141-3.6-6.144,14.7h-2.479L318.1,6.4Zm5.249,12.823a4.838,4.838,0,0,1-3.538-1.261,4.573,4.573,0,0,1-1.288-3.423,4.573,4.573,0,0,1,1.336-3.494,5.048,5.048,0,0,1,3.612-1.261,4.78,4.78,0,0,1,3.516,1.261,4.483,4.483,0,0,1,1.274,3.335,4.759,4.759,0,0,1-1.314,3.542A4.892,4.892,0,0,1,325.854,19.22Zm.07-7.312a1.852,1.852,0,0,0-1.529.677,2.984,2.984,0,0,0-.545,1.916q0,2.593,2.092,2.593,2,0,2-2.663Q327.937,11.907,325.924,11.907ZM131.591,40h-2.777V38.761h-.035a3.114,3.114,0,0,1-2.786,1.459,3.412,3.412,0,0,1-2.716-1.191,4.93,4.93,0,0,1-1.028-3.327,5.366,5.366,0,0,1,1.134-3.577,3.7,3.7,0,0,1,2.971-1.345,2.527,2.527,0,0,1,2.426,1.248h.035V26.676h2.777Zm-2.725-4.377v-.677a2.13,2.13,0,0,0-.51-1.459,1.8,1.8,0,0,0-2.769.145,3.367,3.367,0,0,0-.519,1.991,2.914,2.914,0,0,0,.5,1.828,1.779,1.779,0,0,0,2.764-.035A2.821,2.821,0,0,0,128.866,35.623Zm13.15.668h-5.871q.141,1.96,2.47,1.96a4.822,4.822,0,0,0,2.61-.7v2a6.858,6.858,0,0,1-3.243.668,4.189,4.189,0,0,1-4.588-4.579,4.816,4.816,0,0,1,1.3-3.551,4.334,4.334,0,0,1,3.2-1.31,3.933,3.933,0,0,1,3.045,1.169,4.5,4.5,0,0,1,1.077,3.173Zm-2.575-1.705q0-1.934-1.564-1.934a1.494,1.494,0,0,0-1.156.554,2.513,2.513,0,0,0-.593,1.38ZM146.448,40h-2.777V26.676h2.777Zm21.6,0h-2.769V34.867q0-1.96-1.441-1.96a1.324,1.324,0,0,0-1.116.589,2.42,2.42,0,0,0-.431,1.468V40h-2.777V34.814q0-1.907-1.415-1.907a1.356,1.356,0,0,0-1.138.563A2.475,2.475,0,0,0,156.533,35v5h-2.777V31h2.777v1.406h.035a3.41,3.41,0,0,1,2.909-1.626,2.592,2.592,0,0,1,2.61,1.679,3.329,3.329,0,0,1,3.023-1.679q2.936,0,2.936,3.621Zm10.285-3.709H172.46q.141,1.96,2.47,1.96a4.822,4.822,0,0,0,2.61-.7v2a6.858,6.858,0,0,1-3.243.668,4.189,4.189,0,0,1-4.588-4.579,4.816,4.816,0,0,1,1.3-3.551,4.334,4.334,0,0,1,3.2-1.31,3.933,3.933,0,0,1,3.045,1.169,4.5,4.5,0,0,1,1.077,3.173Zm-2.575-1.705q0-1.934-1.564-1.934a1.494,1.494,0,0,0-1.156.554,2.513,2.513,0,0,0-.593,1.38Zm10.1-1.081a2.409,2.409,0,0,0-1.169-.272,1.684,1.684,0,0,0-1.415.664,2.9,2.9,0,0,0-.51,1.806V40h-2.777V31h2.777v1.67h.035a2.4,2.4,0,0,1,2.373-1.828,1.788,1.788,0,0,1,.686.105Zm8.044,6.17a5.492,5.492,0,0,1-2.716.545,4.593,4.593,0,0,1-3.357-1.257,4.341,4.341,0,0,1-1.283-3.243A4.782,4.782,0,0,1,187.92,32.1,5.083,5.083,0,0,1,191.6,30.78a4.72,4.72,0,0,1,2.3.422v2.355a3.166,3.166,0,0,0-1.942-.65,2.559,2.559,0,0,0-1.894.7,2.607,2.607,0,0,0-.7,1.929,2.565,2.565,0,0,0,.668,1.876,2.455,2.455,0,0,0,1.837.681,3.666,3.666,0,0,0,2.03-.65ZM203.21,40h-2.628V38.708h-.035a2.933,2.933,0,0,1-2.681,1.512,2.8,2.8,0,0,1-2.061-.743,2.661,2.661,0,0,1-.751-1.982q0-2.619,3.1-3.023l2.443-.325q0-1.477-1.6-1.477a5.46,5.46,0,0,0-3.059.958V31.536a6.881,6.881,0,0,1,1.586-.527,8.339,8.339,0,0,1,1.833-.229q3.85,0,3.85,3.841Zm-2.61-3.656v-.606l-1.635.211q-1.354.176-1.354,1.222a1.01,1.01,0,0,0,.33.778,1.266,1.266,0,0,0,.892.3,1.644,1.644,0,0,0,1.274-.541A1.952,1.952,0,0,0,200.6,36.344ZM214.216,40h-2.777V38.761H211.4a3.114,3.114,0,0,1-2.786,1.459,3.412,3.412,0,0,1-2.716-1.191,4.93,4.93,0,0,1-1.028-3.327,5.366,5.366,0,0,1,1.134-3.577,3.7,3.7,0,0,1,2.971-1.345,2.527,2.527,0,0,1,2.426,1.248h.035V26.676h2.777Zm-2.725-4.377v-.677a2.13,2.13,0,0,0-.51-1.459,1.8,1.8,0,0,0-2.769.145,3.367,3.367,0,0,0-.519,1.991,2.914,2.914,0,0,0,.5,1.828,1.779,1.779,0,0,0,2.764-.035A2.821,2.821,0,0,0,211.491,35.623Z" transform="translate(507 5593.751) rotate(-90)" fill="#212429"/>
    <path id="Trazado_1040048" data-name="Trazado 1040048" d="M19.2,14.658V19H16.36V6.4h4.447q4.764,0,4.764,4.017A3.854,3.854,0,0,1,24.2,13.485a5.414,5.414,0,0,1-3.652,1.173Zm0-6.082V12.5h1.116q2.268,0,2.268-1.986,0-1.942-2.268-1.942ZM34.186,19H31.558V17.708h-.035a2.933,2.933,0,0,1-2.681,1.512,2.8,2.8,0,0,1-2.061-.743,2.661,2.661,0,0,1-.751-1.982q0-2.619,3.1-3.023l2.443-.325q0-1.477-1.6-1.477a5.46,5.46,0,0,0-3.059.958V10.536a6.881,6.881,0,0,1,1.586-.527,8.339,8.339,0,0,1,1.833-.229q3.85,0,3.85,3.841Zm-2.61-3.656v-.606l-1.635.211q-1.354.176-1.354,1.222a1.01,1.01,0,0,0,.33.778,1.266,1.266,0,0,0,.892.3,1.644,1.644,0,0,0,1.274-.541A1.952,1.952,0,0,0,31.575,15.344ZM42.256,12.5a2.409,2.409,0,0,0-1.169-.272,1.684,1.684,0,0,0-1.415.664,2.9,2.9,0,0,0-.51,1.806V19H36.385V10h2.777v1.67H39.2A2.4,2.4,0,0,1,41.57,9.842a1.788,1.788,0,0,1,.686.105Zm7.253,6.39a4.105,4.105,0,0,1-1.854.325q-2.936,0-2.936-3.05V12.048H43.26V10h1.459V8.058l2.769-.791V10h2.021v2.048H47.487v3.639q0,1.406,1.116,1.406a1.882,1.882,0,0,0,.905-.255ZM52.481,8.576a1.622,1.622,0,0,1-1.151-.417,1.345,1.345,0,0,1-.448-1.024,1.3,1.3,0,0,1,.448-1.02,1.88,1.88,0,0,1,2.307,0,1.3,1.3,0,0,1,.444,1.02,1.34,1.34,0,0,1-.444,1.037A1.65,1.65,0,0,1,52.481,8.576ZM53.852,19H51.075V10h2.777Zm9.16-.325a5.492,5.492,0,0,1-2.716.545,4.593,4.593,0,0,1-3.357-1.257,4.341,4.341,0,0,1-1.283-3.243A4.782,4.782,0,0,1,57.031,11.1,5.083,5.083,0,0,1,60.71,9.78a4.72,4.72,0,0,1,2.3.422v2.355a3.166,3.166,0,0,0-1.942-.65,2.559,2.559,0,0,0-1.894.7,2.607,2.607,0,0,0-.7,1.929,2.565,2.565,0,0,0,.668,1.876,2.455,2.455,0,0,0,1.837.681,3.666,3.666,0,0,0,2.03-.65Zm3.227-10.1a1.622,1.622,0,0,1-1.151-.417,1.345,1.345,0,0,1-.448-1.024,1.3,1.3,0,0,1,.448-1.02,1.88,1.88,0,0,1,2.307,0,1.3,1.3,0,0,1,.444,1.02A1.34,1.34,0,0,1,67.4,8.172,1.65,1.65,0,0,1,66.24,8.576ZM67.611,19H64.833V10h2.777Zm5.152-1.046h-.035V23.14H69.95V10h2.777v1.354h.035a3.534,3.534,0,0,1,5.594-.374,5.108,5.108,0,0,1,.954,3.265A5.537,5.537,0,0,1,78.2,17.857a3.625,3.625,0,0,1-2.958,1.362A2.8,2.8,0,0,1,72.763,17.954Zm-.079-3.691v.721a2.291,2.291,0,0,0,.492,1.521,1.6,1.6,0,0,0,1.292.589,1.7,1.7,0,0,0,1.472-.734,3.543,3.543,0,0,0,.523-2.079q0-2.373-1.846-2.373a1.733,1.733,0,0,0-1.393.646A2.576,2.576,0,0,0,72.684,14.263ZM88.427,19H85.8V17.708h-.035a2.933,2.933,0,0,1-2.681,1.512,2.8,2.8,0,0,1-2.061-.743,2.661,2.661,0,0,1-.751-1.982q0-2.619,3.1-3.023l2.443-.325q0-1.477-1.6-1.477a5.46,5.46,0,0,0-3.059.958V10.536a6.881,6.881,0,0,1,1.586-.527,8.339,8.339,0,0,1,1.833-.229q3.85,0,3.85,3.841Zm-2.61-3.656v-.606l-1.635.211q-1.354.176-1.354,1.222a1.01,1.01,0,0,0,.33.778,1.266,1.266,0,0,0,.892.3,1.644,1.644,0,0,0,1.274-.541A1.952,1.952,0,0,0,85.816,15.344Zm11.63,3.331a5.492,5.492,0,0,1-2.716.545,4.593,4.593,0,0,1-3.357-1.257A4.341,4.341,0,0,1,90.09,14.72,4.782,4.782,0,0,1,91.465,11.1,5.083,5.083,0,0,1,95.143,9.78a4.72,4.72,0,0,1,2.3.422v2.355a3.166,3.166,0,0,0-1.942-.65,2.559,2.559,0,0,0-1.894.7,2.607,2.607,0,0,0-.7,1.929,2.565,2.565,0,0,0,.668,1.876,2.455,2.455,0,0,0,1.837.681,3.666,3.666,0,0,0,2.03-.65Zm3.227-10.1a1.622,1.622,0,0,1-1.151-.417,1.345,1.345,0,0,1-.448-1.024,1.3,1.3,0,0,1,.448-1.02,1.88,1.88,0,0,1,2.307,0,1.3,1.3,0,0,1,.444,1.02,1.34,1.34,0,0,1-.444,1.037A1.65,1.65,0,0,1,100.674,8.576ZM102.045,19H99.267V10h2.777Zm6.629.22a4.838,4.838,0,0,1-3.538-1.261,4.573,4.573,0,0,1-1.288-3.423,4.573,4.573,0,0,1,1.336-3.494A5.048,5.048,0,0,1,108.8,9.78a4.78,4.78,0,0,1,3.516,1.261,4.483,4.483,0,0,1,1.274,3.335,4.759,4.759,0,0,1-1.314,3.542A4.892,4.892,0,0,1,108.673,19.22Zm.07-7.312a1.852,1.852,0,0,0-1.529.677,2.984,2.984,0,0,0-.545,1.916q0,2.593,2.092,2.593,2,0,2-2.663Q110.756,11.907,108.744,11.907Zm2.979-6.17-2.751,2.839h-2l2.285-2.839ZM124.074,19h-2.769V14q0-2.092-1.494-2.092a1.483,1.483,0,0,0-1.187.554,2.109,2.109,0,0,0-.466,1.406V19h-2.777V10h2.777v1.424h.035a3.183,3.183,0,0,1,2.892-1.644q2.988,0,2.988,3.709Zm13.038-6.5a2.409,2.409,0,0,0-1.169-.272,1.684,1.684,0,0,0-1.415.664,2.9,2.9,0,0,0-.51,1.806V19H131.24V10h2.777v1.67h.035a2.4,2.4,0,0,1,2.373-1.828,1.788,1.788,0,0,1,.686.105Zm9.309,2.786H140.55q.141,1.96,2.47,1.96a4.822,4.822,0,0,0,2.61-.7v2a6.858,6.858,0,0,1-3.243.668A4.565,4.565,0,0,1,139,18.011a4.566,4.566,0,0,1-1.2-3.371,4.816,4.816,0,0,1,1.3-3.551,4.334,4.334,0,0,1,3.2-1.31,3.933,3.933,0,0,1,3.045,1.169,4.5,4.5,0,0,1,1.077,3.173Zm-2.575-1.705q0-1.934-1.564-1.934a1.494,1.494,0,0,0-1.156.554,2.513,2.513,0,0,0-.593,1.38ZM150.852,19h-2.777V5.676h2.777Zm9.828,0h-2.628V17.708h-.035a2.933,2.933,0,0,1-2.681,1.512,2.8,2.8,0,0,1-2.061-.743,2.661,2.661,0,0,1-.751-1.982q0-2.619,3.1-3.023l2.443-.325q0-1.477-1.6-1.477a5.46,5.46,0,0,0-3.059.958V10.536A6.881,6.881,0,0,1,155,10.009a8.339,8.339,0,0,1,1.833-.229q3.85,0,3.85,3.841Zm-2.61-3.656v-.606l-1.635.211q-1.354.176-1.354,1.222a1.01,1.01,0,0,0,.33.778,1.266,1.266,0,0,0,.892.3,1.644,1.644,0,0,0,1.274-.541A1.952,1.952,0,0,0,158.07,15.344Zm10.25,3.551a4.105,4.105,0,0,1-1.854.325q-2.936,0-2.936-3.05V12.048h-1.459V10h1.459V8.058l2.769-.791V10h2.021v2.048H166.3v3.639q0,1.406,1.116,1.406a1.882,1.882,0,0,0,.905-.255Zm2.973-10.318a1.622,1.622,0,0,1-1.151-.417,1.345,1.345,0,0,1-.448-1.024,1.3,1.3,0,0,1,.448-1.02,1.88,1.88,0,0,1,2.307,0,1.3,1.3,0,0,1,.444,1.02,1.34,1.34,0,0,1-.444,1.037A1.65,1.65,0,0,1,171.292,8.576ZM172.663,19h-2.777V10h2.777Zm10.909-9-3.349,9H177.06l-3.19-9h2.971l1.564,5.546a8.1,8.1,0,0,1,.308,1.6h.035a9.078,9.078,0,0,1,.325-1.547l1.6-5.6Zm8.4,9h-2.628V17.708h-.035a2.933,2.933,0,0,1-2.681,1.512,2.8,2.8,0,0,1-2.061-.743,2.661,2.661,0,0,1-.751-1.982q0-2.619,3.1-3.023l2.443-.325q0-1.477-1.6-1.477a5.46,5.46,0,0,0-3.059.958V10.536a6.881,6.881,0,0,1,1.586-.527,8.339,8.339,0,0,1,1.833-.229q3.85,0,3.85,3.841Zm-2.61-3.656v-.606l-1.635.211q-1.354.176-1.354,1.222a1.01,1.01,0,0,0,.33.778,1.266,1.266,0,0,0,.892.3,1.644,1.644,0,0,0,1.274-.541A1.952,1.952,0,0,0,189.366,15.344Zm17.863-.053h-5.871q.141,1.96,2.47,1.96a4.822,4.822,0,0,0,2.61-.7v2a6.858,6.858,0,0,1-3.243.668,4.565,4.565,0,0,1-3.384-1.208,4.566,4.566,0,0,1-1.2-3.371,4.816,4.816,0,0,1,1.3-3.551,4.334,4.334,0,0,1,3.2-1.31,3.933,3.933,0,0,1,3.045,1.169,4.5,4.5,0,0,1,1.077,3.173Zm-2.575-1.705q0-1.934-1.564-1.934a1.494,1.494,0,0,0-1.156.554,2.513,2.513,0,0,0-.593,1.38ZM217.576,19h-2.769V14q0-2.092-1.494-2.092a1.483,1.483,0,0,0-1.187.554,2.109,2.109,0,0,0-.466,1.406V19h-2.777V10h2.777v1.424h.035a3.183,3.183,0,0,1,2.892-1.644q2.988,0,2.988,3.709Zm15.253-3.709h-5.871q.141,1.96,2.47,1.96a4.822,4.822,0,0,0,2.61-.7v2a6.858,6.858,0,0,1-3.243.668,4.565,4.565,0,0,1-3.384-1.208,4.566,4.566,0,0,1-1.2-3.371,4.816,4.816,0,0,1,1.3-3.551,4.334,4.334,0,0,1,3.2-1.31,3.933,3.933,0,0,1,3.045,1.169,4.5,4.5,0,0,1,1.077,3.173Zm-2.575-1.705q0-1.934-1.564-1.934a1.494,1.494,0,0,0-1.156.554,2.513,2.513,0,0,0-.593,1.38ZM237.26,19h-2.777V5.676h2.777Zm21.6,0H256.09V13.867q0-1.96-1.441-1.96a1.324,1.324,0,0,0-1.116.589,2.42,2.42,0,0,0-.431,1.468V19h-2.777V13.814q0-1.907-1.415-1.907a1.356,1.356,0,0,0-1.138.563A2.475,2.475,0,0,0,247.345,14v5h-2.777V10h2.777v1.406h.035a3.41,3.41,0,0,1,2.909-1.626,2.592,2.592,0,0,1,2.61,1.679,3.329,3.329,0,0,1,3.023-1.679q2.936,0,2.936,3.621Zm10.285-3.709h-5.871q.141,1.96,2.47,1.96a4.822,4.822,0,0,0,2.61-.7v2a6.858,6.858,0,0,1-3.243.668,4.565,4.565,0,0,1-3.384-1.208,4.566,4.566,0,0,1-1.2-3.371,4.816,4.816,0,0,1,1.3-3.551,4.334,4.334,0,0,1,3.2-1.31,3.933,3.933,0,0,1,3.045,1.169,4.5,4.5,0,0,1,1.077,3.173Zm-2.575-1.705q0-1.934-1.564-1.934a1.494,1.494,0,0,0-1.156.554,2.513,2.513,0,0,0-.593,1.38Zm10.1-1.081a2.409,2.409,0,0,0-1.169-.272,1.684,1.684,0,0,0-1.415.664,2.9,2.9,0,0,0-.51,1.806V19H270.8V10h2.777v1.67h.035a2.4,2.4,0,0,1,2.373-1.828,1.788,1.788,0,0,1,.686.105Zm8.044,6.17A5.492,5.492,0,0,1,282,19.22a4.593,4.593,0,0,1-3.357-1.257,4.341,4.341,0,0,1-1.283-3.243,4.782,4.782,0,0,1,1.375-3.617,5.083,5.083,0,0,1,3.678-1.323,4.72,4.72,0,0,1,2.3.422v2.355a3.166,3.166,0,0,0-1.942-.65,2.559,2.559,0,0,0-1.894.7,2.607,2.607,0,0,0-.7,1.929,2.565,2.565,0,0,0,.668,1.876,2.455,2.455,0,0,0,1.837.681,3.666,3.666,0,0,0,2.03-.65Zm9.309.325h-2.628V17.708h-.035a2.933,2.933,0,0,1-2.681,1.512,2.8,2.8,0,0,1-2.061-.743,2.661,2.661,0,0,1-.751-1.982q0-2.619,3.1-3.023l2.443-.325q0-1.477-1.6-1.477a5.46,5.46,0,0,0-3.059.958V10.536a6.881,6.881,0,0,1,1.586-.527,8.339,8.339,0,0,1,1.833-.229q3.85,0,3.85,3.841Zm-2.61-3.656v-.606l-1.635.211q-1.354.176-1.354,1.222a1.01,1.01,0,0,0,.33.778,1.266,1.266,0,0,0,.892.3,1.644,1.644,0,0,0,1.274-.541A1.952,1.952,0,0,0,291.411,15.344ZM305.027,19H302.25V17.761h-.035a3.114,3.114,0,0,1-2.786,1.459,3.412,3.412,0,0,1-2.716-1.191,4.93,4.93,0,0,1-1.028-3.327,5.366,5.366,0,0,1,1.134-3.577,3.7,3.7,0,0,1,2.971-1.345,2.527,2.527,0,0,1,2.426,1.248h.035V5.676h2.777ZM302.3,14.623v-.677a2.13,2.13,0,0,0-.51-1.459,1.8,1.8,0,0,0-2.769.145,3.367,3.367,0,0,0-.519,1.991,2.914,2.914,0,0,0,.5,1.828,1.779,1.779,0,0,0,2.764-.035A2.821,2.821,0,0,0,302.3,14.623Zm9.353,4.6a4.838,4.838,0,0,1-3.538-1.261,4.573,4.573,0,0,1-1.288-3.423,4.573,4.573,0,0,1,1.336-3.494,5.048,5.048,0,0,1,3.612-1.261,4.78,4.78,0,0,1,3.516,1.261,4.483,4.483,0,0,1,1.274,3.335,4.759,4.759,0,0,1-1.314,3.542A4.892,4.892,0,0,1,311.656,19.22Zm.07-7.312a1.852,1.852,0,0,0-1.529.677,2.984,2.984,0,0,0-.545,1.916q0,2.593,2.092,2.593,2,0,2-2.663Q313.739,11.907,311.726,11.907Zm7.886,7.313a1.62,1.62,0,0,1-1.143-.422,1.356,1.356,0,0,1-.457-1.037,1.306,1.306,0,0,1,.47-1.037,1.736,1.736,0,0,1,1.173-.4,1.671,1.671,0,0,1,1.165.409,1.415,1.415,0,0,1-.009,2.083A1.742,1.742,0,0,1,319.612,19.22Z" transform="translate(648.794 5640)" fill="#212429"/>
    <path id="Trazado_1040049" data-name="Trazado 1040049" d="M-3.741,0H-5.194L-6.381-3.141h-4.75L-12.248,0h-1.461l4.3-11.2h1.359Zm-3.07-4.32L-8.569-9.094a4.571,4.571,0,0,1-.172-.75h-.031a4.185,4.185,0,0,1-.18.75L-10.694-4.32ZM-.981,0H-2.263V-11.844H-.981ZM5.325-.078a2.47,2.47,0,0,1-1.2.25q-2.1,0-2.1-2.344V-6.906H.653V-8H2.028V-9.953l1.281-.414V-8H5.325v1.094H3.309V-2.4A1.869,1.869,0,0,0,3.583-1.25a1.091,1.091,0,0,0,.906.344,1.347,1.347,0,0,0,.836-.266ZM12.764,0H11.483V-1.25h-.031A2.682,2.682,0,0,1,8.991.188,2.63,2.63,0,0,1,7.12-.445a2.192,2.192,0,0,1-.676-1.68q0-2.242,2.641-2.609l2.4-.336q0-2.039-1.648-2.039a3.938,3.938,0,0,0-2.609.984V-7.437a4.958,4.958,0,0,1,2.719-.75q2.82,0,2.82,2.984ZM11.483-4.047l-1.93.266a3.133,3.133,0,0,0-1.344.441,1.273,1.273,0,0,0-.453,1.121,1.221,1.221,0,0,0,.418.957,1.615,1.615,0,0,0,1.113.371,2.056,2.056,0,0,0,1.574-.668,2.387,2.387,0,0,0,.621-1.691Z" transform="translate(584.5 5345.251) rotate(-90)" fill="#212429"/>
    <path id="Trazado_1040050" data-name="Trazado 1040050" d="M-13.2,0V-11.2h3.188a3.484,3.484,0,0,1,2.3.711,2.3,2.3,0,0,1,.852,1.852A2.724,2.724,0,0,1-7.37-6.984a2.78,2.78,0,0,1-1.422,1v.031A2.85,2.85,0,0,1-6.979-5.1,2.631,2.631,0,0,1-6.3-3.219,2.929,2.929,0,0,1-7.331-.891,3.838,3.838,0,0,1-9.932,0Zm1.313-10.016V-6.4h1.344a2.552,2.552,0,0,0,1.7-.52,1.809,1.809,0,0,0,.617-1.465q0-1.633-2.148-1.633Zm0,4.8v4.031H-10.1a2.669,2.669,0,0,0,1.793-.547,1.873,1.873,0,0,0,.637-1.5q0-1.984-2.7-1.984ZM1.53,0H.249V-1.25H.218A2.682,2.682,0,0,1-2.243.188,2.63,2.63,0,0,1-4.114-.445a2.192,2.192,0,0,1-.676-1.68q0-2.242,2.641-2.609l2.4-.336q0-2.039-1.648-2.039a3.938,3.938,0,0,0-2.609.984V-7.437a4.958,4.958,0,0,1,2.719-.75q2.82,0,2.82,2.984ZM.249-4.047l-1.93.266a3.133,3.133,0,0,0-1.344.441,1.273,1.273,0,0,0-.453,1.121,1.221,1.221,0,0,0,.418.957,1.615,1.615,0,0,0,1.113.371A2.056,2.056,0,0,0-.372-1.559,2.387,2.387,0,0,0,.249-3.25ZM5.227-.336A5.014,5.014,0,0,1,4.434,2.7a2.658,2.658,0,0,1-2.27,1.066A2.409,2.409,0,0,1,1.1,3.516V2.32A2.12,2.12,0,0,0,2.2,2.672q1.75,0,1.75-2.8V-8H5.227Zm-.625-9.7a.812.812,0,0,1-.586-.234.791.791,0,0,1-.242-.594.8.8,0,0,1,.242-.6A.8.8,0,0,1,4.6-11.7a.827.827,0,0,1,.6.238.8.8,0,0,1,.246.6.792.792,0,0,1-.246.586A.82.82,0,0,1,4.6-10.031ZM13.549,0H12.268V-1.25h-.031A2.682,2.682,0,0,1,9.776.188,2.63,2.63,0,0,1,7.9-.445a2.192,2.192,0,0,1-.676-1.68q0-2.242,2.641-2.609l2.4-.336q0-2.039-1.648-2.039a3.938,3.938,0,0,0-2.609.984V-7.437a4.958,4.958,0,0,1,2.719-.75q2.82,0,2.82,2.984ZM12.268-4.047l-1.93.266a3.133,3.133,0,0,0-1.344.441,1.273,1.273,0,0,0-.453,1.121,1.221,1.221,0,0,0,.418.957,1.615,1.615,0,0,0,1.113.371,2.056,2.056,0,0,0,1.574-.668,2.387,2.387,0,0,0,.621-1.691Z" transform="translate(584.5 5508.251) rotate(-90)" fill="#212429"/>
    <path id="Trazado_1040051" data-name="Trazado 1040051" d="M-15.141-10.016h-4.375v3.875h4.047v1.18h-4.047V0h-1.312V-11.2h5.688ZM-6.717,0H-8V-1.266H-8.03A2.631,2.631,0,0,1-10.5.188q-2.859,0-2.859-3.406V-8h1.273v4.578q0,2.531,1.938,2.531A1.96,1.96,0,0,0-8.6-1.582,2.645,2.645,0,0,0-8-3.391V-8h1.281ZM2.3-3.68H-3.348A2.992,2.992,0,0,0-2.63-1.617,2.478,2.478,0,0,0-.739-.891a3.931,3.931,0,0,0,2.484-.891v1.2A4.643,4.643,0,0,1-1.044.188,3.381,3.381,0,0,1-3.708-.9a4.461,4.461,0,0,1-.969-3.066A4.375,4.375,0,0,1-3.618-7.012,3.394,3.394,0,0,1-.989-8.187a3.008,3.008,0,0,1,2.43,1.016A4.234,4.234,0,0,1,2.3-4.352ZM.987-4.766A2.607,2.607,0,0,0,.452-6.492a1.823,1.823,0,0,0-1.465-.617,2.07,2.07,0,0,0-1.539.648,2.943,2.943,0,0,0-.781,1.7ZM8.411-6.7a1.567,1.567,0,0,0-.969-.258,1.635,1.635,0,0,0-1.371.773A3.576,3.576,0,0,0,5.52-4.078V0H4.239V-8H5.52v1.648h.031a2.793,2.793,0,0,1,.836-1.316,1.906,1.906,0,0,1,1.258-.473,2.092,2.092,0,0,1,.766.109Zm5.1,6.625a2.47,2.47,0,0,1-1.2.25q-2.1,0-2.1-2.344V-6.906H8.842V-8h1.375V-9.953l1.281-.414V-8h2.016v1.094H11.5V-2.4a1.869,1.869,0,0,0,.273,1.148,1.091,1.091,0,0,0,.906.344,1.347,1.347,0,0,0,.836-.266Zm8.142-3.6H16.008a2.992,2.992,0,0,0,.719,2.063,2.478,2.478,0,0,0,1.891.727A3.931,3.931,0,0,0,21.1-1.781v1.2a4.643,4.643,0,0,1-2.789.766A3.381,3.381,0,0,1,15.649-.9a4.461,4.461,0,0,1-.969-3.066,4.375,4.375,0,0,1,1.059-3.043,3.394,3.394,0,0,1,2.629-1.176A3.008,3.008,0,0,1,20.8-7.172a4.234,4.234,0,0,1,.859,2.82ZM20.344-4.766a2.607,2.607,0,0,0-.535-1.727,1.823,1.823,0,0,0-1.465-.617,2.07,2.07,0,0,0-1.539.648,2.943,2.943,0,0,0-.781,1.7Z" transform="translate(700.5 5620.369)" fill="#212429"/>
    <path id="Trazado_1040052" data-name="Trazado 1040052" d="M-16.906,0V-11.2h3.094q5.922,0,5.922,5.461A5.5,5.5,0,0,1-9.534-1.574,6.1,6.1,0,0,1-13.937,0Zm1.313-10.016v8.828h1.672a4.745,4.745,0,0,0,3.43-1.18A4.422,4.422,0,0,0-9.265-5.711q0-4.3-4.578-4.3ZM.573-3.68H-5.076a2.992,2.992,0,0,0,.719,2.063,2.478,2.478,0,0,0,1.891.727A3.931,3.931,0,0,0,.018-1.781v1.2A4.643,4.643,0,0,1-2.771.188,3.381,3.381,0,0,1-5.435-.9,4.461,4.461,0,0,1-6.4-3.969,4.375,4.375,0,0,1-5.345-7.012,3.394,3.394,0,0,1-2.716-8.187,3.008,3.008,0,0,1-.287-7.172a4.234,4.234,0,0,1,.859,2.82ZM-.74-4.766a2.607,2.607,0,0,0-.535-1.727A1.823,1.823,0,0,0-2.74-7.109a2.07,2.07,0,0,0-1.539.648,2.943,2.943,0,0,0-.781,1.7Zm-.2-7.312L-2.99-9.516h-.992l1.742-2.562ZM3.824-1.156H3.793V0H2.512V-11.844H3.793v5.25h.031A3.03,3.03,0,0,1,6.59-8.187,2.932,2.932,0,0,1,9-7.113a4.436,4.436,0,0,1,.871,2.879A4.959,4.959,0,0,1,8.895-1.02,3.251,3.251,0,0,1,6.223.188,2.631,2.631,0,0,1,3.824-1.156ZM3.793-4.383v1.117a2.379,2.379,0,0,0,.645,1.684,2.14,2.14,0,0,0,1.637.691A2.145,2.145,0,0,0,7.9-1.781a4.086,4.086,0,0,0,.66-2.477,3.225,3.225,0,0,0-.617-2.094A2.043,2.043,0,0,0,6.27-7.109a2.27,2.27,0,0,0-1.8.777A2.854,2.854,0,0,0,3.793-4.383Zm8.783-5.648a.812.812,0,0,1-.586-.234.791.791,0,0,1-.242-.594.8.8,0,0,1,.242-.6.8.8,0,0,1,.586-.238.827.827,0,0,1,.6.238.8.8,0,0,1,.246.6.792.792,0,0,1-.246.586A.82.82,0,0,1,12.576-10.031ZM13.2,0H11.92V-8H13.2Zm3.877,0H15.8V-11.844h1.281Z" transform="translate(931.5 5620.369)" fill="#212429"/>
    <path id="Trazado_1039095" data-name="Trazado 1039095" d="M6990.767,5250.134v42.238" transform="translate(6333.872 -1390.398) rotate(90)" fill="none" stroke="#496406" stroke-width="1"/>
    <path id="Trazado_1039094" data-name="Trazado 1039094" d="M6766,5214.824v385.545h446.589V5244.556H6766" transform="translate(-6171.5)" fill="#f2f7e5" stroke="#496406" stroke-width="1"/>
    <path id="Trazado_1040053" data-name="Trazado 1040053" d="M6,0l6,10H0Z" transform="translate(588.5 5207)" fill="#496406"/>
    <path id="Trazado_1040054" data-name="Trazado 1040054" d="M6,0l6,10H0Z" transform="translate(1092.5 5594) rotate(90)" fill="#496406"/>
    <g id="cow_766809" transform="translate(665.096 5463.026)">
      <g id="Grupo_1201737" data-name="Grupo 1201737" transform="translate(5.404 0)">
        <g id="Grupo_1201736" data-name="Grupo 1201736">
          <path id="Trazado_1039096" data-name="Trazado 1039096" d="M89.372,23.055c-2.144-2.28-7.146-3.505-14.871-3.505H72.936A21.405,21.405,0,0,0,70.877,2.535C69.737.834,68.75,0,67.678,0a2.008,2.008,0,0,0-1.906,1.344c-.476,1.191-2.841,5.666-4.713,8.78H34.175C32.3,7.01,29.939,2.535,29.462,1.361A2.008,2.008,0,0,0,27.557.017C26.485,0,25.5.834,24.358,2.535A21.405,21.405,0,0,0,22.3,19.55H20.733c-7.725,0-12.727,1.157-14.871,3.4a1.7,1.7,0,0,0-.17,2.11c.7,1.038,6.483,9.358,13.085,10.907-2.722,6.67-9.613,26.118-1.463,39.049C22.2,82.795,31.555,86.725,45.1,86.725h5.019c13.612,0,22.9-3.947,27.8-11.723,8.15-12.948,1.259-32.329-1.463-38.93C83.042,34.54,88.845,26.2,89.542,25.165A1.7,1.7,0,0,0,89.372,23.055ZM75.045,73.215v-.068c-4.22,6.721-12.608,10.124-24.91,10.124H45.116c-12.3,0-20.673-3.4-24.91-10.124a23.991,23.991,0,0,1-3.3-12.3c6.006-1.8,34.54-9.375,61.441,0A24.01,24.01,0,0,1,75.045,73.215Zm3.2-15.96c-26.407-8.712-53.274-2.246-61.254,0a69.476,69.476,0,0,1,5.836-22,1.7,1.7,0,0,0-1.7-2.433c-4.2.272-9.188-5.1-11.672-8.3a29.3,29.3,0,0,1,11.281-1.565c2.3,0,3.964.119,3.982.119a1.7,1.7,0,0,0,1.7-2.433A17.645,17.645,0,0,1,27.2,4.475c1.5,2.961,4.169,7.572,4.543,8.218a1.7,1.7,0,0,0,1.463.851h1.6c1.7,5.87,10.311,28.636,40,28.636h.272A62.494,62.494,0,0,1,78.244,57.255ZM74.076,32.907a1.7,1.7,0,0,0-1.667,2.433s.613,1.31,1.429,3.4C48.23,38.267,40.284,19.805,38.31,13.527H62.046a1.7,1.7,0,0,0,1.463-.851c.374-.647,3.046-5.258,4.543-8.218a17.644,17.644,0,0,1,.8,16.249,1.7,1.7,0,0,0,1.7,2.433s1.7-.119,3.982-.119A29.3,29.3,0,0,1,85.782,24.6C83.349,27.853,78.244,33.162,74.076,32.907Z" transform="translate(-5.404 0)"/>
        </g>
      </g>
      <g id="Grupo_1201739" data-name="Grupo 1201739" transform="translate(26.566 67.515)">
        <g id="Grupo_1201738" data-name="Grupo 1201738">
          <path id="Trazado_1039097" data-name="Trazado 1039097" d="M111.242,324.857c-.013-.029-.027-.057-.041-.085l-3.046-6.33a1.7,1.7,0,1,0-3.1,1.395c.013.029.027.057.041.085l3.046,6.33a1.7,1.7,0,1,0,3.1-1.395Z" transform="translate(-104.901 -317.437)"/>
        </g>
      </g>
      <g id="Grupo_1201741" data-name="Grupo 1201741" transform="translate(62.198 67.515)">
        <g id="Grupo_1201740" data-name="Grupo 1201740">
          <path id="Trazado_1039098" data-name="Trazado 1039098" d="M277.986,317.628a1.7,1.7,0,0,0-2.294.728c-.014.028-.028.057-.041.085l-3.046,6.33a1.7,1.7,0,0,0,.787,2.274l.013.006a1.7,1.7,0,0,0,2.263-.8l3.046-6.33A1.7,1.7,0,0,0,277.986,317.628Z" transform="translate(-272.434 -317.437)"/>
        </g>
      </g>
      <g id="Grupo_1201743" data-name="Grupo 1201743" transform="translate(27.386 26.016)">
        <g id="Grupo_1201742" data-name="Grupo 1201742">
          <circle id="Elipse_12281" data-name="Elipse 12281" cx="3.982" cy="3.982" r="3.982"/>
        </g>
      </g>
      <g id="Grupo_1201745" data-name="Grupo 1201745" transform="translate(59.902 26.016)">
        <g id="Grupo_1201744" data-name="Grupo 1201744">
          <circle id="Elipse_12282" data-name="Elipse 12282" cx="3.982" cy="3.982" r="3.982"/>
        </g>
      </g>
    </g>
    <path id="Trazado_1039088" data-name="Trazado 1039088" d="M6990.767,5250.134v355.421" transform="translate(-6171.5 -5.634)" fill="none" stroke="#496406" stroke-width="1"/>
    <path id="Trazado_1039091" data-name="Trazado 1039091" d="M6990.767,5250.134v447.589" transform="translate(6291.223 -1568.267) rotate(90)" fill="none" stroke="#496406" stroke-width="1"/>
    <g id="g781" transform="translate(667.5 5967.538)" clip-path="url(#clip-path)">
      <g id="g787" transform="translate(22.621 -681.334)">
        <path id="path789" d="M-303.318-406.407l-1.363-8.022a.536.536,0,0,1,.153-.472l21.379-21.037a.536.536,0,0,0-.3-.913l-29.532-4.332a.54.54,0,0,1-.407-.3l-13.2-27a.541.541,0,0,0-.97,0l-13.2,27a.539.539,0,0,1-.407.3l-8.7,1.277" transform="translate(349.871 468.782)" fill="none" stroke="#000" stroke-linecap="round" stroke-linejoin="round" stroke-miterlimit="10" stroke-width="3"/>
      </g>
      <g id="g791" transform="translate(1.331 -652.766)">
        <path id="path793" d="M-84.32-10.012l-22.8,3.364a.537.537,0,0,0-.3.913L-86.041,15.3a.536.536,0,0,1,.153.472l-5.046,29.7a.539.539,0,0,0,.786.563l26.4-14.011a.542.542,0,0,1,.508,0l26.4,14.011a.539.539,0,0,0,.786-.563l-3.81-22.431" transform="translate(107.581 10.012)" fill="none" stroke="#000" stroke-linecap="round" stroke-linejoin="round" stroke-miterlimit="10" stroke-width="3"/>
      </g>
    </g>
    <g id="Grupo_1201746" data-name="Grupo 1201746" transform="translate(6.5)">
      <path id="Trazado_1039099" data-name="Trazado 1039099" d="M-12.78-20.244a15.76,15.76,0,0,1,1.822-7.772,28.729,28.729,0,0,1,5.586-6.8q.729-.607,5.1-4.372A43.753,43.753,0,0,0,5.8-44.775a8.384,8.384,0,0,0,1.943-5.586q0-4.736-3.34-6.74t-11.112-2a40,40,0,0,0-9.958,1.275,38.771,38.771,0,0,0-8.622,3.218V-71.006A43.972,43.972,0,0,1-14.48-74.589,65.583,65.583,0,0,1-1.243-75.864q13.966,0,21.434,6.072t7.469,16.88a20.15,20.15,0,0,1-2.55,10.626,36.989,36.989,0,0,1-8.379,8.926l-2.307,1.943a37.939,37.939,0,0,0-6.376,5.951,9.421,9.421,0,0,0-1.882,5.951v1.579H-12.78Zm-.85,9.715H6.894V3.559H-13.63Z" transform="translate(918.788 5372.148)" fill="none" stroke="#212429" stroke-width="4"/>
      <g id="g1359" transform="translate(877 6145.691)">
        <g id="g1361" transform="translate(0 -682.665)">
          <g id="g1363" clip-path="url(#clip-path-2)">
            <g id="g1369" transform="translate(69.26 43.602)">
              <path id="path1371" d="M-49.572-105.6a22.593,22.593,0,0,0,1.128-3.5,23.314,23.314,0,0,0-.015-10.507,1.772,1.772,0,0,0-3.427-.081A26.21,26.21,0,0,1-54.1-114.37a20.045,20.045,0,0,1-2.685,3.816" transform="translate(56.787 120.967)" fill="none" stroke="#000" stroke-linecap="round" stroke-linejoin="round" stroke-miterlimit="10" stroke-width="3"/>
            </g>
            <g id="g1373" transform="translate(66.77 74.225)">
              <path id="path1375" d="M0-60.164a39.683,39.683,0,0,0,3.911-3A25.411,25.411,0,0,0,8.842-68.92" transform="translate(0 68.92)" fill="none" stroke="#000" stroke-linecap="round" stroke-linejoin="round" stroke-miterlimit="10" stroke-width="3"/>
            </g>
            <g id="g1377" transform="translate(67.595 53.896)">
              <path id="path1379" d="M0-.008A10.12,10.12,0,0,1,7.209,2.884c3.1,3.123,4.018,8.012,2.981,12.292-.047.2-.1.4-.156.595" transform="translate(0 0.009)" fill="none" stroke="#000" stroke-linecap="round" stroke-linejoin="round" stroke-miterlimit="10" stroke-width="3"/>
            </g>
            <g id="g1381" transform="translate(8.531 53.896)">
              <path id="path1383" d="M-155.067-216.862h-7.2a50.95,50.95,0,0,1-7.849-5.475,21.774,21.774,0,0,1-7.1-10.9c-1.037-4.28-.123-9.169,2.981-12.292a10.122,10.122,0,0,1,7.211-2.891" transform="translate(177.633 248.422)" fill="none" stroke="#000" stroke-linecap="round" stroke-linejoin="round" stroke-miterlimit="10" stroke-width="3"/>
            </g>
            <g id="g1385" transform="translate(35.895 60.115)">
              <path id="path1387" d="M0-174.125H14.934V-192a7.467,7.467,0,0,0-7.467-7.467A7.467,7.467,0,0,0,0-192Z" transform="translate(0 199.465)" fill="none" stroke="#000" stroke-linecap="round" stroke-linejoin="round" stroke-miterlimit="10" stroke-width="3"/>
            </g>
            <g id="g1389" transform="translate(50.829 56.792)">
              <path id="path1391" d="M0-173.777v-25.289" transform="translate(0 199.066)" fill="none" stroke="#000" stroke-linecap="round" stroke-linejoin="round" stroke-miterlimit="10" stroke-width="3"/>
            </g>
            <g id="g1393" transform="translate(59.63 40.336)">
              <path id="path1395" d="M0,0A16.321,16.321,0,0,1,7.136,19.171l-5.9,17.743" fill="none" stroke="#000" stroke-linecap="round" stroke-linejoin="round" stroke-miterlimit="10" stroke-width="3"/>
            </g>
            <g id="g1397" transform="translate(22.035 40.334)">
              <path id="path1399" d="M0-32.427a16.265,16.265,0,0,1,5.059-4.719" transform="translate(0 37.147)" fill="none" stroke="#000" stroke-linecap="round" stroke-linejoin="round" stroke-miterlimit="10" stroke-width="3"/>
            </g>
            <g id="g1401" transform="translate(19.123 49.537)">
              <path id="path1403" d="M-5.018,0a16.283,16.283,0,0,0,.105,9.97l5.9,17.743" transform="translate(5.748)" fill="none" stroke="#000" stroke-linecap="round" stroke-linejoin="round" stroke-miterlimit="10" stroke-width="3"/>
            </g>
            <g id="g1405" transform="translate(35.896 56.792)">
              <path id="path1407" d="M0-173.777v-25.289" transform="translate(0 199.066)" fill="none" stroke="#000" stroke-linecap="round" stroke-linejoin="round" stroke-miterlimit="10" stroke-width="3"/>
            </g>
            <g id="g1409" transform="translate(19.665 76.953)">
              <path id="path1411" d="M-57.894,0a8.5,8.5,0,0,0-8.414,7.278A1.083,1.083,0,0,0-65.229,8.5h14.67A1.083,1.083,0,0,0-49.48,7.278,8.5,8.5,0,0,0-57.894,0Z" transform="translate(66.319)" fill="none" stroke="#000" stroke-linecap="round" stroke-linejoin="round" stroke-miterlimit="10" stroke-width="3"/>
            </g>
            <g id="g1413" transform="translate(50.21 76.953)">
              <path id="path1415" d="M-57.894,0a8.5,8.5,0,0,0-8.414,7.278A1.083,1.083,0,0,0-65.229,8.5h14.67A1.083,1.083,0,0,0-49.48,7.278,8.5,8.5,0,0,0-57.894,0Z" transform="translate(66.319)" fill="none" stroke="#000" stroke-linecap="round" stroke-linejoin="round" stroke-miterlimit="10" stroke-width="3"/>
            </g>
            <g id="g1417" transform="translate(54.912 82.254)">
              <path id="path1419" d="M-3.314-22c-.29,0-.518-.576-.477-1.225A17.214,17.214,0,0,1-3.554-25.2" transform="translate(3.796 25.2)" fill="none" stroke="#000" stroke-linecap="round" stroke-linejoin="round" stroke-miterlimit="10" stroke-width="3"/>
            </g>
            <g id="g1421" transform="translate(61.877 82.254)">
              <path id="path1423" d="M-1.641,0A17.214,17.214,0,0,1-1.4,1.977C-1.362,2.625-1.59,3.2-1.88,3.2" transform="translate(1.88)" fill="none" stroke="#000" stroke-linecap="round" stroke-linejoin="round" stroke-miterlimit="10" stroke-width="3"/>
            </g>
            <g id="g1425" transform="translate(31.331 82.254)">
              <path id="path1427" d="M-1.653,0a17.214,17.214,0,0,1,.237,1.977C-1.375,2.625-1.6,3.2-1.893,3.2" transform="translate(1.893)" fill="none" stroke="#000" stroke-linecap="round" stroke-linejoin="round" stroke-miterlimit="10" stroke-width="3"/>
            </g>
            <g id="g1429" transform="translate(24.368 82.254)">
              <path id="path1431" d="M-3.306-22c-.29,0-.518-.576-.476-1.225A17.251,17.251,0,0,1-3.544-25.2" transform="translate(3.787 25.2)" fill="none" stroke="#000" stroke-linecap="round" stroke-linejoin="round" stroke-miterlimit="10" stroke-width="3"/>
            </g>
            <g id="g1433" transform="translate(54.983 1.27)">
              <path id="path1435" d="M0-19.834l3.693-2.131A5.634,5.634,0,0,1,6.51-22.72H9.641A12.477,12.477,0,0,1,22.09-11.1l.423,6.122a5.848,5.848,0,0,1-5.231,6.22,6.011,6.011,0,0,1-.6.03A5.853,5.853,0,0,1,14.144.693L10.759-.937" transform="translate(0 22.72)" fill="none" stroke="#000" stroke-linecap="round" stroke-linejoin="round" stroke-miterlimit="10" stroke-width="3"/>
            </g>
            <g id="g1437" transform="translate(9.216 1.27)">
              <path id="path1439" d="M-80.863-149.683l-3.384,1.629a5.853,5.853,0,0,1-2.536.578,6.019,6.019,0,0,1-.6-.03,5.848,5.848,0,0,1-5.231-6.22l.423-6.122a12.477,12.477,0,0,1,12.448-11.618h3.132a5.635,5.635,0,0,1,2.817.755l3.693,2.131" transform="translate(92.631 171.466)" fill="none" stroke="#000" stroke-linecap="round" stroke-linejoin="round" stroke-miterlimit="10" stroke-width="3"/>
            </g>
            <g id="g1441" transform="translate(20.426 1.27)">
              <path id="path1443" d="M-46.545-273.108a13.81,13.81,0,0,1-6.774-11.882v-2.163a14.079,14.079,0,0,1,1.665-6.64l6.725-12.567a12.293,12.293,0,0,1,10.839-6.493h7.416a12.292,12.292,0,0,1,10.839,6.493l.615,1.15" transform="translate(53.319 312.853)" fill="none" stroke="#000" stroke-linecap="round" stroke-linejoin="round" stroke-miterlimit="10" stroke-width="3"/>
            </g>
            <g id="g1445" transform="translate(59.525 13.895)">
              <path id="path1447" d="M-11.442,0-8,6.435a14.078,14.078,0,0,1,1.665,6.64v2.163A13.81,13.81,0,0,1-13.107,27.12" transform="translate(13.107)" fill="none" stroke="#000" stroke-linecap="round" stroke-linejoin="round" stroke-miterlimit="10" stroke-width="3"/>
            </g>
            <g id="g1449" transform="translate(33.781 22.587)">
              <path id="path1451" d="M0,0V1.017" fill="none" stroke="#000" stroke-linecap="round" stroke-linejoin="round" stroke-miterlimit="10" stroke-width="3"/>
            </g>
            <g id="g1453" transform="translate(52.945 22.587)">
              <path id="path1455" d="M0,0V1.017" fill="none" stroke="#000" stroke-linecap="round" stroke-linejoin="round" stroke-miterlimit="10" stroke-width="3"/>
            </g>
            <g id="g1457" transform="translate(37.349 47.511)">
              <path id="path1459" d="M0,0A6.841,6.841,0,0,0,6.013,3.572,6.841,6.841,0,0,0,12.026,0" fill="none" stroke="#000" stroke-linecap="round" stroke-linejoin="round" stroke-miterlimit="10" stroke-width="3"/>
            </g>
            <g id="g1461" transform="translate(27.041 31.033)">
              <path id="path1463" d="M-152.488,0h2.1a8.354,8.354,0,0,1,8.354,8.354,8.354,8.354,0,0,1-8.354,8.354,8.358,8.358,0,0,1-7.968-5.839,8.357,8.357,0,0,1-7.968,5.839,8.354,8.354,0,0,1-8.354-8.354A8.354,8.354,0,0,1-166.325,0h2.1" transform="translate(174.68)" fill="none" stroke="#000" stroke-linecap="round" stroke-linejoin="round" stroke-miterlimit="10" stroke-width="3"/>
            </g>
            <g id="g1465" transform="translate(37.292 26.606)">
              <path id="path1467" d="M-83.43-18.8a6.354,6.354,0,0,1-6.071,6.6,6.354,6.354,0,0,1-6.071-6.6C-95.572-22.445-83.43-22.445-83.43-18.8Z" transform="translate(95.572 21.533)" fill="none" stroke="#000" stroke-linecap="round" stroke-linejoin="round" stroke-miterlimit="10" stroke-width="3"/>
            </g>
          </g>
        </g>
      </g>
    </g>
  </g>
</svg>
