<svg xmlns="http://www.w3.org/2000/svg" xmlns:xlink="http://www.w3.org/1999/xlink" width="113" height="113" viewBox="0 0 113 113">
  <defs>
    <filter id="Trazado_982547" x="0" y="0" width="113" height="113" filterUnits="userSpaceOnUse">
      <feOffset dy="3" input="SourceAlpha"/>
      <feGaussianBlur stdDeviation="3" result="blur"/>
      <feFlood flood-opacity="0.161"/>
      <feComposite operator="in" in2="blur"/>
      <feComposite in="SourceGraphic"/>
    </filter>
  </defs>
  <g id="Grupo_1201749" data-name="Grupo 1201749" transform="translate(9 6)">
    <g id="Grupo_1201681" data-name="Grupo 1201681">
      <g id="Grupo_1201330" data-name="Grupo 1201330">
        <g id="Grupo_1172010" data-name="Grupo 1172010">
          <g id="Grupo_1171046" data-name="Grupo 1171046">
            <g id="Grupo_1148525" data-name="Grupo 1148525">
              <g transform="matrix(1, 0, 0, 1, -9, -6)" filter="url(#Trazado_982547)">
                <g id="Trazado_982547-2" data-name="Trazado 982547" transform="translate(9 6)" fill="#e9f9fd">
                  <path d="M 47.5 93.5 C 41.28937149047852 93.5 35.26533508300781 92.28397369384766 29.59518623352051 89.88570404052734 C 24.11771965026855 87.56893157958984 19.19813346862793 84.25196075439453 14.97309303283691 80.02691650390625 C 10.74804019927979 75.80186462402344 7.431066513061523 70.88229370117188 5.114293098449707 65.40481567382812 C 2.716026782989502 59.73468017578125 1.5 53.71062850952148 1.5 47.5 C 1.5 41.28937149047852 2.716026782989502 35.26533508300781 5.114293098449707 29.59518623352051 C 7.431066513061523 24.11771965026855 10.74804019927979 19.19813346862793 14.97309303283691 14.97309303283691 C 19.19813346862793 10.74804019927979 24.11771965026855 7.431066513061523 29.59518623352051 5.114293098449707 C 35.26533508300781 2.716026782989502 41.28937149047852 1.5 47.5 1.5 C 53.71062850952148 1.5 59.73468017578125 2.716026782989502 65.40481567382812 5.114293098449707 C 70.88229370117188 7.431066513061523 75.80186462402344 10.74804019927979 80.02691650390625 14.97309303283691 C 84.25196075439453 19.19813346862793 87.56893157958984 24.11771965026855 89.88570404052734 29.59518623352051 C 92.28397369384766 35.26533508300781 93.5 41.28937149047852 93.5 47.5 C 93.5 53.71062850952148 92.28397369384766 59.73468017578125 89.88570404052734 65.40481567382812 C 87.56893157958984 70.88229370117188 84.25196075439453 75.80186462402344 80.02691650390625 80.02691650390625 C 75.80186462402344 84.25196075439453 70.88229370117188 87.56893157958984 65.40481567382812 89.88570404052734 C 59.73468017578125 92.28397369384766 53.71062850952148 93.5 47.5 93.5 Z" stroke="none"/>
                  <path d="M 47.5 3 C 41.49121475219727 3 35.66376876831055 4.176155090332031 30.17950439453125 6.495796203613281 C 24.88084411621094 8.736953735351562 20.12152099609375 11.94598388671875 16.03375244140625 16.03375244140625 C 11.94598388671875 20.12152099609375 8.736953735351562 24.88084411621094 6.495796203613281 30.17950439453125 C 4.176155090332031 35.66376876831055 3 41.49121475219727 3 47.5 C 3 53.50878524780273 4.176155090332031 59.33623123168945 6.495796203613281 64.82049560546875 C 8.736953735351562 70.11915588378906 11.94598388671875 74.87847900390625 16.03375244140625 78.96624755859375 C 20.12152099609375 83.05401611328125 24.88084411621094 86.26304626464844 30.17950439453125 88.50419616699219 C 35.66376876831055 90.82384490966797 41.49121475219727 92 47.5 92 C 53.50878524780273 92 59.33623123168945 90.82384490966797 64.82049560546875 88.50419616699219 C 70.11915588378906 86.26304626464844 74.87847900390625 83.05401611328125 78.96624755859375 78.96624755859375 C 83.05401611328125 74.87847900390625 86.26304626464844 70.11915588378906 88.50419616699219 64.82049560546875 C 90.82384490966797 59.33623123168945 92 53.50878524780273 92 47.5 C 92 41.49121475219727 90.82384490966797 35.66376876831055 88.50419616699219 30.17950439453125 C 86.26304626464844 24.88084411621094 83.05401611328125 20.12152099609375 78.96624755859375 16.03375244140625 C 74.87847900390625 11.94598388671875 70.11915588378906 8.736953735351562 64.82049560546875 6.495796203613281 C 59.33623123168945 4.176155090332031 53.50878524780273 3 47.5 3 M 47.5 0 C 73.7335205078125 0 95 21.2664794921875 95 47.5 C 95 73.7335205078125 73.7335205078125 95 47.5 95 C 21.2664794921875 95 0 73.7335205078125 0 47.5 C 0 21.2664794921875 21.2664794921875 0 47.5 0 Z" stroke="none" fill="#1d7083"/>
                </g>
              </g>
            </g>
          </g>
        </g>
      </g>
    </g>
    <g id="cow_766809" transform="translate(14.671 18.693)">
      <g id="Grupo_1201737" data-name="Grupo 1201737" transform="translate(5.404 0)">
        <g id="Grupo_1201736" data-name="Grupo 1201736">
          <path id="Trazado_1039096" data-name="Trazado 1039096" d="M61.376,15.368c-1.429-1.52-4.764-2.336-9.913-2.336H50.42A14.268,14.268,0,0,0,49.047,1.69C48.287.556,47.629,0,46.915,0a1.338,1.338,0,0,0-1.27.9c-.318.794-1.894,3.777-3.142,5.852H24.583C23.335,4.673,21.758,1.69,21.441.907a1.339,1.339,0,0,0-1.27-.9C19.456,0,18.8.556,18.038,1.69a14.268,14.268,0,0,0-1.372,11.342H15.622c-5.149,0-8.484.771-9.913,2.268A1.134,1.134,0,0,0,5.6,16.707c.465.692,4.321,6.238,8.722,7.27-1.815,4.446-6.408,17.41-.975,26.03,3.255,5.183,9.493,7.8,18.521,7.8H35.21c9.074,0,15.266-2.631,18.533-7.815,5.433-8.631.839-21.55-.975-25.95,4.389-1.021,8.257-6.578,8.722-7.27A1.134,1.134,0,0,0,61.376,15.368ZM51.826,48.8v-.045c-2.813,4.48-8.4,6.748-16.6,6.748H31.875c-8.2,0-13.781-2.268-16.6-6.748a15.992,15.992,0,0,1-2.2-8.2c4-1.2,23.024-6.249,40.956,0A16,16,0,0,1,51.826,48.8Zm2.132-10.639c-17.6-5.807-35.512-1.5-40.831,0A46.312,46.312,0,0,1,17.017,23.5a1.134,1.134,0,0,0-1.134-1.622c-2.8.181-6.125-3.4-7.781-5.535a19.529,19.529,0,0,1,7.52-1.043c1.531,0,2.643.079,2.654.079a1.134,1.134,0,0,0,1.134-1.622,11.762,11.762,0,0,1,.522-10.775c1,1.974,2.779,5.047,3.028,5.478a1.134,1.134,0,0,0,.975.567H25c1.134,3.913,6.873,19.089,26.665,19.089h.181A41.658,41.658,0,0,1,53.958,38.166ZM51.18,21.935a1.136,1.136,0,0,0-1.112,1.622s.408.873.953,2.268C33.951,25.508,28.654,13.2,27.339,9.017H43.161a1.134,1.134,0,0,0,.975-.567c.25-.431,2.03-3.5,3.028-5.478A11.761,11.761,0,0,1,47.7,13.8a1.134,1.134,0,0,0,1.134,1.622s1.134-.079,2.654-.079a19.532,19.532,0,0,1,7.5,1.055C57.361,18.567,53.958,22.105,51.18,21.935Z" transform="translate(-5.404 0)"/>
        </g>
      </g>
      <g id="Grupo_1201739" data-name="Grupo 1201739" transform="translate(19.51 45.005)">
        <g id="Grupo_1201738" data-name="Grupo 1201738">
          <path id="Trazado_1039097" data-name="Trazado 1039097" d="M109.128,322.383c-.009-.019-.018-.038-.027-.057l-2.03-4.219a1.134,1.134,0,1,0-2.069.93c.009.019.018.038.028.057l2.03,4.219a1.134,1.134,0,0,0,2.069-.93Z" transform="translate(-104.901 -317.437)"/>
        </g>
      </g>
      <g id="Grupo_1201741" data-name="Grupo 1201741" transform="translate(43.262 45.005)">
        <g id="Grupo_1201740" data-name="Grupo 1201740">
          <path id="Trazado_1039098" data-name="Trazado 1039098" d="M276.135,317.565a1.134,1.134,0,0,0-1.529.485c-.01.019-.019.038-.027.057l-2.03,4.219a1.134,1.134,0,0,0,.525,1.516l.008,0a1.134,1.134,0,0,0,1.509-.533l2.03-4.219A1.134,1.134,0,0,0,276.135,317.565Z" transform="translate(-272.434 -317.437)"/>
        </g>
      </g>
      <g id="Grupo_1201743" data-name="Grupo 1201743" transform="translate(20.057 17.342)">
        <g id="Grupo_1201742" data-name="Grupo 1201742">
          <circle id="Elipse_12281" data-name="Elipse 12281" cx="2.654" cy="2.654" r="2.654"/>
        </g>
      </g>
      <g id="Grupo_1201745" data-name="Grupo 1201745" transform="translate(41.732 17.342)">
        <g id="Grupo_1201744" data-name="Grupo 1201744">
          <circle id="Elipse_12282" data-name="Elipse 12282" cx="2.654" cy="2.654" r="2.654"/>
        </g>
      </g>
    </g>
  </g>
</svg>
