<svg xmlns="http://www.w3.org/2000/svg" xmlns:xlink="http://www.w3.org/1999/xlink" width="764.006" height="401.263" viewBox="0 0 764.006 401.263">
  <defs>
    <filter id="Trazado_1040055" x="44.006" y="38.263" width="322" height="363" filterUnits="userSpaceOnUse">
      <feOffset dy="3" input="SourceAlpha"/>
      <feGaussianBlur stdDeviation="3" result="blur"/>
      <feFlood flood-opacity="0.161"/>
      <feComposite operator="in" in2="blur"/>
      <feComposite in="SourceGraphic"/>
    </filter>
    <filter id="Trazado_1040056" x="442.006" y="38.263" width="322" height="363" filterUnits="userSpaceOnUse">
      <feOffset dy="3" input="SourceAlpha"/>
      <feGaussianBlur stdDeviation="3" result="blur-2"/>
      <feFlood flood-opacity="0.161"/>
      <feComposite operator="in" in2="blur-2"/>
      <feComposite in="SourceGraphic"/>
    </filter>
    <clipPath id="clip-path">
      <path id="path3948" d="M0-682.665H78.687v78.687H0Z" transform="translate(0 682.665)" fill="#8b550e"/>
    </clipPath>
  </defs>
  <g id="Grupo_1202185" data-name="Grupo 1202185" transform="translate(-426.994 -7922.665)">
    <g transform="matrix(1, 0, 0, 1, 426.99, 7922.67)" filter="url(#Trazado_1040055)">
      <path id="Trazado_1040055-2" data-name="Trazado 1040055" d="M0,0H304V345H0Z" transform="translate(53.01 44.26)" fill="#36ceef"/>
    </g>
    <g transform="matrix(1, 0, 0, 1, 426.99, 7922.67)" filter="url(#Trazado_1040056)">
      <path id="Trazado_1040056-2" data-name="Trazado 1040056" d="M0,0H304V345H0Z" transform="translate(451.01 44.26)" fill="#ff9d1c"/>
    </g>
    <path id="Trazado_1040057" data-name="Trazado 1040057" d="M4.28,19H1.441V6.4H4.28Zm11.4,0H12.9V17.761h-.035a3.114,3.114,0,0,1-2.786,1.459,3.412,3.412,0,0,1-2.716-1.191A4.93,4.93,0,0,1,6.337,14.7a5.366,5.366,0,0,1,1.134-3.577A3.7,3.7,0,0,1,10.441,9.78a2.527,2.527,0,0,1,2.426,1.248H12.9V5.676H15.68Zm-2.725-4.377v-.677a2.13,2.13,0,0,0-.51-1.459,1.683,1.683,0,0,0-1.327-.58,1.673,1.673,0,0,0-1.441.725,3.367,3.367,0,0,0-.519,1.991,2.914,2.914,0,0,0,.5,1.828,1.779,1.779,0,0,0,2.764-.035A2.821,2.821,0,0,0,12.955,14.623Zm13.148.668H20.232q.141,1.96,2.47,1.96a4.822,4.822,0,0,0,2.61-.7v2a6.858,6.858,0,0,1-3.243.668,4.565,4.565,0,0,1-3.384-1.208,4.566,4.566,0,0,1-1.2-3.371,4.816,4.816,0,0,1,1.3-3.551,4.334,4.334,0,0,1,3.2-1.31,3.933,3.933,0,0,1,3.045,1.169A4.5,4.5,0,0,1,26.1,14.122Zm-2.575-1.705q0-1.934-1.564-1.934a1.494,1.494,0,0,0-1.156.554,2.513,2.513,0,0,0-.593,1.38ZM36.448,19H33.68V14q0-2.092-1.494-2.092A1.483,1.483,0,0,0,31,12.461a2.109,2.109,0,0,0-.466,1.406V19H27.756V10h2.777v1.424h.035A3.183,3.183,0,0,1,33.46,9.78q2.988,0,2.988,3.709Zm7.638-.105a4.105,4.105,0,0,1-1.854.325q-2.936,0-2.936-3.05V12.048H37.837V10H39.3V8.058l2.769-.791V10h2.021v2.048H42.064v3.639q0,1.406,1.116,1.406a1.882,1.882,0,0,0,.905-.255ZM47.057,8.576a1.622,1.622,0,0,1-1.151-.417,1.345,1.345,0,0,1-.448-1.024,1.3,1.3,0,0,1,.448-1.02,1.88,1.88,0,0,1,2.307,0,1.3,1.3,0,0,1,.444,1.02,1.34,1.34,0,0,1-.444,1.037A1.65,1.65,0,0,1,47.057,8.576ZM48.428,19H45.65V10h2.777ZM56.637,7.8a2.806,2.806,0,0,0-1.028-.211q-1.336,0-1.336,1.45V10h2.057v2.048H54.272V19H51.5V12.048H49.992V10H51.5V8.884a3.24,3.24,0,0,1,1-2.479,3.821,3.821,0,0,1,2.725-.94,4.785,4.785,0,0,1,1.406.176Zm2.435.773a1.622,1.622,0,0,1-1.151-.417,1.345,1.345,0,0,1-.448-1.024,1.3,1.3,0,0,1,.448-1.02,1.88,1.88,0,0,1,2.307,0,1.3,1.3,0,0,1,.444,1.02,1.34,1.34,0,0,1-.444,1.037A1.65,1.65,0,0,1,59.071,8.576ZM60.442,19H57.665V10h2.777Zm9.158-.325a5.492,5.492,0,0,1-2.716.545,4.593,4.593,0,0,1-3.357-1.257,4.341,4.341,0,0,1-1.283-3.243A4.782,4.782,0,0,1,63.62,11.1,5.083,5.083,0,0,1,67.3,9.78a4.72,4.72,0,0,1,2.3.422v2.355a3.166,3.166,0,0,0-1.942-.65,2.559,2.559,0,0,0-1.894.7,2.607,2.607,0,0,0-.7,1.929,2.565,2.565,0,0,0,.668,1.876,2.455,2.455,0,0,0,1.837.681,3.666,3.666,0,0,0,2.03-.65ZM78.908,19H76.28V17.708h-.035a2.933,2.933,0,0,1-2.681,1.512,2.8,2.8,0,0,1-2.061-.743,2.661,2.661,0,0,1-.751-1.982q0-2.619,3.1-3.023l2.443-.325q0-1.477-1.6-1.477a5.46,5.46,0,0,0-3.059.958V10.536a6.881,6.881,0,0,1,1.586-.527,8.339,8.339,0,0,1,1.833-.229q3.85,0,3.85,3.841ZM76.3,15.344v-.606l-1.635.211q-1.354.176-1.354,1.222a1.01,1.01,0,0,0,.33.778,1.266,1.266,0,0,0,.892.3,1.644,1.644,0,0,0,1.274-.541A1.952,1.952,0,0,0,76.3,15.344ZM86.977,12.5a2.409,2.409,0,0,0-1.169-.272,1.684,1.684,0,0,0-1.415.664,2.9,2.9,0,0,0-.51,1.806V19H81.105V10h2.777v1.67h.035a2.4,2.4,0,0,1,2.373-1.828,1.788,1.788,0,0,1,.686.105Zm1.09,6.715a1.62,1.62,0,0,1-1.143-.422,1.356,1.356,0,0,1-.457-1.037,1.306,1.306,0,0,1,.47-1.037,1.736,1.736,0,0,1,1.173-.4,1.671,1.671,0,0,1,1.165.409,1.415,1.415,0,0,1-.009,2.083A1.742,1.742,0,0,1,88.066,19.22ZM12.524,46H9.431l-.9-2.8H4.052L3.164,46H.088L4.676,33.4H8.042ZM7.884,41.017,6.53,36.78a5.52,5.52,0,0,1-.211-1.134h-.07a4.807,4.807,0,0,1-.22,1.1L4.658,41.017ZM22.518,46H19.749V41q0-2.092-1.494-2.092a1.483,1.483,0,0,0-1.187.554,2.109,2.109,0,0,0-.466,1.406V46H13.825V37H16.6v1.424h.035a3.183,3.183,0,0,1,2.892-1.644q2.988,0,2.988,3.709ZM32.2,46H29.575V44.708H29.54a2.933,2.933,0,0,1-2.681,1.512,2.8,2.8,0,0,1-2.061-.743,2.661,2.661,0,0,1-.751-1.982q0-2.619,3.1-3.023l2.443-.325q0-1.477-1.6-1.477a5.46,5.46,0,0,0-3.059.958V37.536a6.881,6.881,0,0,1,1.586-.527,8.339,8.339,0,0,1,1.833-.229q3.85,0,3.85,3.841Zm-2.61-3.656v-.606l-1.635.211Q26.6,42.124,26.6,43.17a1.01,1.01,0,0,0,.33.778,1.266,1.266,0,0,0,.892.3A1.644,1.644,0,0,0,29.1,43.71,1.952,1.952,0,0,0,29.593,42.344ZM37.178,46H34.4V32.676h2.777Zm3.744-10.424a1.622,1.622,0,0,1-1.151-.417,1.345,1.345,0,0,1-.448-1.024,1.3,1.3,0,0,1,.448-1.02,1.88,1.88,0,0,1,2.307,0,1.3,1.3,0,0,1,.444,1.02,1.34,1.34,0,0,1-.444,1.037A1.65,1.65,0,0,1,40.922,35.576ZM42.293,46H39.516V37h2.777Zm9.466,0H43.682V44.849l4.518-5.8H44.13V37h7.594v1.371l-4.28,5.581h4.315Zm8.982,0H58.113V44.708h-.035A2.933,2.933,0,0,1,55.4,46.22a2.8,2.8,0,0,1-2.061-.743,2.661,2.661,0,0,1-.751-1.982q0-2.619,3.1-3.023l2.443-.325q0-1.477-1.6-1.477a5.46,5.46,0,0,0-3.059.958V37.536a6.881,6.881,0,0,1,1.586-.527,8.339,8.339,0,0,1,1.833-.229q3.85,0,3.85,3.841Zm-2.61-3.656v-.606l-1.635.211q-1.354.176-1.354,1.222a1.01,1.01,0,0,0,.33.778,1.266,1.266,0,0,0,.892.3,1.644,1.644,0,0,0,1.274-.541A1.952,1.952,0,0,0,58.131,42.344ZM68.81,39.5a2.409,2.409,0,0,0-1.169-.272,1.684,1.684,0,0,0-1.415.664,2.9,2.9,0,0,0-.51,1.806V46H62.938V37h2.777v1.67h.035a2.4,2.4,0,0,1,2.373-1.828,1.788,1.788,0,0,1,.686.105ZM69.9,46.22a1.62,1.62,0,0,1-1.143-.422,1.356,1.356,0,0,1-.457-1.037,1.306,1.306,0,0,1,.47-1.037,1.736,1.736,0,0,1,1.173-.4,1.671,1.671,0,0,1,1.165.409,1.415,1.415,0,0,1-.009,2.083A1.742,1.742,0,0,1,69.9,46.22ZM12.524,73H9.431l-.9-2.8H4.052L3.164,73H.088L4.676,60.4H8.042ZM7.884,68.017,6.53,63.78a5.52,5.52,0,0,1-.211-1.134h-.07a4.807,4.807,0,0,1-.22,1.1L4.658,68.017ZM22.518,73H19.749V68q0-2.092-1.494-2.092a1.483,1.483,0,0,0-1.187.554,2.109,2.109,0,0,0-.466,1.406V73H13.825V64H16.6v1.424h.035a3.183,3.183,0,0,1,2.892-1.644q2.988,0,2.988,3.709Zm10.749,0H30.5V71.629h-.044A3.141,3.141,0,0,1,27.7,73.22q-3.129,0-3.129-3.788V64h2.769v5.186q0,1.907,1.512,1.907a1.5,1.5,0,0,0,1.2-.523A2.109,2.109,0,0,0,30.5,69.15V64h2.769Zm5.115,0H35.6V59.676h2.777Zm9.826,0H45.58V71.708h-.035a2.933,2.933,0,0,1-2.681,1.512,2.8,2.8,0,0,1-2.061-.743,2.661,2.661,0,0,1-.751-1.982q0-2.619,3.1-3.023l2.443-.325q0-1.477-1.6-1.477a5.46,5.46,0,0,0-3.059.958V64.536a6.881,6.881,0,0,1,1.586-.527,8.339,8.339,0,0,1,1.833-.229q3.85,0,3.85,3.841ZM45.6,69.344v-.606l-1.635.211q-1.354.176-1.354,1.222a1.01,1.01,0,0,0,.33.778,1.266,1.266,0,0,0,.892.3,1.644,1.644,0,0,0,1.274-.541A1.952,1.952,0,0,0,45.6,69.344ZM56.276,66.5a2.409,2.409,0,0,0-1.169-.272,1.684,1.684,0,0,0-1.415.664,2.9,2.9,0,0,0-.51,1.806V73H50.405V64h2.777v1.67h.035a2.4,2.4,0,0,1,2.373-1.828,1.788,1.788,0,0,1,.686.105Zm1.09,6.715a1.62,1.62,0,0,1-1.143-.422,1.356,1.356,0,0,1-.457-1.037,1.306,1.306,0,0,1,.47-1.037,1.736,1.736,0,0,1,1.173-.4,1.671,1.671,0,0,1,1.165.409,1.415,1.415,0,0,1-.009,2.083A1.742,1.742,0,0,1,57.366,73.22ZM9,100H1.441V87.4H8.71v2.312H4.28v2.8H8.4v2.3H4.28V97.7H9Zm10.318-9-3.349,9H12.806l-3.19-9h2.971l1.564,5.546a8.1,8.1,0,0,1,.308,1.6h.035a9.078,9.078,0,0,1,.325-1.547l1.6-5.6Zm8.4,9H25.093V98.708h-.035a2.933,2.933,0,0,1-2.681,1.512,2.8,2.8,0,0,1-2.061-.743,2.661,2.661,0,0,1-.751-1.982q0-2.619,3.1-3.023l2.443-.325q0-1.477-1.6-1.477a5.46,5.46,0,0,0-3.059.958V91.536a6.881,6.881,0,0,1,1.586-.527,8.339,8.339,0,0,1,1.833-.229q3.85,0,3.85,3.841Zm-2.61-3.656v-.606l-1.635.211q-1.354.176-1.354,1.222a1.01,1.01,0,0,0,.33.778,1.266,1.266,0,0,0,.892.3,1.644,1.644,0,0,0,1.274-.541A1.952,1.952,0,0,0,25.11,96.344ZM38.725,100H35.947V98.761h-.035a3.114,3.114,0,0,1-2.786,1.459,3.412,3.412,0,0,1-2.716-1.191A4.93,4.93,0,0,1,29.382,95.7a5.366,5.366,0,0,1,1.134-3.577,3.7,3.7,0,0,1,2.971-1.345,2.527,2.527,0,0,1,2.426,1.248h.035V86.676h2.777ZM36,95.623v-.677a2.13,2.13,0,0,0-.51-1.459,1.8,1.8,0,0,0-2.769.145,3.367,3.367,0,0,0-.519,1.991,2.914,2.914,0,0,0,.5,1.828,1.779,1.779,0,0,0,2.764-.035A2.821,2.821,0,0,0,36,95.623Zm6.469-6.047a1.622,1.622,0,0,1-1.151-.417,1.345,1.345,0,0,1-.448-1.024,1.3,1.3,0,0,1,.448-1.02,1.88,1.88,0,0,1,2.307,0,1.3,1.3,0,0,1,.444,1.02,1.34,1.34,0,0,1-.444,1.037A1.65,1.65,0,0,1,42.469,89.576ZM43.84,100H41.063V91H43.84Zm8.209-6.5a2.409,2.409,0,0,0-1.169-.272,1.684,1.684,0,0,0-1.415.664,2.9,2.9,0,0,0-.51,1.806V100H46.178V91h2.777v1.67h.035a2.4,2.4,0,0,1,2.373-1.828,1.788,1.788,0,0,1,.686.105Zm1.09,6.715A1.62,1.62,0,0,1,52,99.8a1.356,1.356,0,0,1-.457-1.037,1.306,1.306,0,0,1,.47-1.037,1.736,1.736,0,0,1,1.173-.4,1.671,1.671,0,0,1,1.165.409,1.415,1.415,0,0,1-.009,2.083A1.742,1.742,0,0,1,53.139,100.22ZM15.8,127H13v-7.541q0-1.222.105-2.7h-.07a13.277,13.277,0,0,1-.4,1.67L9.686,127H7.365l-3.006-8.481a16.5,16.5,0,0,1-.4-1.758H3.885Q4,118.624,4,120.03V127H1.441V114.4H5.6l2.575,7.471a10.519,10.519,0,0,1,.448,1.8h.053a18.142,18.142,0,0,1,.5-1.819l2.575-7.453H15.8Zm4-10.424a1.622,1.622,0,0,1-1.151-.417,1.345,1.345,0,0,1-.448-1.024,1.3,1.3,0,0,1,.448-1.02,1.88,1.88,0,0,1,2.307,0,1.3,1.3,0,0,1,.444,1.02,1.34,1.34,0,0,1-.444,1.037A1.65,1.65,0,0,1,19.8,116.576ZM21.173,127H18.4v-9h2.777Zm11.03,0H29.435v-5q0-2.092-1.494-2.092a1.483,1.483,0,0,0-1.187.554,2.109,2.109,0,0,0-.466,1.406V127H23.511v-9h2.777v1.424h.035a3.183,3.183,0,0,1,2.892-1.644q2.988,0,2.988,3.709Zm3.6-10.424a1.622,1.622,0,0,1-1.151-.417,1.345,1.345,0,0,1-.448-1.024,1.3,1.3,0,0,1,.448-1.02,1.88,1.88,0,0,1,2.307,0,1.3,1.3,0,0,1,.444,1.02,1.34,1.34,0,0,1-.444,1.037A1.65,1.65,0,0,1,35.807,116.576ZM37.178,127H34.4v-9h2.777Zm16.629,0H51.038v-5.133q0-1.96-1.441-1.96a1.324,1.324,0,0,0-1.116.589,2.42,2.42,0,0,0-.431,1.468V127H45.272v-5.186q0-1.907-1.415-1.907a1.356,1.356,0,0,0-1.138.563A2.475,2.475,0,0,0,42.293,122v5H39.516v-9h2.777v1.406h.035a3.41,3.41,0,0,1,2.909-1.626,2.592,2.592,0,0,1,2.61,1.679,3.329,3.329,0,0,1,3.023-1.679q2.936,0,2.936,3.621Zm3.6-10.424a1.622,1.622,0,0,1-1.151-.417,1.345,1.345,0,0,1-.448-1.024,1.3,1.3,0,0,1,.448-1.02,1.88,1.88,0,0,1,2.307,0,1.3,1.3,0,0,1,.444,1.02,1.34,1.34,0,0,1-.444,1.037A1.65,1.65,0,0,1,57.41,116.576ZM58.781,127H56v-9h2.777Zm9.466,0H60.17v-1.151l4.518-5.8H60.618V118h7.594v1.371l-4.28,5.581h4.315Zm8.982,0H74.6v-1.292h-.035a2.933,2.933,0,0,1-2.681,1.512,2.8,2.8,0,0,1-2.061-.743,2.661,2.661,0,0,1-.751-1.982q0-2.619,3.1-3.023l2.443-.325q0-1.477-1.6-1.477a5.46,5.46,0,0,0-3.059.958v-2.092a6.881,6.881,0,0,1,1.586-.527,8.339,8.339,0,0,1,1.833-.229q3.85,0,3.85,3.841Zm-2.61-3.656v-.606l-1.635.211q-1.354.176-1.354,1.222a1.01,1.01,0,0,0,.33.778,1.266,1.266,0,0,0,.892.3,1.644,1.644,0,0,0,1.274-.541A1.952,1.952,0,0,0,74.619,123.344ZM85.3,120.5a2.409,2.409,0,0,0-1.169-.272,1.684,1.684,0,0,0-1.415.664,2.9,2.9,0,0,0-.51,1.806V127H79.427v-9H82.2v1.67h.035a2.4,2.4,0,0,1,2.373-1.828,1.788,1.788,0,0,1,.686.105Zm1.09,6.715a1.62,1.62,0,0,1-1.143-.422,1.356,1.356,0,0,1-.457-1.037,1.306,1.306,0,0,1,.47-1.037,1.736,1.736,0,0,1,1.173-.4,1.671,1.671,0,0,1,1.165.409,1.415,1.415,0,0,1-.009,2.083A1.742,1.742,0,0,1,86.388,127.22Zm-76.1,16.488H6.7V154H3.85V143.708H.272V141.4h10.02Zm5.941,3.8a2.409,2.409,0,0,0-1.169-.272,1.684,1.684,0,0,0-1.415.664,2.9,2.9,0,0,0-.51,1.806V154H10.362v-9H13.14v1.67h.035a2.4,2.4,0,0,1,2.373-1.828,1.788,1.788,0,0,1,.686.105Zm8.78,6.5H22.386v-1.292h-.035a2.933,2.933,0,0,1-2.681,1.512,2.8,2.8,0,0,1-2.061-.743,2.661,2.661,0,0,1-.751-1.982q0-2.619,3.1-3.023l2.443-.325q0-1.477-1.6-1.477a5.46,5.46,0,0,0-3.059.958v-2.092a6.881,6.881,0,0,1,1.586-.527,8.339,8.339,0,0,1,1.833-.229q3.85,0,3.85,3.841Zm-2.61-3.656v-.606l-1.635.211q-1.354.176-1.354,1.222a1.01,1.01,0,0,0,.33.778,1.266,1.266,0,0,0,.892.3,1.644,1.644,0,0,0,1.274-.541A1.952,1.952,0,0,0,22.4,150.344ZM35.9,154H33.135v-5q0-2.092-1.494-2.092a1.483,1.483,0,0,0-1.187.554,2.109,2.109,0,0,0-.466,1.406V154H27.211v-9h2.777v1.424h.035a3.183,3.183,0,0,1,2.892-1.644q2.988,0,2.988,3.709Zm1.608-.237v-2.25a5.913,5.913,0,0,0,1.367.615,4.531,4.531,0,0,0,1.288.2,2.762,2.762,0,0,0,1.165-.2.653.653,0,0,0,.426-.615.569.569,0,0,0-.193-.439,1.8,1.8,0,0,0-.5-.308,5.635,5.635,0,0,0-.664-.237q-.36-.105-.694-.237a6.653,6.653,0,0,1-.945-.435,2.731,2.731,0,0,1-.686-.541,2.125,2.125,0,0,1-.422-.712,2.841,2.841,0,0,1-.145-.958,2.466,2.466,0,0,1,.33-1.3,2.692,2.692,0,0,1,.879-.892,4.016,4.016,0,0,1,1.257-.51,6.553,6.553,0,0,1,1.472-.163,8.168,8.168,0,0,1,1.213.092,9.053,9.053,0,0,1,1.213.268v2.145a4.383,4.383,0,0,0-1.129-.461,4.764,4.764,0,0,0-1.182-.154,2.619,2.619,0,0,0-.514.048,1.693,1.693,0,0,0-.426.141.783.783,0,0,0-.29.237.546.546,0,0,0-.105.33.609.609,0,0,0,.158.422,1.374,1.374,0,0,0,.413.3,4.078,4.078,0,0,0,.567.229q.312.1.62.207a8.056,8.056,0,0,1,1,.422,3.2,3.2,0,0,1,.769.536,2.105,2.105,0,0,1,.492.721,2.884,2.884,0,0,1-.176,2.351,2.78,2.78,0,0,1-.923.923,4.185,4.185,0,0,1-1.327.519,7.357,7.357,0,0,1-1.56.163A8.042,8.042,0,0,1,37.512,153.763ZM51.891,142.8a2.806,2.806,0,0,0-1.028-.211q-1.336,0-1.336,1.45V145h2.057v2.048H49.526V154H46.758v-6.952H45.246V145h1.512v-1.116a3.24,3.24,0,0,1,1-2.479,3.821,3.821,0,0,1,2.725-.94,4.785,4.785,0,0,1,1.406.176Zm5.317,11.417a4.838,4.838,0,0,1-3.538-1.261,5.216,5.216,0,0,1,.048-6.917,5.048,5.048,0,0,1,3.612-1.261,4.78,4.78,0,0,1,3.516,1.261,4.483,4.483,0,0,1,1.274,3.335,4.759,4.759,0,0,1-1.314,3.542A4.892,4.892,0,0,1,57.208,154.22Zm.07-7.312a1.852,1.852,0,0,0-1.529.677A2.984,2.984,0,0,0,55.2,149.5q0,2.593,2.092,2.593,2,0,2-2.663Q59.291,146.907,57.278,146.907Zm12.516.6a2.409,2.409,0,0,0-1.169-.272,1.684,1.684,0,0,0-1.415.664,2.9,2.9,0,0,0-.51,1.806V154H63.923v-9H66.7v1.67h.035a2.4,2.4,0,0,1,2.373-1.828,1.788,1.788,0,0,1,.686.105ZM85.43,154H82.661v-5.133q0-1.96-1.441-1.96a1.324,1.324,0,0,0-1.116.589,2.42,2.42,0,0,0-.431,1.468V154H76.9v-5.186q0-1.907-1.415-1.907a1.356,1.356,0,0,0-1.138.563A2.475,2.475,0,0,0,73.916,149v5H71.139v-9h2.777v1.406h.035a3.41,3.41,0,0,1,2.909-1.626,2.592,2.592,0,0,1,2.61,1.679,3.329,3.329,0,0,1,3.023-1.679q2.936,0,2.936,3.621Zm9.686,0H92.487v-1.292h-.035a2.933,2.933,0,0,1-2.681,1.512,2.8,2.8,0,0,1-2.061-.743,2.661,2.661,0,0,1-.751-1.982q0-2.619,3.1-3.023l2.443-.325q0-1.477-1.6-1.477a5.46,5.46,0,0,0-3.059.958v-2.092a6.881,6.881,0,0,1,1.586-.527,8.339,8.339,0,0,1,1.833-.229q3.85,0,3.85,3.841Zm-2.61-3.656v-.606l-1.635.211q-1.354.176-1.354,1.222a1.01,1.01,0,0,0,.33.778,1.266,1.266,0,0,0,.892.3,1.644,1.644,0,0,0,1.274-.541A1.952,1.952,0,0,0,92.5,150.344Zm10.679-2.839a2.409,2.409,0,0,0-1.169-.272,1.684,1.684,0,0,0-1.415.664,2.9,2.9,0,0,0-.51,1.806V154H97.313v-9h2.777v1.67h.035a2.4,2.4,0,0,1,2.373-1.828,1.788,1.788,0,0,1,.686.105Zm1.09,6.715a1.62,1.62,0,0,1-1.143-.422,1.356,1.356,0,0,1-.457-1.037,1.306,1.306,0,0,1,.47-1.037,1.736,1.736,0,0,1,1.173-.4,1.671,1.671,0,0,1,1.165.409,1.415,1.415,0,0,1-.009,2.083A1.742,1.742,0,0,1,104.273,154.22ZM12.524,181H9.431l-.9-2.8H4.052L3.164,181H.088l4.588-12.6H8.042Zm-4.641-4.983L6.53,171.78a5.52,5.52,0,0,1-.211-1.134h-.07a4.807,4.807,0,0,1-.22,1.1l-1.371,4.271Zm7.348-5.44a1.622,1.622,0,0,1-1.151-.417,1.345,1.345,0,0,1-.448-1.024,1.3,1.3,0,0,1,.448-1.02,1.88,1.88,0,0,1,2.307,0,1.3,1.3,0,0,1,.444,1.02,1.34,1.34,0,0,1-.444,1.037A1.65,1.65,0,0,1,15.231,170.576ZM16.6,180.842a4.892,4.892,0,0,1-.976,3.19,3.421,3.421,0,0,1-2.812,1.2,3.889,3.889,0,0,1-1.327-.264v-2.18a2.163,2.163,0,0,0,1.028.325q1.31,0,1.31-2.057V172H16.6Zm10.89.158H24.724v-1.371H24.68a3.141,3.141,0,0,1-2.751,1.591q-3.129,0-3.129-3.788V172h2.769v5.186q0,1.907,1.512,1.907a1.5,1.5,0,0,0,1.2-.523,2.109,2.109,0,0,0,.448-1.419V172h2.769Zm1.749-.237v-2.25a5.913,5.913,0,0,0,1.367.615,4.531,4.531,0,0,0,1.288.2,2.762,2.762,0,0,0,1.165-.2.653.653,0,0,0,.426-.615.569.569,0,0,0-.193-.439,1.8,1.8,0,0,0-.5-.308,5.635,5.635,0,0,0-.664-.237q-.36-.105-.694-.237a6.653,6.653,0,0,1-.945-.435,2.731,2.731,0,0,1-.686-.541,2.125,2.125,0,0,1-.422-.712,2.841,2.841,0,0,1-.145-.958,2.466,2.466,0,0,1,.33-1.3,2.692,2.692,0,0,1,.879-.892,4.016,4.016,0,0,1,1.257-.51,6.553,6.553,0,0,1,1.472-.163,8.168,8.168,0,0,1,1.213.092,9.053,9.053,0,0,1,1.213.268v2.145a4.383,4.383,0,0,0-1.129-.461,4.764,4.764,0,0,0-1.182-.154,2.619,2.619,0,0,0-.514.048,1.693,1.693,0,0,0-.426.141.783.783,0,0,0-.29.237.546.546,0,0,0-.105.33.609.609,0,0,0,.158.422,1.374,1.374,0,0,0,.413.3,4.078,4.078,0,0,0,.567.229q.312.1.62.207a8.056,8.056,0,0,1,1,.422,3.2,3.2,0,0,1,.769.536,2.105,2.105,0,0,1,.492.721,2.884,2.884,0,0,1-.176,2.351,2.78,2.78,0,0,1-.923.923,4.185,4.185,0,0,1-1.327.519,7.357,7.357,0,0,1-1.56.163A8.042,8.042,0,0,1,29.241,180.763Zm13.948.132a4.105,4.105,0,0,1-1.854.325q-2.936,0-2.936-3.05v-4.122H36.94V172H38.4v-1.942l2.769-.791V172h2.021v2.048H41.168v3.639q0,1.406,1.116,1.406a1.882,1.882,0,0,0,.905-.255Zm9.053.105H49.614v-1.292h-.035A2.933,2.933,0,0,1,46.9,181.22a2.8,2.8,0,0,1-2.061-.743,2.661,2.661,0,0,1-.751-1.982q0-2.619,3.1-3.023l2.443-.325q0-1.477-1.6-1.477a5.46,5.46,0,0,0-3.059.958v-2.092a6.881,6.881,0,0,1,1.586-.527,8.339,8.339,0,0,1,1.833-.229q3.85,0,3.85,3.841Zm-2.61-3.656v-.606L48,176.948q-1.354.176-1.354,1.222a1.01,1.01,0,0,0,.33.778,1.266,1.266,0,0,0,.892.3,1.644,1.644,0,0,0,1.274-.541A1.952,1.952,0,0,0,49.632,177.344ZM60.311,174.5a2.409,2.409,0,0,0-1.169-.272,1.684,1.684,0,0,0-1.415.664,2.9,2.9,0,0,0-.51,1.806V181H54.439v-9h2.777v1.67h.035a2.4,2.4,0,0,1,2.373-1.828,1.788,1.788,0,0,1,.686.105Zm1.09,6.715a1.62,1.62,0,0,1-1.143-.422,1.356,1.356,0,0,1-.457-1.037,1.306,1.306,0,0,1,.47-1.037,1.736,1.736,0,0,1,1.173-.4,1.671,1.671,0,0,1,1.165.409,1.415,1.415,0,0,1-.009,2.083A1.742,1.742,0,0,1,61.4,181.22ZM10.477,207.552a8.311,8.311,0,0,1-3.6.668,6.074,6.074,0,0,1-4.562-1.705A6.233,6.233,0,0,1,.65,201.971a6.659,6.659,0,0,1,1.868-4.9,6.533,6.533,0,0,1,4.847-1.881,9.065,9.065,0,0,1,3.111.466v2.733a5.513,5.513,0,0,0-2.883-.756,3.824,3.824,0,0,0-2.865,1.116,4.142,4.142,0,0,0-1.09,3.023,4.062,4.062,0,0,0,1.028,2.914,3.633,3.633,0,0,0,2.769,1.085,5.905,5.905,0,0,0,3.041-.809Zm6.214.668a4.838,4.838,0,0,1-3.538-1.261,5.216,5.216,0,0,1,.048-6.917,5.048,5.048,0,0,1,3.612-1.261,4.78,4.78,0,0,1,3.516,1.261,4.483,4.483,0,0,1,1.274,3.335,4.759,4.759,0,0,1-1.314,3.542A4.892,4.892,0,0,1,16.69,208.22Zm.07-7.312a1.852,1.852,0,0,0-1.529.677,2.984,2.984,0,0,0-.545,1.916q0,2.593,2.092,2.593,2,0,2-2.663Q18.773,200.907,16.761,200.907ZM32.1,208H29.329v-5q0-2.092-1.494-2.092a1.483,1.483,0,0,0-1.187.554,2.109,2.109,0,0,0-.466,1.406V208H23.405v-9h2.777v1.424h.035a3.183,3.183,0,0,1,2.892-1.644q2.988,0,2.988,3.709Zm7.638-.105a4.105,4.105,0,0,1-1.854.325q-2.936,0-2.936-3.05v-4.122H33.486V199h1.459v-1.942l2.769-.791V199h2.021v2.048H37.714v3.639q0,1.406,1.116,1.406a1.882,1.882,0,0,0,.905-.255Zm7.436-6.39A2.409,2.409,0,0,0,46,201.232a1.684,1.684,0,0,0-1.415.664,2.9,2.9,0,0,0-.51,1.806V208H41.3v-9h2.777v1.67h.035a2.4,2.4,0,0,1,2.373-1.828,1.788,1.788,0,0,1,.686.105Zm5.511,6.715a4.838,4.838,0,0,1-3.538-1.261,5.216,5.216,0,0,1,.048-6.917A5.048,5.048,0,0,1,52.8,198.78a4.78,4.78,0,0,1,3.516,1.261,4.483,4.483,0,0,1,1.274,3.335,4.759,4.759,0,0,1-1.314,3.542A4.892,4.892,0,0,1,52.682,208.22Zm.07-7.312a1.852,1.852,0,0,0-1.529.677,2.984,2.984,0,0,0-.545,1.916q0,2.593,2.092,2.593,2,0,2-2.663Q54.765,200.907,52.752,200.907ZM62.174,208H59.4V194.676h2.777ZM72,208H69.372v-1.292h-.035a2.933,2.933,0,0,1-2.681,1.512,2.8,2.8,0,0,1-2.061-.743,2.661,2.661,0,0,1-.751-1.982q0-2.619,3.1-3.023l2.443-.325q0-1.477-1.6-1.477a5.46,5.46,0,0,0-3.059.958v-2.092a6.881,6.881,0,0,1,1.586-.527,8.339,8.339,0,0,1,1.833-.229q3.85,0,3.85,3.841Zm-2.61-3.656v-.606l-1.635.211q-1.354.176-1.354,1.222a1.01,1.01,0,0,0,.33.778,1.266,1.266,0,0,0,.892.3,1.644,1.644,0,0,0,1.274-.541A1.952,1.952,0,0,0,69.39,204.344ZM80.068,201.5a2.409,2.409,0,0,0-1.169-.272,1.684,1.684,0,0,0-1.415.664,2.9,2.9,0,0,0-.51,1.806V208H74.2v-9h2.777v1.67h.035a2.4,2.4,0,0,1,2.373-1.828,1.788,1.788,0,0,1,.686.105Zm1.09,6.715a1.62,1.62,0,0,1-1.143-.422,1.356,1.356,0,0,1-.457-1.037,1.306,1.306,0,0,1,.47-1.037,1.736,1.736,0,0,1,1.173-.4,1.671,1.671,0,0,1,1.165.409,1.415,1.415,0,0,1-.009,2.083A1.742,1.742,0,0,1,81.158,208.22ZM15.8,235H13v-7.541q0-1.222.105-2.7h-.07a13.277,13.277,0,0,1-.4,1.67L9.686,235H7.365l-3.006-8.481a16.5,16.5,0,0,1-.4-1.758H3.885Q4,226.624,4,228.03V235H1.441V222.4H5.6l2.575,7.471a10.519,10.519,0,0,1,.448,1.8h.053a18.142,18.142,0,0,1,.5-1.819l2.575-7.453H15.8Zm6.882.22a4.838,4.838,0,0,1-3.538-1.261,5.216,5.216,0,0,1,.048-6.917,5.048,5.048,0,0,1,3.612-1.261,4.78,4.78,0,0,1,3.516,1.261,4.483,4.483,0,0,1,1.274,3.335,4.759,4.759,0,0,1-1.314,3.542A4.892,4.892,0,0,1,22.685,235.22Zm.07-7.312a1.852,1.852,0,0,0-1.529.677,2.984,2.984,0,0,0-.545,1.916q0,2.593,2.092,2.593,2,0,2-2.663Q24.768,227.907,22.755,227.907ZM38.206,235H35.429v-1.239h-.035a3.114,3.114,0,0,1-2.786,1.459,3.412,3.412,0,0,1-2.716-1.191,4.93,4.93,0,0,1-1.028-3.327A5.366,5.366,0,0,1,30,227.125a3.7,3.7,0,0,1,2.971-1.345,2.527,2.527,0,0,1,2.426,1.248h.035v-5.353h2.777Zm-2.725-4.377v-.677a2.13,2.13,0,0,0-.51-1.459,1.8,1.8,0,0,0-2.769.145,3.367,3.367,0,0,0-.519,1.991,2.914,2.914,0,0,0,.5,1.828,1.779,1.779,0,0,0,2.764-.035A2.821,2.821,0,0,0,35.481,230.623Zm6.469-6.047a1.622,1.622,0,0,1-1.151-.417,1.345,1.345,0,0,1-.448-1.024,1.3,1.3,0,0,1,.448-1.02,1.88,1.88,0,0,1,2.307,0,1.3,1.3,0,0,1,.444,1.02,1.34,1.34,0,0,1-.444,1.037A1.65,1.65,0,0,1,41.95,224.576ZM43.321,235H40.544v-9h2.777Zm8.209-11.2a2.806,2.806,0,0,0-1.028-.211q-1.336,0-1.336,1.45V226h2.057v2.048H49.166V235H46.4v-6.952H44.886V226H46.4v-1.116a3.24,3.24,0,0,1,1-2.479,3.821,3.821,0,0,1,2.725-.94,4.785,4.785,0,0,1,1.406.176Zm2.435.773a1.622,1.622,0,0,1-1.151-.417,1.345,1.345,0,0,1-.448-1.024,1.3,1.3,0,0,1,.448-1.02,1.88,1.88,0,0,1,2.307,0,1.3,1.3,0,0,1,.444,1.02,1.34,1.34,0,0,1-.444,1.037A1.65,1.65,0,0,1,53.965,224.576ZM55.336,235H52.559v-9h2.777Zm9.158-.325a5.492,5.492,0,0,1-2.716.545,4.593,4.593,0,0,1-3.357-1.257,4.341,4.341,0,0,1-1.283-3.243,4.782,4.782,0,0,1,1.375-3.617,5.083,5.083,0,0,1,3.678-1.323,4.72,4.72,0,0,1,2.3.422v2.355a3.166,3.166,0,0,0-1.942-.65,2.559,2.559,0,0,0-1.894.7,2.607,2.607,0,0,0-.7,1.929,2.565,2.565,0,0,0,.668,1.876,2.455,2.455,0,0,0,1.837.681,3.666,3.666,0,0,0,2.03-.65ZM73.8,235H71.174v-1.292h-.035a2.933,2.933,0,0,1-2.681,1.512,2.8,2.8,0,0,1-2.061-.743,2.661,2.661,0,0,1-.751-1.982q0-2.619,3.1-3.023l2.443-.325q0-1.477-1.6-1.477a5.46,5.46,0,0,0-3.059.958v-2.092a6.881,6.881,0,0,1,1.586-.527,8.339,8.339,0,0,1,1.833-.229q3.85,0,3.85,3.841Zm-2.61-3.656v-.606l-1.635.211q-1.354.176-1.354,1.222a1.01,1.01,0,0,0,.33.778,1.266,1.266,0,0,0,.892.3,1.644,1.644,0,0,0,1.274-.541A1.952,1.952,0,0,0,71.191,231.344ZM81.87,228.5a2.409,2.409,0,0,0-1.169-.272,1.684,1.684,0,0,0-1.415.664,2.9,2.9,0,0,0-.51,1.806V235H76v-9h2.777v1.67h.035a2.4,2.4,0,0,1,2.373-1.828,1.788,1.788,0,0,1,.686.105Zm1.09,6.715a1.62,1.62,0,0,1-1.143-.422,1.356,1.356,0,0,1-.457-1.037,1.306,1.306,0,0,1,.47-1.037,1.736,1.736,0,0,1,1.173-.4,1.671,1.671,0,0,1,1.165.409,1.415,1.415,0,0,1-.009,2.083A1.742,1.742,0,0,1,82.96,235.22Z" transform="translate(521 8019.928)" fill="#212429"/>
    <path id="Trazado_1040058" data-name="Trazado 1040058" d="M4.28,19H1.441V6.4H4.28Zm11.4,0H12.9V17.761h-.035a3.114,3.114,0,0,1-2.786,1.459,3.412,3.412,0,0,1-2.716-1.191A4.93,4.93,0,0,1,6.337,14.7a5.366,5.366,0,0,1,1.134-3.577A3.7,3.7,0,0,1,10.441,9.78a2.527,2.527,0,0,1,2.426,1.248H12.9V5.676H15.68Zm-2.725-4.377v-.677a2.13,2.13,0,0,0-.51-1.459,1.683,1.683,0,0,0-1.327-.58,1.673,1.673,0,0,0-1.441.725,3.367,3.367,0,0,0-.519,1.991,2.914,2.914,0,0,0,.5,1.828,1.779,1.779,0,0,0,2.764-.035A2.821,2.821,0,0,0,12.955,14.623Zm13.148.668H20.232q.141,1.96,2.47,1.96a4.822,4.822,0,0,0,2.61-.7v2a6.858,6.858,0,0,1-3.243.668,4.565,4.565,0,0,1-3.384-1.208,4.566,4.566,0,0,1-1.2-3.371,4.816,4.816,0,0,1,1.3-3.551,4.334,4.334,0,0,1,3.2-1.31,3.933,3.933,0,0,1,3.045,1.169A4.5,4.5,0,0,1,26.1,14.122Zm-2.575-1.705q0-1.934-1.564-1.934a1.494,1.494,0,0,0-1.156.554,2.513,2.513,0,0,0-.593,1.38ZM36.448,19H33.68V14q0-2.092-1.494-2.092A1.483,1.483,0,0,0,31,12.461a2.109,2.109,0,0,0-.466,1.406V19H27.756V10h2.777v1.424h.035A3.183,3.183,0,0,1,33.46,9.78q2.988,0,2.988,3.709Zm7.638-.105a4.105,4.105,0,0,1-1.854.325q-2.936,0-2.936-3.05V12.048H37.837V10H39.3V8.058l2.769-.791V10h2.021v2.048H42.064v3.639q0,1.406,1.116,1.406a1.882,1.882,0,0,0,.905-.255ZM47.057,8.576a1.622,1.622,0,0,1-1.151-.417,1.345,1.345,0,0,1-.448-1.024,1.3,1.3,0,0,1,.448-1.02,1.88,1.88,0,0,1,2.307,0,1.3,1.3,0,0,1,.444,1.02,1.34,1.34,0,0,1-.444,1.037A1.65,1.65,0,0,1,47.057,8.576ZM48.428,19H45.65V10h2.777ZM56.637,7.8a2.806,2.806,0,0,0-1.028-.211q-1.336,0-1.336,1.45V10h2.057v2.048H54.272V19H51.5V12.048H49.992V10H51.5V8.884a3.24,3.24,0,0,1,1-2.479,3.821,3.821,0,0,1,2.725-.94,4.785,4.785,0,0,1,1.406.176Zm2.435.773a1.622,1.622,0,0,1-1.151-.417,1.345,1.345,0,0,1-.448-1.024,1.3,1.3,0,0,1,.448-1.02,1.88,1.88,0,0,1,2.307,0,1.3,1.3,0,0,1,.444,1.02,1.34,1.34,0,0,1-.444,1.037A1.65,1.65,0,0,1,59.071,8.576ZM60.442,19H57.665V10h2.777Zm9.158-.325a5.492,5.492,0,0,1-2.716.545,4.593,4.593,0,0,1-3.357-1.257,4.341,4.341,0,0,1-1.283-3.243A4.782,4.782,0,0,1,63.62,11.1,5.083,5.083,0,0,1,67.3,9.78a4.72,4.72,0,0,1,2.3.422v2.355a3.166,3.166,0,0,0-1.942-.65,2.559,2.559,0,0,0-1.894.7,2.607,2.607,0,0,0-.7,1.929,2.565,2.565,0,0,0,.668,1.876,2.455,2.455,0,0,0,1.837.681,3.666,3.666,0,0,0,2.03-.65ZM78.908,19H76.28V17.708h-.035a2.933,2.933,0,0,1-2.681,1.512,2.8,2.8,0,0,1-2.061-.743,2.661,2.661,0,0,1-.751-1.982q0-2.619,3.1-3.023l2.443-.325q0-1.477-1.6-1.477a5.46,5.46,0,0,0-3.059.958V10.536a6.881,6.881,0,0,1,1.586-.527,8.339,8.339,0,0,1,1.833-.229q3.85,0,3.85,3.841ZM76.3,15.344v-.606l-1.635.211q-1.354.176-1.354,1.222a1.01,1.01,0,0,0,.33.778,1.266,1.266,0,0,0,.892.3,1.644,1.644,0,0,0,1.274-.541A1.952,1.952,0,0,0,76.3,15.344ZM86.977,12.5a2.409,2.409,0,0,0-1.169-.272,1.684,1.684,0,0,0-1.415.664,2.9,2.9,0,0,0-.51,1.806V19H81.105V10h2.777v1.67h.035a2.4,2.4,0,0,1,2.373-1.828,1.788,1.788,0,0,1,.686.105Zm1.09,6.715a1.62,1.62,0,0,1-1.143-.422,1.356,1.356,0,0,1-.457-1.037,1.306,1.306,0,0,1,.47-1.037,1.736,1.736,0,0,1,1.173-.4,1.671,1.671,0,0,1,1.165.409,1.415,1.415,0,0,1-.009,2.083A1.742,1.742,0,0,1,88.066,19.22ZM12.524,46H9.431l-.9-2.8H4.052L3.164,46H.088L4.676,33.4H8.042ZM7.884,41.017,6.53,36.78a5.52,5.52,0,0,1-.211-1.134h-.07a4.807,4.807,0,0,1-.22,1.1L4.658,41.017ZM22.518,46H19.749V41q0-2.092-1.494-2.092a1.483,1.483,0,0,0-1.187.554,2.109,2.109,0,0,0-.466,1.406V46H13.825V37H16.6v1.424h.035a3.183,3.183,0,0,1,2.892-1.644q2.988,0,2.988,3.709ZM32.2,46H29.575V44.708H29.54a2.933,2.933,0,0,1-2.681,1.512,2.8,2.8,0,0,1-2.061-.743,2.661,2.661,0,0,1-.751-1.982q0-2.619,3.1-3.023l2.443-.325q0-1.477-1.6-1.477a5.46,5.46,0,0,0-3.059.958V37.536a6.881,6.881,0,0,1,1.586-.527,8.339,8.339,0,0,1,1.833-.229q3.85,0,3.85,3.841Zm-2.61-3.656v-.606l-1.635.211Q26.6,42.124,26.6,43.17a1.01,1.01,0,0,0,.33.778,1.266,1.266,0,0,0,.892.3A1.644,1.644,0,0,0,29.1,43.71,1.952,1.952,0,0,0,29.593,42.344ZM37.178,46H34.4V32.676h2.777Zm3.744-10.424a1.622,1.622,0,0,1-1.151-.417,1.345,1.345,0,0,1-.448-1.024,1.3,1.3,0,0,1,.448-1.02,1.88,1.88,0,0,1,2.307,0,1.3,1.3,0,0,1,.444,1.02,1.34,1.34,0,0,1-.444,1.037A1.65,1.65,0,0,1,40.922,35.576ZM42.293,46H39.516V37h2.777Zm9.466,0H43.682V44.849l4.518-5.8H44.13V37h7.594v1.371l-4.28,5.581h4.315Zm8.982,0H58.113V44.708h-.035A2.933,2.933,0,0,1,55.4,46.22a2.8,2.8,0,0,1-2.061-.743,2.661,2.661,0,0,1-.751-1.982q0-2.619,3.1-3.023l2.443-.325q0-1.477-1.6-1.477a5.46,5.46,0,0,0-3.059.958V37.536a6.881,6.881,0,0,1,1.586-.527,8.339,8.339,0,0,1,1.833-.229q3.85,0,3.85,3.841Zm-2.61-3.656v-.606l-1.635.211q-1.354.176-1.354,1.222a1.01,1.01,0,0,0,.33.778,1.266,1.266,0,0,0,.892.3,1.644,1.644,0,0,0,1.274-.541A1.952,1.952,0,0,0,58.131,42.344ZM68.81,39.5a2.409,2.409,0,0,0-1.169-.272,1.684,1.684,0,0,0-1.415.664,2.9,2.9,0,0,0-.51,1.806V46H62.938V37h2.777v1.67h.035a2.4,2.4,0,0,1,2.373-1.828,1.788,1.788,0,0,1,.686.105ZM69.9,46.22a1.62,1.62,0,0,1-1.143-.422,1.356,1.356,0,0,1-.457-1.037,1.306,1.306,0,0,1,.47-1.037,1.736,1.736,0,0,1,1.173-.4,1.671,1.671,0,0,1,1.165.409,1.415,1.415,0,0,1-.009,2.083A1.742,1.742,0,0,1,69.9,46.22ZM10.477,72.552a8.311,8.311,0,0,1-3.6.668,6.074,6.074,0,0,1-4.562-1.705A6.233,6.233,0,0,1,.65,66.971a6.659,6.659,0,0,1,1.868-4.9,6.533,6.533,0,0,1,4.847-1.881,9.065,9.065,0,0,1,3.111.466v2.733a5.513,5.513,0,0,0-2.883-.756,3.824,3.824,0,0,0-2.865,1.116,4.142,4.142,0,0,0-1.09,3.023,4.062,4.062,0,0,0,1.028,2.914,3.633,3.633,0,0,0,2.769,1.085,5.905,5.905,0,0,0,3.041-.809Zm7.8-6.047a2.409,2.409,0,0,0-1.169-.272,1.684,1.684,0,0,0-1.415.664,2.9,2.9,0,0,0-.51,1.806V73H12.4V64h2.777v1.67h.035a2.4,2.4,0,0,1,2.373-1.828,1.788,1.788,0,0,1,.686.105Zm9.308,2.786H21.709q.141,1.96,2.47,1.96a4.822,4.822,0,0,0,2.61-.7v2a6.858,6.858,0,0,1-3.243.668,4.565,4.565,0,0,1-3.384-1.208,4.566,4.566,0,0,1-1.2-3.371,4.816,4.816,0,0,1,1.3-3.551,4.334,4.334,0,0,1,3.2-1.31A3.933,3.933,0,0,1,26.5,64.949a4.5,4.5,0,0,1,1.077,3.173ZM25,67.586q0-1.934-1.564-1.934a1.494,1.494,0,0,0-1.156.554,2.513,2.513,0,0,0-.593,1.38ZM36.721,73H34.093V71.708h-.035a2.933,2.933,0,0,1-2.681,1.512,2.8,2.8,0,0,1-2.061-.743,2.661,2.661,0,0,1-.751-1.982q0-2.619,3.1-3.023l2.443-.325q0-1.477-1.6-1.477a5.46,5.46,0,0,0-3.059.958V64.536a6.881,6.881,0,0,1,1.586-.527,8.339,8.339,0,0,1,1.833-.229q3.85,0,3.85,3.841Zm-2.61-3.656v-.606l-1.635.211q-1.354.176-1.354,1.222a1.01,1.01,0,0,0,.33.778,1.266,1.266,0,0,0,.892.3,1.644,1.644,0,0,0,1.274-.541A1.952,1.952,0,0,0,34.11,69.344ZM44.789,66.5a2.409,2.409,0,0,0-1.169-.272,1.684,1.684,0,0,0-1.415.664A2.9,2.9,0,0,0,41.7,68.7V73H38.918V64H41.7v1.67h.035A2.4,2.4,0,0,1,44.1,63.842a1.788,1.788,0,0,1,.686.105Zm1.09,6.715a1.62,1.62,0,0,1-1.143-.422,1.356,1.356,0,0,1-.457-1.037,1.306,1.306,0,0,1,.47-1.037,1.736,1.736,0,0,1,1.173-.4,1.671,1.671,0,0,1,1.165.409,1.415,1.415,0,0,1-.009,2.083A1.742,1.742,0,0,1,45.879,73.22ZM15.8,100H13V92.459q0-1.222.105-2.7h-.07a13.277,13.277,0,0,1-.4,1.67L9.686,100H7.365L4.359,91.519a16.5,16.5,0,0,1-.4-1.758H3.885Q4,91.624,4,93.03V100H1.441V87.4H5.6l2.575,7.471a10.519,10.519,0,0,1,.448,1.8h.053a18.142,18.142,0,0,1,.5-1.819L11.751,87.4H15.8Zm6.882.22a4.838,4.838,0,0,1-3.538-1.261,5.216,5.216,0,0,1,.048-6.917,5.048,5.048,0,0,1,3.612-1.261,4.78,4.78,0,0,1,3.516,1.261A4.483,4.483,0,0,1,27.6,95.377a4.759,4.759,0,0,1-1.314,3.542A4.892,4.892,0,0,1,22.685,100.22Zm.07-7.312a1.852,1.852,0,0,0-1.529.677,2.984,2.984,0,0,0-.545,1.916q0,2.593,2.092,2.593,2,0,2-2.663Q24.768,92.907,22.755,92.907ZM38.206,100H35.429V98.761h-.035a3.114,3.114,0,0,1-2.786,1.459,3.412,3.412,0,0,1-2.716-1.191A4.93,4.93,0,0,1,28.863,95.7,5.366,5.366,0,0,1,30,92.125a3.7,3.7,0,0,1,2.971-1.345,2.527,2.527,0,0,1,2.426,1.248h.035V86.676h2.777Zm-2.725-4.377v-.677a2.13,2.13,0,0,0-.51-1.459,1.8,1.8,0,0,0-2.769.145,3.367,3.367,0,0,0-.519,1.991,2.914,2.914,0,0,0,.5,1.828,1.779,1.779,0,0,0,2.764-.035A2.821,2.821,0,0,0,35.481,95.623Zm6.469-6.047a1.622,1.622,0,0,1-1.151-.417,1.345,1.345,0,0,1-.448-1.024,1.3,1.3,0,0,1,.448-1.02,1.88,1.88,0,0,1,2.307,0,1.3,1.3,0,0,1,.444,1.02,1.34,1.34,0,0,1-.444,1.037A1.65,1.65,0,0,1,41.95,89.576ZM43.321,100H40.544V91h2.777ZM51.53,88.8a2.806,2.806,0,0,0-1.028-.211q-1.336,0-1.336,1.45V91h2.057v2.048H49.166V100H46.4V93.048H44.886V91H46.4V89.884a3.24,3.24,0,0,1,1-2.479,3.821,3.821,0,0,1,2.725-.94,4.785,4.785,0,0,1,1.406.176Zm2.435.773a1.622,1.622,0,0,1-1.151-.417,1.345,1.345,0,0,1-.448-1.024,1.3,1.3,0,0,1,.448-1.02,1.88,1.88,0,0,1,2.307,0,1.3,1.3,0,0,1,.444,1.02,1.34,1.34,0,0,1-.444,1.037A1.65,1.65,0,0,1,53.965,89.576ZM55.336,100H52.559V91h2.777Zm9.158-.325a5.492,5.492,0,0,1-2.716.545,4.593,4.593,0,0,1-3.357-1.257,4.341,4.341,0,0,1-1.283-3.243A4.782,4.782,0,0,1,58.513,92.1a5.083,5.083,0,0,1,3.678-1.323,4.72,4.72,0,0,1,2.3.422v2.355a3.166,3.166,0,0,0-1.942-.65,2.559,2.559,0,0,0-1.894.7,2.607,2.607,0,0,0-.7,1.929,2.565,2.565,0,0,0,.668,1.876,2.455,2.455,0,0,0,1.837.681,3.666,3.666,0,0,0,2.03-.65ZM73.8,100H71.174V98.708h-.035a2.933,2.933,0,0,1-2.681,1.512,2.8,2.8,0,0,1-2.061-.743,2.661,2.661,0,0,1-.751-1.982q0-2.619,3.1-3.023l2.443-.325q0-1.477-1.6-1.477a5.46,5.46,0,0,0-3.059.958V91.536a6.881,6.881,0,0,1,1.586-.527,8.339,8.339,0,0,1,1.833-.229q3.85,0,3.85,3.841Zm-2.61-3.656v-.606l-1.635.211Q68.2,96.124,68.2,97.17a1.01,1.01,0,0,0,.33.778,1.266,1.266,0,0,0,.892.3A1.644,1.644,0,0,0,70.7,97.71,1.952,1.952,0,0,0,71.191,96.344ZM81.87,93.5a2.409,2.409,0,0,0-1.169-.272,1.684,1.684,0,0,0-1.415.664,2.9,2.9,0,0,0-.51,1.806V100H76V91h2.777v1.67h.035a2.4,2.4,0,0,1,2.373-1.828,1.788,1.788,0,0,1,.686.105Zm1.09,6.715a1.62,1.62,0,0,1-1.143-.422,1.356,1.356,0,0,1-.457-1.037,1.306,1.306,0,0,1,.47-1.037,1.736,1.736,0,0,1,1.173-.4,1.671,1.671,0,0,1,1.165.409,1.415,1.415,0,0,1-.009,2.083A1.742,1.742,0,0,1,82.96,100.22ZM15.8,127H13v-7.541q0-1.222.105-2.7h-.07a13.277,13.277,0,0,1-.4,1.67L9.686,127H7.365l-3.006-8.481a16.5,16.5,0,0,1-.4-1.758H3.885Q4,118.624,4,120.03V127H1.441V114.4H5.6l2.575,7.471a10.519,10.519,0,0,1,.448,1.8h.053a18.142,18.142,0,0,1,.5-1.819l2.575-7.453H15.8Zm10.081,0H23.256v-1.292h-.035a2.933,2.933,0,0,1-2.681,1.512,2.8,2.8,0,0,1-2.061-.743,2.661,2.661,0,0,1-.751-1.982q0-2.619,3.1-3.023l2.443-.325q0-1.477-1.6-1.477a5.46,5.46,0,0,0-3.059.958v-2.092a6.881,6.881,0,0,1,1.586-.527,8.339,8.339,0,0,1,1.833-.229q3.85,0,3.85,3.841Zm-2.61-3.656v-.606l-1.635.211q-1.354.176-1.354,1.222a1.01,1.01,0,0,0,.33.778,1.266,1.266,0,0,0,.892.3,1.644,1.644,0,0,0,1.274-.541A1.952,1.952,0,0,0,23.273,123.344ZM36.773,118,33.8,122.359,36.756,127h-3.2l-1.3-2.426q-.158-.29-.378-.817h-.035a5.707,5.707,0,0,1-.36.791L30.173,127h-3.19l3.041-4.482L27.167,118h3.217l1.283,2.522a5.532,5.532,0,0,1,.36.844h.035a5.946,5.946,0,0,1,.378-.861l1.31-2.5Zm2.654-1.424a1.622,1.622,0,0,1-1.151-.417,1.345,1.345,0,0,1-.448-1.024,1.3,1.3,0,0,1,.448-1.02,1.88,1.88,0,0,1,2.307,0,1.3,1.3,0,0,1,.444,1.02,1.34,1.34,0,0,1-.444,1.037A1.65,1.65,0,0,1,39.428,116.576ZM40.8,127H38.021v-9H40.8Zm16.629,0H54.659v-5.133q0-1.96-1.441-1.96a1.324,1.324,0,0,0-1.116.589,2.42,2.42,0,0,0-.431,1.468V127H48.894v-5.186q0-1.907-1.415-1.907a1.356,1.356,0,0,0-1.138.563A2.475,2.475,0,0,0,45.914,122v5H43.137v-9h2.777v1.406h.035a3.41,3.41,0,0,1,2.909-1.626,2.592,2.592,0,0,1,2.61,1.679,3.329,3.329,0,0,1,3.023-1.679q2.936,0,2.936,3.621Zm3.6-10.424a1.622,1.622,0,0,1-1.151-.417,1.345,1.345,0,0,1-.448-1.024,1.3,1.3,0,0,1,.448-1.02,1.88,1.88,0,0,1,2.307,0,1.3,1.3,0,0,1,.444,1.02,1.34,1.34,0,0,1-.444,1.037A1.65,1.65,0,0,1,61.031,116.576ZM62.4,127H59.625v-9H62.4Zm9.466,0H63.791v-1.151l4.518-5.8H64.239V118h7.594v1.371l-4.28,5.581h4.315Zm8.982,0H78.223v-1.292h-.035a2.933,2.933,0,0,1-2.681,1.512,2.8,2.8,0,0,1-2.061-.743,2.661,2.661,0,0,1-.751-1.982q0-2.619,3.1-3.023l2.443-.325q0-1.477-1.6-1.477a5.46,5.46,0,0,0-3.059.958v-2.092a6.881,6.881,0,0,1,1.586-.527A8.339,8.339,0,0,1,77,117.78q3.85,0,3.85,3.841Zm-2.61-3.656v-.606l-1.635.211q-1.354.176-1.354,1.222a1.01,1.01,0,0,0,.33.778,1.266,1.266,0,0,0,.892.3,1.644,1.644,0,0,0,1.274-.541A1.952,1.952,0,0,0,78.24,123.344ZM88.919,120.5a2.409,2.409,0,0,0-1.169-.272,1.684,1.684,0,0,0-1.415.664,2.9,2.9,0,0,0-.51,1.806V127H83.048v-9h2.777v1.67h.035a2.4,2.4,0,0,1,2.373-1.828,1.788,1.788,0,0,1,.686.105Zm1.09,6.715a1.62,1.62,0,0,1-1.143-.422,1.356,1.356,0,0,1-.457-1.037,1.306,1.306,0,0,1,.47-1.037,1.736,1.736,0,0,1,1.173-.4,1.671,1.671,0,0,1,1.165.409,1.415,1.415,0,0,1-.009,2.083A1.742,1.742,0,0,1,90.009,127.22ZM12.524,154H9.431l-.9-2.8H4.052L3.164,154H.088l4.588-12.6H8.042Zm-4.641-4.983L6.53,144.78a5.52,5.52,0,0,1-.211-1.134h-.07a4.807,4.807,0,0,1-.22,1.1l-1.371,4.271Zm8.754,3.938H16.6v5.186H13.825V145H16.6v1.354h.035a3.265,3.265,0,0,1,2.892-1.573,3.253,3.253,0,0,1,2.7,1.2,5.108,5.108,0,0,1,.954,3.265,5.537,5.537,0,0,1-1.112,3.612,3.625,3.625,0,0,1-2.958,1.362A2.8,2.8,0,0,1,16.638,152.954Zm-.079-3.691v.721a2.291,2.291,0,0,0,.492,1.521,1.6,1.6,0,0,0,1.292.589,1.7,1.7,0,0,0,1.472-.734,3.543,3.543,0,0,0,.523-2.079q0-2.373-1.846-2.373a1.733,1.733,0,0,0-1.393.646A2.576,2.576,0,0,0,16.559,149.263Zm14.3-1.758a2.409,2.409,0,0,0-1.169-.272,1.684,1.684,0,0,0-1.415.664,2.9,2.9,0,0,0-.51,1.806V154H24.987v-9h2.777v1.67H27.8a2.4,2.4,0,0,1,2.373-1.828,1.788,1.788,0,0,1,.686.105Zm5.511,6.715a4.838,4.838,0,0,1-3.538-1.261,5.216,5.216,0,0,1,.048-6.917,5.048,5.048,0,0,1,3.612-1.261,4.78,4.78,0,0,1,3.516,1.261,4.483,4.483,0,0,1,1.274,3.335,4.759,4.759,0,0,1-1.314,3.542A4.892,4.892,0,0,1,36.369,154.22Zm.07-7.312a1.852,1.852,0,0,0-1.529.677,2.984,2.984,0,0,0-.545,1.916q0,2.593,2.092,2.593,2,0,2-2.663Q38.452,146.907,36.439,146.907ZM51.653,145,48.3,154H45.141l-3.19-9h2.971l1.564,5.546a8.1,8.1,0,0,1,.308,1.6h.035a9.078,9.078,0,0,1,.325-1.547l1.6-5.6Zm9.1,5.291H54.879q.141,1.96,2.47,1.96a4.822,4.822,0,0,0,2.61-.7v2a6.858,6.858,0,0,1-3.243.668,4.189,4.189,0,0,1-4.588-4.579,4.816,4.816,0,0,1,1.3-3.551,4.334,4.334,0,0,1,3.2-1.31,3.933,3.933,0,0,1,3.045,1.169,4.5,4.5,0,0,1,1.077,3.173Zm-2.575-1.705q0-1.934-1.564-1.934a1.494,1.494,0,0,0-1.156.554,2.513,2.513,0,0,0-.593,1.38Zm11.048,5.089a5.492,5.492,0,0,1-2.716.545,4.593,4.593,0,0,1-3.357-1.257,4.341,4.341,0,0,1-1.283-3.243,4.782,4.782,0,0,1,1.375-3.617,5.083,5.083,0,0,1,3.678-1.323,4.72,4.72,0,0,1,2.3.422v2.355a3.166,3.166,0,0,0-1.942-.65,2.559,2.559,0,0,0-1.894.7,2.607,2.607,0,0,0-.7,1.929,2.565,2.565,0,0,0,.668,1.876,2.455,2.455,0,0,0,1.837.681,3.666,3.666,0,0,0,2.03-.65ZM79.682,154H76.913v-5.115q0-1.978-1.441-1.978a1.476,1.476,0,0,0-1.2.554,2.136,2.136,0,0,0-.457,1.406V154H71.042V140.676h2.777v5.66h.035a3.156,3.156,0,0,1,2.769-1.556q3.059,0,3.059,3.691Zm9.686,0H86.739v-1.292H86.7a2.933,2.933,0,0,1-2.681,1.512,2.8,2.8,0,0,1-2.061-.743,2.661,2.661,0,0,1-.751-1.982q0-2.619,3.1-3.023l2.443-.325q0-1.477-1.6-1.477a5.46,5.46,0,0,0-3.059.958v-2.092a6.881,6.881,0,0,1,1.586-.527,8.339,8.339,0,0,1,1.833-.229q3.85,0,3.85,3.841Zm-2.61-3.656v-.606l-1.635.211q-1.354.176-1.354,1.222a1.01,1.01,0,0,0,.33.778,1.266,1.266,0,0,0,.892.3,1.644,1.644,0,0,0,1.274-.541A1.952,1.952,0,0,0,86.757,150.344ZM97.436,147.5a2.409,2.409,0,0,0-1.169-.272,1.684,1.684,0,0,0-1.415.664,2.9,2.9,0,0,0-.51,1.806V154H91.564v-9h2.777v1.67h.035a2.4,2.4,0,0,1,2.373-1.828,1.788,1.788,0,0,1,.686.105Zm1.09,6.715a1.62,1.62,0,0,1-1.143-.422,1.356,1.356,0,0,1-.457-1.037,1.306,1.306,0,0,1,.47-1.037,1.736,1.736,0,0,1,1.173-.4,1.671,1.671,0,0,1,1.165.409,1.415,1.415,0,0,1-.009,2.083A1.742,1.742,0,0,1,98.525,154.22Z" transform="translate(919 8019.928)" fill="#212429"/>
    <path id="Trazado_1040059" data-name="Trazado 1040059" d="M20.874,0H15.718L14.224-4.673H6.753L5.273,0H.146L7.793-21.006H13.4ZM13.14-8.306l-2.256-7.061a9.2,9.2,0,0,1-.352-1.89h-.117a8.012,8.012,0,0,1-.366,1.831L7.764-8.306ZM46.86,0H42.246V-8.555q0-3.267-2.4-3.267a2.207,2.207,0,0,0-1.86.981,4.033,4.033,0,0,0-.718,2.446V0H32.637V-8.643q0-3.179-2.358-3.179a2.261,2.261,0,0,0-1.9.938,4.125,4.125,0,0,0-.71,2.549V0H23.042V-15h4.629v2.344h.059a5.534,5.534,0,0,1,2.014-1.956,5.536,5.536,0,0,1,2.834-.754,4.319,4.319,0,0,1,4.351,2.8,5.549,5.549,0,0,1,5.039-2.8q4.893,0,4.893,6.035ZM64-6.182H54.214q.234,3.267,4.116,3.267a8.036,8.036,0,0,0,4.351-1.172v3.34A11.429,11.429,0,0,1,57.275.366a7.609,7.609,0,0,1-5.64-2.014,7.61,7.61,0,0,1-2.007-5.618A8.027,8.027,0,0,1,51.8-13.184a7.223,7.223,0,0,1,5.332-2.183A6.555,6.555,0,0,1,62.2-13.418,7.5,7.5,0,0,1,64-8.13ZM59.707-9.023q0-3.223-2.607-3.223a2.489,2.489,0,0,0-1.926.923,4.189,4.189,0,0,0-.989,2.3ZM81.24,0H76.626V-8.335q0-3.486-2.49-3.486a2.471,2.471,0,0,0-1.978.923,3.516,3.516,0,0,0-.776,2.344V0H66.753V-15h4.629v2.373h.059a5.3,5.3,0,0,1,4.819-2.739q4.98,0,4.98,6.182ZM97.383,0H93V-2.153h-.059A4.889,4.889,0,0,1,88.477.366,4.673,4.673,0,0,1,85.042-.872a4.435,4.435,0,0,1-1.252-3.3q0-4.365,5.171-5.039l4.072-.542q0-2.461-2.666-2.461a9.1,9.1,0,0,0-5.1,1.6v-3.486a11.468,11.468,0,0,1,2.644-.879,13.9,13.9,0,0,1,3.054-.381q6.416,0,6.416,6.4ZM93.032-6.094V-7.1l-2.725.352q-2.256.293-2.256,2.036a1.683,1.683,0,0,0,.549,1.3,2.111,2.111,0,0,0,1.487.505,2.74,2.74,0,0,0,2.124-.9A3.254,3.254,0,0,0,93.032-6.094ZM112.925,0H99.463V-1.919l7.529-9.668H100.21V-15h12.656v2.285l-7.134,9.3h7.192ZM127.9,0h-4.38V-2.153h-.059a4.889,4.889,0,0,1-4.468,2.52,4.673,4.673,0,0,1-3.435-1.238,4.435,4.435,0,0,1-1.252-3.3q0-4.365,5.171-5.039l4.072-.542q0-2.461-2.666-2.461a9.1,9.1,0,0,0-5.1,1.6v-3.486a11.468,11.468,0,0,1,2.644-.879,13.9,13.9,0,0,1,3.054-.381q6.416,0,6.416,6.4Zm-4.351-6.094V-7.1l-2.725.352q-2.256.293-2.256,2.036a1.683,1.683,0,0,0,.549,1.3,2.111,2.111,0,0,0,1.487.505,2.74,2.74,0,0,0,2.124-.9A3.254,3.254,0,0,0,123.545-6.094Zm7.031,5.7v-3.75a9.855,9.855,0,0,0,2.278,1.025A7.552,7.552,0,0,0,135-2.783a4.6,4.6,0,0,0,1.941-.337,1.088,1.088,0,0,0,.71-1.025.949.949,0,0,0-.322-.732,3,3,0,0,0-.828-.513,9.392,9.392,0,0,0-1.106-.4q-.6-.176-1.157-.4a11.088,11.088,0,0,1-1.575-.725,4.552,4.552,0,0,1-1.143-.9,3.541,3.541,0,0,1-.7-1.187,4.735,4.735,0,0,1-.242-1.6,4.11,4.11,0,0,1,.549-2.168,4.487,4.487,0,0,1,1.465-1.487,6.693,6.693,0,0,1,2.095-.85,10.922,10.922,0,0,1,2.454-.271,13.614,13.614,0,0,1,2.021.154,15.088,15.088,0,0,1,2.021.447v3.574a7.3,7.3,0,0,0-1.882-.769,7.94,7.94,0,0,0-1.97-.256,4.365,4.365,0,0,0-.857.081,2.822,2.822,0,0,0-.71.234,1.3,1.3,0,0,0-.483.4.91.91,0,0,0-.176.549,1.015,1.015,0,0,0,.264.7,2.29,2.29,0,0,0,.688.505,6.8,6.8,0,0,0,.945.381q.52.168,1.033.344a13.427,13.427,0,0,1,1.67.7,5.339,5.339,0,0,1,1.282.894,3.509,3.509,0,0,1,.82,1.2,4.269,4.269,0,0,1,.286,1.641,4.279,4.279,0,0,1-.579,2.278,4.633,4.633,0,0,1-1.538,1.538A6.975,6.975,0,0,1,137.761.1a12.262,12.262,0,0,1-2.6.271A13.4,13.4,0,0,1,130.576-.4Z" transform="translate(448 8185.928) rotate(-90)" fill="#212429"/>
    <path id="Trazado_1040060" data-name="Trazado 1040060" d="M11.279.366A9.778,9.778,0,0,1,3.926-2.571a10.544,10.544,0,0,1-2.842-7.654A11.3,11.3,0,0,1,3.97-18.281a9.991,9.991,0,0,1,7.646-3.076,9.534,9.534,0,0,1,7.273,2.944,10.855,10.855,0,0,1,2.776,7.764,11.118,11.118,0,0,1-2.878,7.983A9.879,9.879,0,0,1,11.279.366Zm.205-17.651a4.763,4.763,0,0,0-3.955,1.868,7.787,7.787,0,0,0-1.465,4.944A7.644,7.644,0,0,0,7.529-5.537a4.694,4.694,0,0,0,3.838,1.816,4.741,4.741,0,0,0,3.882-1.765,7.56,7.56,0,0,0,1.436-4.9,8.192,8.192,0,0,0-1.392-5.083A4.537,4.537,0,0,0,11.484-17.285Zm17.9,15.542h-.059V6.9H24.7V-15h4.629v2.256h.059A5.441,5.441,0,0,1,34.2-15.366a5.422,5.422,0,0,1,4.5,2A8.513,8.513,0,0,1,40.3-7.925,9.228,9.228,0,0,1,38.445-1.9,6.042,6.042,0,0,1,33.516.366,4.671,4.671,0,0,1,29.385-1.743ZM29.253-7.9v1.2a3.818,3.818,0,0,0,.82,2.534,2.67,2.67,0,0,0,2.153.981A2.838,2.838,0,0,0,34.68-4.4a5.906,5.906,0,0,0,.872-3.464q0-3.955-3.076-3.955a2.889,2.889,0,0,0-2.322,1.077A4.294,4.294,0,0,0,29.253-7.9ZM50.449.366a8.063,8.063,0,0,1-5.9-2.1,7.621,7.621,0,0,1-2.146-5.706,7.621,7.621,0,0,1,2.227-5.823,8.413,8.413,0,0,1,6.021-2.1,7.966,7.966,0,0,1,5.859,2.1,7.472,7.472,0,0,1,2.124,5.559,7.932,7.932,0,0,1-2.19,5.9A8.153,8.153,0,0,1,50.449.366Zm.117-12.187a3.087,3.087,0,0,0-2.549,1.128A4.974,4.974,0,0,0,47.109-7.5q0,4.321,3.486,4.321,3.325,0,3.325-4.438Q53.921-11.821,50.566-11.821Zm20.859,1a4.015,4.015,0,0,0-1.948-.454,2.807,2.807,0,0,0-2.358,1.106,4.825,4.825,0,0,0-.85,3.01V0H61.641V-15H66.27v2.783h.059q1.1-3.047,3.955-3.047a2.981,2.981,0,0,1,1.143.176ZM83.511-.176A6.842,6.842,0,0,1,80.42.366q-4.893,0-4.893-5.083v-6.87H73.1V-15h2.432v-3.237l4.614-1.318V-15h3.369v3.413H80.142v6.064q0,2.344,1.86,2.344A3.136,3.136,0,0,0,83.511-3.6ZM100.371,0H95.757V-2.285h-.073A5.235,5.235,0,0,1,91.1.366q-5.215,0-5.215-6.313V-15H90.5v8.643q0,3.179,2.52,3.179A2.492,2.492,0,0,0,95.01-4.05a3.515,3.515,0,0,0,.747-2.366V-15h4.614Zm18.384,0h-4.614V-8.335q0-3.486-2.49-3.486a2.471,2.471,0,0,0-1.978.923,3.516,3.516,0,0,0-.776,2.344V0h-4.629V-15H108.9v2.373h.059a5.3,5.3,0,0,1,4.819-2.739q4.98,0,4.98,6.182Zm6.006-17.373a2.7,2.7,0,0,1-1.919-.7,2.242,2.242,0,0,1-.747-1.707,2.162,2.162,0,0,1,.747-1.7,2.793,2.793,0,0,1,1.919-.659,2.787,2.787,0,0,1,1.926.659,2.172,2.172,0,0,1,.74,1.7,2.233,2.233,0,0,1-.74,1.729A2.75,2.75,0,0,1,124.761-17.373ZM127.046,0h-4.629V-15h4.629ZM145.62,0h-4.629V-2.065h-.059A5.19,5.19,0,0,1,136.289.366a5.687,5.687,0,0,1-4.526-1.985,8.216,8.216,0,0,1-1.714-5.544,8.943,8.943,0,0,1,1.89-5.962,6.164,6.164,0,0,1,4.951-2.241,4.212,4.212,0,0,1,4.043,2.08h.059v-8.921h4.629Zm-4.541-7.295V-8.423a3.549,3.549,0,0,0-.85-2.432,2.806,2.806,0,0,0-2.212-.967,2.788,2.788,0,0,0-2.4,1.208,5.612,5.612,0,0,0-.864,3.318,4.856,4.856,0,0,0,.835,3.047A2.772,2.772,0,0,0,137.9-3.179a2.784,2.784,0,0,0,2.292-1.128A4.7,4.7,0,0,0,141.079-7.295ZM162,0h-4.38V-2.153h-.059a4.889,4.889,0,0,1-4.468,2.52,4.673,4.673,0,0,1-3.435-1.238,4.435,4.435,0,0,1-1.252-3.3q0-4.365,5.171-5.039l4.072-.542q0-2.461-2.666-2.461a9.1,9.1,0,0,0-5.1,1.6v-3.486a11.468,11.468,0,0,1,2.644-.879,13.9,13.9,0,0,1,3.054-.381q6.416,0,6.416,6.4Zm-4.351-6.094V-7.1l-2.725.352q-2.256.293-2.256,2.036a1.683,1.683,0,0,0,.549,1.3,2.111,2.111,0,0,0,1.487.505,2.74,2.74,0,0,0,2.124-.9A3.254,3.254,0,0,0,157.646-6.094ZM180.337,0h-4.629V-2.065h-.059A5.19,5.19,0,0,1,171.006.366a5.687,5.687,0,0,1-4.526-1.985,8.216,8.216,0,0,1-1.714-5.544,8.943,8.943,0,0,1,1.89-5.962,6.164,6.164,0,0,1,4.951-2.241,4.212,4.212,0,0,1,4.043,2.08h.059v-8.921h4.629ZM175.8-7.295V-8.423a3.549,3.549,0,0,0-.85-2.432,2.806,2.806,0,0,0-2.212-.967,2.788,2.788,0,0,0-2.4,1.208,5.612,5.612,0,0,0-.864,3.318,4.856,4.856,0,0,0,.835,3.047,2.772,2.772,0,0,0,2.314,1.069,2.784,2.784,0,0,0,2.292-1.128A4.7,4.7,0,0,0,175.8-7.295ZM197.71-6.182h-9.785q.234,3.267,4.116,3.267a8.036,8.036,0,0,0,4.351-1.172v3.34A11.429,11.429,0,0,1,190.986.366a7.609,7.609,0,0,1-5.64-2.014,7.61,7.61,0,0,1-2.007-5.618,8.027,8.027,0,0,1,2.168-5.918,7.223,7.223,0,0,1,5.332-2.183,6.555,6.555,0,0,1,5.076,1.948A7.5,7.5,0,0,1,197.71-8.13Zm-4.292-2.842q0-3.223-2.607-3.223a2.489,2.489,0,0,0-1.926.923,4.189,4.189,0,0,0-.989,2.3ZM199.482-.4v-3.75A9.855,9.855,0,0,0,201.76-3.12a7.552,7.552,0,0,0,2.146.337,4.6,4.6,0,0,0,1.941-.337,1.088,1.088,0,0,0,.71-1.025.949.949,0,0,0-.322-.732,3,3,0,0,0-.828-.513,9.392,9.392,0,0,0-1.106-.4q-.6-.176-1.157-.4a11.088,11.088,0,0,1-1.575-.725,4.552,4.552,0,0,1-1.143-.9,3.541,3.541,0,0,1-.7-1.187,4.735,4.735,0,0,1-.242-1.6,4.11,4.11,0,0,1,.549-2.168,4.487,4.487,0,0,1,1.465-1.487,6.693,6.693,0,0,1,2.095-.85,10.922,10.922,0,0,1,2.454-.271,13.614,13.614,0,0,1,2.021.154,15.088,15.088,0,0,1,2.021.447v3.574a7.3,7.3,0,0,0-1.882-.769,7.94,7.94,0,0,0-1.97-.256,4.365,4.365,0,0,0-.857.081,2.822,2.822,0,0,0-.71.234,1.3,1.3,0,0,0-.483.4.91.91,0,0,0-.176.549,1.015,1.015,0,0,0,.264.7,2.29,2.29,0,0,0,.688.505,6.8,6.8,0,0,0,.945.381q.52.168,1.033.344a13.427,13.427,0,0,1,1.67.7,5.339,5.339,0,0,1,1.282.894,3.509,3.509,0,0,1,.82,1.2A4.269,4.269,0,0,1,211-4.585a4.279,4.279,0,0,1-.579,2.278,4.633,4.633,0,0,1-1.538,1.538A6.975,6.975,0,0,1,206.667.1a12.262,12.262,0,0,1-2.6.271A13.4,13.4,0,0,1,199.482-.4Z" transform="translate(846 8248.928) rotate(-90)" fill="#212429"/>
    <path id="Trazado_1039100" data-name="Trazado 1039100" d="M104.746,283.026a1.347,1.347,0,0,0-1.347-1.347H96.663a1.347,1.347,0,0,0-1.347,1.347v4.041H92.621V270.9a1.347,1.347,0,0,0-1.347-1.347H84.539a1.347,1.347,0,0,0-1.347,1.347v16.166H80.5V270.9a1.347,1.347,0,0,0-1.347-1.347H72.414a1.347,1.347,0,0,0-1.347,1.347v16.166H68.373v-9.43a1.347,1.347,0,0,0-1.347-1.347H60.29a1.347,1.347,0,0,0-1.347,1.347v9.43H56.249V265.513a1.347,1.347,0,0,0-1.347-1.347H48.166a1.347,1.347,0,0,0-1.347,1.347v21.554H44.124v-37.72A1.347,1.347,0,0,0,42.777,248H36.041a1.347,1.347,0,0,0-1.347,1.347v37.72H32v2.694h78.134v-2.694h-5.389Zm-67.357,4.041V250.694H41.43v36.373Zm12.124,0V266.86h4.041v20.207Zm12.124,0v-8.083h4.041v8.083Zm12.124,0V272.249H77.8v14.819Zm12.124,0V272.249h4.041v14.819Zm12.124,0v-2.694h4.041v2.694Z" transform="translate(426.694 7713.939)" fill="#103d47"/>
    <path id="Trazado_1039101" data-name="Trazado 1039101" d="M95.481,171.026H90.093a1.347,1.347,0,0,0-1.347,1.347v.789L64.1,148.519a1.348,1.348,0,0,0-1.905,0L51.025,159.691l-23.3-23.3a1.348,1.348,0,0,0-1.905,0l-9.43,9.43a1.347,1.347,0,0,0,0,1.905l4.041,4.041a1.348,1.348,0,0,0,1.905,0l4.436-4.436,23.3,23.3a1.348,1.348,0,0,0,1.905,0L63.15,159.46,82.8,179.109H82.01a1.347,1.347,0,0,0-1.347,1.347v5.389a1.347,1.347,0,0,0,1.347,1.347H95.481a1.347,1.347,0,0,0,1.347-1.347V172.373a1.347,1.347,0,0,0-1.347-1.347ZM94.134,184.5H83.357V181.8h2.694A1.347,1.347,0,0,0,87,179.5L64.1,156.6a1.348,1.348,0,0,0-1.905,0L51.025,167.774l-23.3-23.3a1.348,1.348,0,0,0-1.905,0l-4.436,4.436-2.136-2.136,7.525-7.525,23.3,23.3a1.348,1.348,0,0,0,1.905,0L63.15,151.377l25.99,25.99a1.347,1.347,0,0,0,2.3-.953v-2.694h2.694Z" transform="translate(440 7807.078)" fill="#103d47"/>
    <path id="Trazado_1039102" data-name="Trazado 1039102" d="M176.556,45.963h28.132a4.041,4.041,0,0,0,3.455-6.138L194.118,16.717a4.012,4.012,0,0,0-3.45-1.945h-.006a4.013,4.013,0,0,0-3.449,1.936L173.106,39.816a4.041,4.041,0,0,0,3.45,6.147Zm-1.15-4.743,14.108-23.108h0a1.327,1.327,0,0,1,1.15-.645h0a1.327,1.327,0,0,1,1.15.648l14.024,23.108a1.347,1.347,0,0,1-1.152,2.046H176.556a1.347,1.347,0,0,1-1.15-2.049Z" transform="translate(309.842 7907.893)" fill="#103d47"/>
    <path id="Trazado_1039103" data-name="Trazado 1039103" d="M257.36,82.968a1.347,1.347,0,0,0,1.334,1.157h2.694a1.347,1.347,0,0,0,1.334-1.157l1.347-9.43A1.347,1.347,0,0,0,262.735,72h-5.389a1.347,1.347,0,0,0-1.334,1.538Zm3.822-8.273-.962,6.736h-.358l-.962-6.736Z" transform="translate(240.415 7860.302)" fill="#103d47"/>
    <path id="Trazado_1040061" data-name="Trazado 1040061" d="M1,0A1,1,0,1,1,0,1,1,1,0,0,1,1,0Z" transform="translate(499.23 7945.928)" fill="#103d47"/>
    <g id="g3944" transform="translate(837.482 7925.013)">
      <g id="g3946" clip-path="url(#clip-path)">
        <g id="g3952" transform="translate(21.9 68.313)">
          <path id="path3954" d="M-70.779-35.389a4.611,4.611,0,0,1-4.611,4.611A4.611,4.611,0,0,1-80-35.389,4.611,4.611,0,0,1-75.389-40,4.611,4.611,0,0,1-70.779-35.389Z" transform="translate(80 40)" fill="none" stroke="#8b550e" stroke-linecap="round" stroke-linejoin="round" stroke-miterlimit="10" stroke-width="2"/>
        </g>
        <g id="g3956" transform="translate(25.358 71.771)">
          <path id="path3958" d="M-17.695-8.847a1.152,1.152,0,0,1-1.153,1.153A1.152,1.152,0,0,1-20-8.847,1.152,1.152,0,0,1-18.847-10a1.152,1.152,0,0,1,1.153,1.153" transform="translate(20 10)" fill="#8b550e"/>
        </g>
        <g id="g3960" transform="translate(64.855 71.771)">
          <path id="path3962" d="M-17.695-8.847a1.152,1.152,0,0,1-1.153,1.153A1.152,1.152,0,0,1-20-8.847,1.152,1.152,0,0,1-18.847-10a1.152,1.152,0,0,1,1.153,1.153" transform="translate(20 10)" fill="#8b550e"/>
        </g>
        <g id="g3964" transform="translate(61.397 68.313)">
          <path id="path3966" d="M-70.779-35.389a4.611,4.611,0,0,1-4.611,4.611A4.611,4.611,0,0,1-80-35.389,4.611,4.611,0,0,1-75.389-40,4.611,4.611,0,0,1-70.779-35.389Z" transform="translate(80 40)" fill="none" stroke="#8b550e" stroke-linecap="round" stroke-linejoin="round" stroke-miterlimit="10" stroke-width="2"/>
        </g>
        <g id="g3968" transform="translate(12.961 4.526)">
          <path id="path3970" d="M-25.027,0l-3.261,3.261" transform="translate(28.288)" fill="none" stroke="#8b550e" stroke-linecap="round" stroke-linejoin="round" stroke-miterlimit="10" stroke-width="2"/>
        </g>
        <g id="g3972" transform="translate(1.153 1.153)">
          <path id="path3974" d="M-381.615-338.558a4.611,4.611,0,0,1-4.611,4.611h-19.14l-8.655,4.907a2.313,2.313,0,0,0-1.175,2.009,2.308,2.308,0,0,0,2.305,2.305h51.023a2.305,2.305,0,0,1,2.305,2.305,2.305,2.305,0,0,1-2.305,2.305H-412.89a6.924,6.924,0,0,1-6.916-6.916,6.931,6.931,0,0,1,3.513-6.02l7.649-4.337-9.071-35.467a6.909,6.909,0,0,0-6.7-5.2h-4.611a2.305,2.305,0,0,1-2.305-2.305,2.305,2.305,0,0,1,2.305-2.305h4.611A11.517,11.517,0,0,1-413.248-374l9.064,35.44h35.61a6.916,6.916,0,0,0,6.7-5.2l6.923-27.071h-57.488" transform="translate(431.332 382.666)" fill="none" stroke="#8b550e" stroke-linecap="round" stroke-linejoin="round" stroke-miterlimit="10" stroke-width="2"/>
        </g>
        <g id="g3976" transform="translate(22.798 23.744)">
          <path id="path3978" d="M-80.143,0H-90.584" transform="translate(90.584)" fill="none" stroke="#8b550e" stroke-linecap="round" stroke-linejoin="round" stroke-miterlimit="10" stroke-width="2"/>
        </g>
        <g id="g3980" transform="translate(37.849 23.744)">
          <path id="path3982" d="M-283.492,0h-36.934" transform="translate(320.426)" fill="none" stroke="#8b550e" stroke-linecap="round" stroke-linejoin="round" stroke-miterlimit="10" stroke-width="2"/>
        </g>
        <g id="g3984" transform="translate(25.549 34.502)">
          <path id="path3986" d="M0,0H46.482" fill="none" stroke="#8b550e" stroke-linecap="round" stroke-linejoin="round" stroke-miterlimit="10" stroke-width="2"/>
        </g>
        <g id="g3988" transform="translate(61.096 12.986)">
          <path id="path3990" d="M0-247.725,4.952-280" transform="translate(0 279.999)" fill="none" stroke="#8b550e" stroke-linecap="round" stroke-linejoin="round" stroke-miterlimit="10" stroke-width="2"/>
        </g>
        <g id="g3992" transform="translate(52.911 12.986)">
          <path id="path3994" d="M0-247.725,1.65-280" transform="translate(0 279.999)" fill="none" stroke="#8b550e" stroke-linecap="round" stroke-linejoin="round" stroke-miterlimit="10" stroke-width="2"/>
        </g>
        <g id="g3996" transform="translate(43.074 12.986)">
          <path id="path3998" d="M-12.676-247.725-14.328-280" transform="translate(14.328 279.999)" fill="none" stroke="#8b550e" stroke-linecap="round" stroke-linejoin="round" stroke-miterlimit="10" stroke-width="2"/>
        </g>
        <g id="g4000" transform="translate(31.588 12.986)">
          <path id="path4002" d="M-38.019-247.725-42.972-280" transform="translate(42.972 279.999)" fill="none" stroke="#8b550e" stroke-linecap="round" stroke-linejoin="round" stroke-miterlimit="10" stroke-width="2"/>
        </g>
      </g>
    </g>
  </g>
</svg>
