<svg xmlns="http://www.w3.org/2000/svg" xmlns:xlink="http://www.w3.org/1999/xlink" width="295" height="111.931" viewBox="0 0 295 111.931">
  <defs>
    <clipPath id="clip-path">
      <path id="path7376" d="M0-682.665H111.931v111.931H0Z" transform="translate(0 682.665)"/>
    </clipPath>
  </defs>
  <g id="Grupo_1202051" data-name="Grupo 1202051" transform="translate(-1125 -273.069)">
    <g id="Grupo_1201683" data-name="Grupo 1201683">
      <rect id="Rect치ngulo_416279" data-name="Rect치ngulo 416279" width="295" height="41" rx="2" transform="translate(1125 299)" fill="#103d47"/>
      <rect id="Rect치ngulo_416280" data-name="Rect치ngulo 416280" width="211" height="69" rx="2" transform="translate(1167 285)" fill="#1d7083"/>
    </g>
    <g id="g7368" transform="translate(1217 955.734)">
      <path id="path7370" d="M252.077-554.983H176v-59.682h76.078Z" transform="translate(-147.142 -56.85)" fill="#ddf5ff"/>
      <g id="g7372" transform="translate(0 -682.665)">
        <g id="g7374" clip-path="url(#clip-path)">
          <g id="g7380" transform="translate(28.857 11.149)">
            <path id="path7382" d="M0,0V4.591H66.9a4.372,4.372,0,0,1,4.372,4.372V59.682h4.81V0Z" fill="#c1e9f4"/>
          </g>
          <g id="g7384" transform="translate(24.048 2.186)">
            <path id="path7386" d="M-425.821-44.589h-81.325a2.186,2.186,0,0,1-2.186-2.186v-4.372a2.186,2.186,0,0,1,2.186-2.186h81.325a2.186,2.186,0,0,1,2.186,2.186v4.372a2.186,2.186,0,0,1-2.186,2.186" transform="translate(509.332 53.333)" fill="#ff933b"/>
          </g>
          <g id="g7388" transform="translate(103.186 2.186)">
            <path id="path7390" d="M-22.294,0h-4.372A2.186,2.186,0,0,1-24.48,2.186V6.558a2.186,2.186,0,0,1-2.186,2.186h4.372a2.186,2.186,0,0,0,2.186-2.186V2.186A2.186,2.186,0,0,0-22.294,0" transform="translate(26.667 0)" fill="#f27d27"/>
          </g>
          <g id="g7392" transform="translate(61.296 28.066)">
            <path id="path7394" d="M-91.751,0V17.994h-17.994A17.994,17.994,0,0,0-91.751,35.988,17.994,17.994,0,0,0-73.757,17.994,17.994,17.994,0,0,0-91.751,0" transform="translate(109.745)" fill="#8db0ff"/>
          </g>
          <g id="g7396" transform="translate(54.852 21.623)">
            <path id="path7398" d="M-124.607,0a24.437,24.437,0,0,0-24.438,24.438h24.438Z" transform="translate(149.045)" fill="#ffd664"/>
          </g>
          <g id="g7400" transform="translate(8.963 56.84)">
            <path id="path7402" d="M-11.147-42.359h4.372v-8.307h-4.372a2.186,2.186,0,0,0-2.186,2.186v3.935a2.186,2.186,0,0,0,2.186,2.186" transform="translate(13.333 50.667)" fill="#feccc1"/>
          </g>
          <g id="g7404" transform="translate(43.504 56.84)">
            <path id="path7406" d="M-22.294-42.359h-4.372v-8.307h4.372a2.186,2.186,0,0,1,2.186,2.186v3.935a2.186,2.186,0,0,1-2.186,2.186" transform="translate(26.667 50.667)" fill="#f9b3a7"/>
          </g>
          <g id="g7408" transform="translate(2.186 85.26)">
            <path id="path7410" d="M-139.339,0h-5.9l-11.791,3.249a13.117,13.117,0,0,0-9.633,12.646v8.59h54.872V15.921A13.117,13.117,0,0,0-121.46,3.267L-133.437,0Z" transform="translate(166.666)" fill="#7ae57d"/>
          </g>
          <g id="g7412" transform="translate(45.133 87.91)">
            <path id="path7414" d="M-11.522-3.142l-2.26-.616A13.115,13.115,0,0,1-8.852,6.489V18.076h7V9.512A13.117,13.117,0,0,0-11.522-3.142" transform="translate(13.781 3.759)" fill="#66d166"/>
          </g>
          <g id="g7416" transform="translate(23.61 78.483)">
            <path id="path7418" d="M0,0V6.777l5.9,5.247,5.9-5.247V0Z" fill="#f9b3a7"/>
          </g>
          <g id="g7420" transform="translate(15.522 54.435)">
            <path id="path7422" d="M-71.342,0H-85.333V10.931A13.991,13.991,0,0,0-71.342,24.922,13.991,13.991,0,0,0-57.35,10.931V0Z" transform="translate(85.333)" fill="#feccc1"/>
          </g>
          <g id="g7424" transform="translate(26.671 54.435)">
            <path id="path7426" d="M-56.85,0V10.931A14,14,0,0,1-68,24.633a14.038,14.038,0,0,0,2.842.289A13.991,13.991,0,0,0-51.167,10.931V0Z" transform="translate(68)" fill="#f9b3a7"/>
          </g>
          <g id="g7428" transform="translate(15.522 38.476)">
            <path id="path7430" d="M-55.736,0h6.121a4.372,4.372,0,0,1,4.372,4.372v9.619a4.372,4.372,0,0,1-4.372,4.372H-66.667V10.931A10.931,10.931,0,0,1-55.736,0" transform="translate(66.667)" fill="#ffd664"/>
          </g>
          <g id="g7432" transform="translate(15.522 38.531)">
            <path id="path7434" d="M-90.292,0V11.969a2.186,2.186,0,0,1-2.186,2.186H-108v4.154h17.052a4.372,4.372,0,0,0,4.372-4.372V4.318A4.369,4.369,0,0,0-90.292,0" transform="translate(108)" fill="#f9c646"/>
          </g>
          <g id="g7436" transform="translate(36.946 42.848)">
            <path id="path7438" d="M-11.147,0h0a2.186,2.186,0,0,0-2.186,2.186V9.619a4.372,4.372,0,0,0,4.372,4.372h2.186V4.372A4.372,4.372,0,0,0-11.147,0" transform="translate(13.333 0)" fill="#f9c646"/>
          </g>
          <g id="g7440" transform="translate(28.857 11.149)">
            <path id="path7442" d="M0-139.339v-27.327" transform="translate(0 166.666)" fill="none" stroke="#000" stroke-linecap="round" stroke-linejoin="round" stroke-miterlimit="10" stroke-width="1.5"/>
          </g>
          <g id="g7444" transform="translate(42.398 33.585)">
            <path id="path7446" d="M-318.876,0V37.246h-62.537" transform="translate(381.412)" fill="none" stroke="#000" stroke-linecap="round" stroke-linejoin="round" stroke-miterlimit="10" stroke-width="1.5"/>
          </g>
          <g id="g7448" transform="translate(104.935 11.149)">
            <path id="path7450" d="M0,0V14.756" transform="translate(0)" fill="none" stroke="#000" stroke-linecap="round" stroke-linejoin="round" stroke-miterlimit="10" stroke-width="1.5"/>
          </g>
          <g id="g7452" transform="translate(24.048 2.186)">
            <path id="path7454" d="M-95.238,0h64.833a2.186,2.186,0,0,1,2.186,2.186V6.558a2.186,2.186,0,0,1-2.186,2.186H-111.73a2.186,2.186,0,0,1-2.186-2.186V2.186A2.186,2.186,0,0,1-111.73,0h8.847" transform="translate(113.916 0)" fill="none" stroke="#000" stroke-linecap="round" stroke-linejoin="round" stroke-miterlimit="10" stroke-width="1.5"/>
          </g>
          <g id="g7456" transform="translate(61.296 28.066)">
            <path id="path7458" d="M-91.751,0V17.994h-17.994A17.994,17.994,0,0,0-91.751,35.988,17.994,17.994,0,0,0-73.757,17.994,17.994,17.994,0,0,0-91.751,0Z" transform="translate(109.745)" fill="none" stroke="#000" stroke-linecap="round" stroke-linejoin="round" stroke-miterlimit="10" stroke-width="1.5"/>
          </g>
          <g id="g7460" transform="translate(54.852 21.623)">
            <path id="path7462" d="M-124.607,0a24.437,24.437,0,0,0-24.438,24.438h24.438Z" transform="translate(149.045)" fill="none" stroke="#000" stroke-linecap="round" stroke-linejoin="round" stroke-miterlimit="10" stroke-width="1.5"/>
          </g>
          <g id="g7464" transform="translate(36.727 18.801)">
            <path id="path7466" d="M0,0H19.894" transform="translate(0 0)" fill="none" stroke="#000" stroke-linecap="round" stroke-linejoin="round" stroke-miterlimit="10" stroke-width="1.5"/>
          </g>
          <g id="g7468" transform="translate(36.727 27.327)">
            <path id="path7470" d="M0,0H11.149" transform="translate(0 0)" fill="none" stroke="#000" stroke-linecap="round" stroke-linejoin="round" stroke-miterlimit="10" stroke-width="1.5"/>
          </g>
          <g id="g7472" transform="translate(2.186 85.26)">
            <path id="path7474" d="M-22.759-124.848h-4.463v-8.592a13.116,13.116,0,0,1,9.632-12.645L-5.8-149.333" transform="translate(27.223 149.333)" fill="none" stroke="#000" stroke-linecap="round" stroke-linejoin="round" stroke-miterlimit="10" stroke-width="1.5"/>
          </g>
          <g id="g7476" transform="translate(14.356 85.26)">
            <path id="path7478" d="M-107.384,0l11.978,3.266a13.118,13.118,0,0,1,9.665,12.656v8.563h-42.7" transform="translate(128.444)" fill="none" stroke="#000" stroke-linecap="round" stroke-linejoin="round" stroke-miterlimit="10" stroke-width="1.5"/>
          </g>
          <g id="g7480" transform="translate(23.61 78.483)">
            <path id="path7482" d="M0,0V6.777l5.9,5.247,5.9-5.247V0" fill="none" stroke="#000" stroke-linecap="round" stroke-linejoin="round" stroke-miterlimit="10" stroke-width="1.5"/>
          </g>
          <g id="g7484" transform="translate(15.522 54.435)">
            <path id="path7486" d="M0,0V10.931a13.991,13.991,0,1,0,27.983,0V0" fill="none" stroke="#000" stroke-linecap="round" stroke-linejoin="round" stroke-miterlimit="10" stroke-width="1.5"/>
          </g>
          <g id="g7488" transform="translate(43.504 56.84)">
            <path id="path7490" d="M-22.294-42.359h-4.372v-8.307h4.372a2.186,2.186,0,0,1,2.186,2.186v3.935A2.186,2.186,0,0,1-22.294-42.359Z" transform="translate(26.667 50.667)" fill="none" stroke="#000" stroke-linecap="round" stroke-linejoin="round" stroke-miterlimit="10" stroke-width="1.5"/>
          </g>
          <g id="g7492" transform="translate(8.963 56.84)">
            <path id="path7494" d="M-11.147-42.359h4.372v-8.307h-4.372a2.186,2.186,0,0,0-2.186,2.186v3.935A2.186,2.186,0,0,0-11.147-42.359Z" transform="translate(13.333 50.667)" fill="none" stroke="#000" stroke-linecap="round" stroke-linejoin="round" stroke-miterlimit="10" stroke-width="1.5"/>
          </g>
          <g id="g7496" transform="translate(15.522 38.476)">
            <path id="path7498" d="M-55.736,0h6.121a4.372,4.372,0,0,1,4.372,4.372v9.619a4.372,4.372,0,0,1-4.372,4.372H-66.667V10.931A10.931,10.931,0,0,1-55.736,0Z" transform="translate(66.667)" fill="none" stroke="#000" stroke-linecap="round" stroke-linejoin="round" stroke-miterlimit="10" stroke-width="1.5"/>
          </g>
          <g id="g7500" transform="translate(36.946 42.848)">
            <path id="path7502" d="M-11.147,0h0a2.186,2.186,0,0,0-2.186,2.186V9.619a4.372,4.372,0,0,0,4.372,4.372h2.186V4.372A4.372,4.372,0,0,0-11.147,0Z" transform="translate(13.333 0)" fill="none" stroke="#000" stroke-linecap="round" stroke-linejoin="round" stroke-miterlimit="10" stroke-width="1.5"/>
          </g>
        </g>
      </g>
    </g>
  </g>
</svg>
