<svg xmlns="http://www.w3.org/2000/svg" xmlns:xlink="http://www.w3.org/1999/xlink" width="108" height="108" viewBox="0 0 108 108">
  <defs>
    <filter id="Trazado_904820" x="0" y="0" width="108" height="108" filterUnits="userSpaceOnUse">
      <feOffset dy="3" input="SourceAlpha"/>
      <feGaussianBlur stdDeviation="3" result="blur"/>
      <feFlood flood-opacity="0.161"/>
      <feComposite operator="in" in2="blur"/>
      <feComposite in="SourceGraphic"/>
    </filter>
  </defs>
  <g id="Grupo_1202044" data-name="Grupo 1202044" transform="translate(9 6)">
    <g id="Grupo_1173585" data-name="Grupo 1173585" transform="translate(0 0)">
      <g id="Grupo_1173428" data-name="Grupo 1173428">
        <g id="Grupo_1171958" data-name="Grupo 1171958">
          <g id="Grupo_1167341" data-name="Grupo 1167341">
            <g id="Grupo_1166792" data-name="Grupo 1166792">
              <g transform="matrix(1, 0, 0, 1, -9, -6)" filter="url(#Trazado_904820)">
                <g id="Trazado_904820-2" data-name="Trazado 904820" transform="translate(9 6)" fill="#fff4e6">
                  <path d="M 44.99999618530273 88.49999237060547 C 39.12687301635742 88.49999237060547 33.43022155761719 87.35006713867188 28.06829643249512 85.08216857910156 C 22.88852119445801 82.89130401611328 18.23629570007324 79.75457763671875 14.24084663391113 75.75914001464844 C 10.24540901184082 71.76369476318359 7.108683586120605 67.11146545410156 4.917821407318115 61.93169403076172 C 2.649921178817749 56.56976699829102 1.499996185302734 50.87311553955078 1.499996185302734 44.99999237060547 C 1.499996185302734 39.12686920166016 2.649921178817749 33.43021774291992 4.917821407318115 28.06829261779785 C 7.108683586120605 22.88851737976074 10.24540901184082 18.23630523681641 14.24084663391113 14.24085521697998 C 18.23629570007324 10.24540519714355 22.88852119445801 7.108692169189453 28.06829643249512 4.917829990386963 C 33.43022155761719 2.649929761886597 39.12687301635742 1.500004887580872 44.99999618530273 1.500004887580872 C 50.87311935424805 1.500004887580872 56.56977081298828 2.649929761886597 61.93169784545898 4.917829990386963 C 67.11147308349609 7.108692169189453 71.76369476318359 10.24540519714355 75.75914764404297 14.24085521697998 C 79.75458526611328 18.23630523681641 82.89131164550781 22.88851737976074 85.08216857910156 28.06829261779785 C 87.35007476806641 33.43021774291992 88.5 39.12686920166016 88.5 44.99999237060547 C 88.5 50.87311553955078 87.35007476806641 56.56976699829102 85.08216857910156 61.93169403076172 C 82.89131164550781 67.11146545410156 79.75458526611328 71.76369476318359 75.75914764404297 75.75914001464844 C 71.76369476318359 79.75457763671875 67.11147308349609 82.89130401611328 61.93169784545898 85.08216857910156 C 56.56977081298828 87.35006713867188 50.87311935424805 88.49999237060547 44.99999618530273 88.49999237060547 Z" stroke="none"/>
                  <path d="M 44.99999618530273 2.999992370605469 C 39.32870864868164 2.999992370605469 33.82865142822266 4.11004638671875 28.65262603759766 6.299331665039062 C 23.65165710449219 8.414566040039062 19.15968322753906 11.44333648681641 15.301513671875 15.30150604248047 C 11.44333648681641 19.15967559814453 8.414566040039062 23.65164947509766 6.299339294433594 28.65262222290039 C 4.110054016113281 33.82864761352539 2.999992370605469 39.32870483398438 2.999992370605469 44.99999237060547 C 2.999992370605469 50.67127990722656 4.110054016113281 56.17132186889648 6.299339294433594 61.34736633300781 C 8.414566040039062 66.34833526611328 11.44333648681641 70.84029388427734 15.301513671875 74.69846343994141 C 19.15968322753906 78.55663299560547 23.65165710449219 81.58540344238281 28.65262603759766 83.70063781738281 C 33.82865142822266 85.88992309570312 39.32870864868164 86.99997711181641 44.99999618530273 86.99997711181641 C 50.67128372192383 86.99997711181641 56.17134094238281 85.88992309570312 61.34736633300781 83.70063781738281 C 66.34834289550781 81.58540344238281 70.84030914306641 78.55663299560547 74.69847869873047 74.69846343994141 C 78.55665588378906 70.84029388427734 81.58542633056641 66.34833526611328 83.70065307617188 61.34736633300781 C 85.88993835449219 56.17132186889648 87 50.67127990722656 87 44.99999237060547 C 87 39.32870483398438 85.88993835449219 33.82864761352539 83.70065307617188 28.65262222290039 C 81.58542633056641 23.65164947509766 78.55665588378906 19.15967559814453 74.69847869873047 15.30150604248047 C 70.84030914306641 11.44333648681641 66.34834289550781 8.414566040039062 61.34736633300781 6.299331665039062 C 56.17134094238281 4.11004638671875 50.67128372192383 2.999992370605469 44.99999618530273 2.999992370605469 M 44.99999618530273 -7.62939453125e-06 C 69.85281372070312 -7.62939453125e-06 90 20.14717864990234 90 44.99999237060547 C 90 69.85279083251953 69.85281372070312 89.99997711181641 44.99999618530273 89.99997711181641 C 20.14717864990234 89.99997711181641 -7.62939453125e-06 69.85279083251953 -7.62939453125e-06 44.99999237060547 C -7.62939453125e-06 20.14717864990234 20.14717864990234 -7.62939453125e-06 44.99999618530273 -7.62939453125e-06 Z" stroke="none" fill="#ff9d1c"/>
                </g>
              </g>
            </g>
          </g>
        </g>
      </g>
    </g>
    <g id="benchmarking_13728578" transform="translate(1.154 8.715)">
      <g id="Grupo_1202181" data-name="Grupo 1202181" transform="translate(16.519 7.945)">
        <g id="Grupo_1202178" data-name="Grupo 1202178" transform="translate(0 0)">
          <path id="Trazado_1039980" data-name="Trazado 1039980" d="M58.234,49.088A2.117,2.117,0,0,1,60.346,51.2V90.085A2.118,2.118,0,0,1,58.234,92.2H25.688a2.118,2.118,0,0,1-2.113-2.116V51.2a2.117,2.117,0,0,1,2.113-2.113Z" transform="translate(-23.575 -45.063)" fill="#837683" fill-rule="evenodd"/>
          <path id="Trazado_1039981" data-name="Trazado 1039981" d="M293.982,92.2h2.728a2.118,2.118,0,0,0,2.113-2.116V51.2a2.117,2.117,0,0,0-2.113-2.113h-2.728Z" transform="translate(-262.051 -45.063)" fill="#685e68" fill-rule="evenodd"/>
          <path id="Trazado_1039982" data-name="Trazado 1039982" d="M78.409,73.981H49.421a.953.953,0,0,0-.952.952v35.329a.951.951,0,0,0,.952.949H78.409a.953.953,0,0,0,.952-.949V74.933A.955.955,0,0,0,78.409,73.981Z" transform="translate(-45.529 -67.017)" fill="#eceff1" fill-rule="evenodd"/>
          <path id="Trazado_1039983" data-name="Trazado 1039983" d="M293.982,111.212h.949c.031,0,.061,0,.089,0a.954.954,0,0,0,.863-.946V74.933a.953.953,0,0,0-.863-.946c-.028,0-.058-.006-.089-.006h-.949Z" transform="translate(-262.051 -67.017)" fill="#d1d1d6" fill-rule="evenodd"/>
          <path id="Trazado_1039984" data-name="Trazado 1039984" d="M111.32,17.749h3.015a.931.931,0,0,0,.871-.573,3.594,3.594,0,0,1,6.6,0,.931.931,0,0,0,.871.573h3.012a.955.955,0,0,1,.952.952v3.594a.953.953,0,0,1-.952.949H111.32a.95.95,0,0,1-.949-.949V18.7A.953.953,0,0,1,111.32,17.749Z" transform="translate(-100.122 -15.002)" fill="#e3a76f" fill-rule="evenodd"/>
          <path id="Trazado_1039985" data-name="Trazado 1039985" d="M124.743,42.814H110.371a.95.95,0,0,0,.949.949h14.372a.953.953,0,0,0,.952-.949V39.22a.955.955,0,0,0-.952-.952v3.594a.954.954,0,0,1-.949.952Z" transform="translate(-100.122 -35.521)" fill="#c48958" fill-rule="evenodd"/>
        </g>
        <g id="Grupo_1202179" data-name="Grupo 1202179" transform="translate(28.725 12.956)">
          <path id="Trazado_1039986" data-name="Trazado 1039986" d="M371.38,335.773l.067,7.271-3.27.062-.067-7.129A10.2,10.2,0,0,0,371.38,335.773Z" transform="translate(-356.151 -310.851)" fill="#a79ba7" fill-rule="evenodd"/>
          <path id="Trazado_1039987" data-name="Trazado 1039987" d="M368.111,336.026v-.048q.208.021.416.033Q368.318,336.022,368.111,336.026Zm2.09-.056a10.308,10.308,0,0,0,1.179-.2l.067,7.271-3.27.062v-.023l2.089-.04Z" transform="translate(-356.151 -310.851)" fill="#837683" fill-rule="evenodd"/>
          <path id="Trazado_1039988" data-name="Trazado 1039988" d="M288.969,128.521a12.965,12.965,0,1,1-18.335,0A12.964,12.964,0,0,1,288.969,128.521Z" transform="translate(-266.837 -124.723)" fill="#8ac9fe" fill-rule="evenodd"/>
          <path id="Trazado_1039989" data-name="Trazado 1039989" d="M371.63,124.736a12.965,12.965,0,1,1,0,25.9,12.965,12.965,0,0,0,0-25.9Z" transform="translate(-359.256 -124.723)" fill="#60b7ff" fill-rule="evenodd"/>
          <path id="Trazado_1039990" data-name="Trazado 1039990" d="M358.5,402.909a1.184,1.184,0,0,1-1.2-1.16l-.146-9.918a1.177,1.177,0,0,1,1.16-1.2l3.689-.055a1.184,1.184,0,0,1,1.2,1.16l.149,9.921a1.18,1.18,0,0,1-1.163,1.194Z" transform="translate(-346.489 -359.185)" fill="#ecba78" fill-rule="evenodd"/>
          <path id="Trazado_1039991" data-name="Trazado 1039991" d="M363.11,390.579a1.184,1.184,0,0,1,1.181,1.16l.149,9.921a1.18,1.18,0,0,1-1.163,1.194l-3.689.055a1.184,1.184,0,0,1-1.2-1.16v-.02h.016l3.689-.055a1.18,1.18,0,0,0,1.163-1.194Z" transform="translate(-347.579 -359.186)" fill="#e3a76f" fill-rule="evenodd"/>
          <path id="Trazado_1039992" data-name="Trazado 1039992" d="M309.765,153.666a9.889,9.889,0,1,1-13.986,0A9.889,9.889,0,0,1,309.765,153.666Z" transform="translate(-289.807 -147.694)" fill="#eceff1" fill-rule="evenodd"/>
          <path id="Trazado_1039993" data-name="Trazado 1039993" d="M303.362,170.53a9.889,9.889,0,1,1,0-19.743,9.889,9.889,0,0,0,0,19.743Z" transform="translate(-289.807 -147.694)" fill="#d1d1d6" fill-rule="evenodd"/>
          <circle id="Elipse_12296" data-name="Elipse 12296" cx="1.513" cy="1.513" r="1.513" transform="translate(11.452 13.001)" fill="#8ac9fe"/>
          <path id="Trazado_1039994" data-name="Trazado 1039994" d="M374.794,234.838a1.513,1.513,0,1,1,0,2.995,1.513,1.513,0,0,0,0-2.995Z" transform="translate(-362.046 -221.822)" fill="#60b7ff" fill-rule="evenodd"/>
        </g>
        <g id="Grupo_1202180" data-name="Grupo 1202180" transform="translate(6.639 11.694)">
          <path id="Trazado_1039995" data-name="Trazado 1039995" d="M210.515,114.62a.59.59,0,0,0-.59-.59h-2.849a.59.59,0,0,0-.59.59v14.825a.59.59,0,0,0,.59.59h2.849a.59.59,0,0,0,.59-.59Z" transform="translate(-191.525 -114.03)" fill="#8ac9fe" fill-rule="evenodd"/>
          <path id="Trazado_1039996" data-name="Trazado 1039996" d="M225.611,130.036a.59.59,0,0,0,.59-.59V114.62a.59.59,0,0,0-.59-.59h1.181a.59.59,0,0,1,.59.59v14.825a.59.59,0,0,1-.59.59Z" transform="translate(-208.392 -114.03)" fill="#60b7ff" fill-rule="evenodd"/>
          <path id="Trazado_1039997" data-name="Trazado 1039997" d="M147.175,150.424a.59.59,0,0,0-.59-.59h-2.847a.59.59,0,0,0-.59.59v10.6a.59.59,0,0,0,.59.59h2.847a.59.59,0,0,0,.59-.59Z" transform="translate(-135.666 -145.606)" fill="#6cf5c2" fill-rule="evenodd"/>
          <path id="Trazado_1039998" data-name="Trazado 1039998" d="M162.259,161.612a.59.59,0,0,0,.59-.59v-10.6a.59.59,0,0,0-.59-.59h1.181a.59.59,0,0,1,.59.59v10.6a.59.59,0,0,1-.59.59Z" transform="translate(-152.521 -145.606)" fill="#00e499" fill-rule="evenodd"/>
          <path id="Trazado_1039999" data-name="Trazado 1039999" d="M79.795,184.727a.591.591,0,0,1,.59-.59h2.847a.591.591,0,0,1,.59.59v6.547a.59.59,0,0,1-.59.59H80.385a.59.59,0,0,1-.59-.59Z" transform="translate(-79.795 -175.858)" fill="#ffe177" fill-rule="evenodd"/>
          <path id="Trazado_1040000" data-name="Trazado 1040000" d="M98.907,184.137h1.181a.591.591,0,0,1,.59.59v6.547a.59.59,0,0,1-.59.59H98.907a.59.59,0,0,0,.59-.59v-6.547a.591.591,0,0,0-.59-.59Z" transform="translate(-96.65 -175.858)" fill="#ffd064" fill-rule="evenodd"/>
        </g>
      </g>
      <path id="Trazado_1040001" data-name="Trazado 1040001" d="M25.823,12.914H18.634a1.171,1.171,0,0,0-1.171,1.168V52.967a1.172,1.172,0,0,0,1.171,1.171H51.178a1.171,1.171,0,0,0,1.168-1.171V49.132a.945.945,0,1,1,1.889,0v3.835a3.064,3.064,0,0,1-3.057,3.06H18.634a3.064,3.064,0,0,1-3.06-3.06V14.083a3.064,3.064,0,0,1,3.06-3.057h7.189v-.333a.945.945,0,0,1,.945-.945h3.968a4.538,4.538,0,0,1,8.339,0h3.966a.945.945,0,0,1,.945.945v.333h7.192a3.064,3.064,0,0,1,3.057,3.057V18.6a.945.945,0,1,1-1.889,0V14.083a1.17,1.17,0,0,0-1.168-1.168H43.986v1.05h6.365a.945.945,0,0,1,.945.945v4.975a.945.945,0,1,1-1.889,0s0-4.03,0-4.03H43.986v.333a.945.945,0,0,1-.945.945H26.768a.945.945,0,0,1-.945-.945v-.333H20.4V51.2h29v-3.35a.945.945,0,1,1,1.889,0v4.295a.945.945,0,0,1-.945.945H19.458a.945.945,0,0,1-.945-.945V14.909a.945.945,0,0,1,.945-.945h6.365ZM42.1,15.242V11.637H38.4a.945.945,0,0,1-.918-.722,2.648,2.648,0,0,0-5.148,0,.945.945,0,0,1-.918.724h-3.7v3.606ZM34.9,11.922a1.031,1.031,0,1,1,1.033-1.033A1.033,1.033,0,0,1,34.9,11.922ZM56.263,47.64a13.9,13.9,0,1,1,5.158-.238l.06,4.069A2.137,2.137,0,0,1,62.9,53.44h0l.149,9.92a2.127,2.127,0,0,1-2.092,2.154h0l-3.688.055h0a2.131,2.131,0,0,1-2.155-2.086s0,0,0-.005l-.146-9.917a2.127,2.127,0,0,1,1.357-2.015Zm3.273.073q-.689.066-1.381.063l.054,3.612,1.381-.021Zm-2.3,15.967,3.688-.055a.234.234,0,0,0,.233-.234h0l-.149-9.92a.235.235,0,0,0-.237-.231h0l-3.689.055h0a.23.23,0,0,0-.227.233s0,0,0,.005S57,63.447,57,63.451a.237.237,0,0,0,.237.23Zm9.47-38.313a12.02,12.02,0,1,0,0,17,12.019,12.019,0,0,0,0-17Zm-.839.839a10.834,10.834,0,1,1-15.321,0,10.834,10.834,0,0,1,15.321,0Zm-1.336,1.336a8.945,8.945,0,1,0,0,12.65A8.944,8.944,0,0,0,64.534,27.542Zm-4.052,6.937a2.456,2.456,0,1,1-1.336-1.336l2.424-2.424a.945.945,0,0,1,1.336,1.336Zm-1.879.527a.568.568,0,1,0,.016.016l-.008-.008Zm-6-1.139a.945.945,0,0,1-1.889,0,7.5,7.5,0,0,1,11.142-6.56.945.945,0,1,1-.918,1.652A5.613,5.613,0,0,0,52.6,33.866Zm9.275,5.46V40.6a.331.331,0,0,1-.331.331H54.876a.331.331,0,0,1-.331-.331v-1.27A.331.331,0,0,1,54.876,39h6.666a.331.331,0,0,1,.331.331ZM43.092,19.639V35.645a.945.945,0,0,1-.945.945h-4.03a.945.945,0,0,1-.945-.945V19.639a.945.945,0,0,1,.945-.945h4.03A.945.945,0,0,1,43.092,19.639Zm-1.889.945h-2.14V34.7H41.2Zm-5.592,3.283V35.645a.945.945,0,0,1-.945.945H30.639a.945.945,0,0,1-.945-.945V23.867a.945.945,0,0,1,.945-.945h4.028a.945.945,0,0,1,.945.945Zm-1.889.945H31.583V34.7h2.139ZM23.158,26.973h4.028a.945.945,0,0,1,.945.945v7.728a.945.945,0,0,1-.945.945H23.158a.945.945,0,0,1-.945-.945V27.917A.945.945,0,0,1,23.158,26.973Zm.945,1.889V34.7h2.139V28.862ZM23.158,42.2a.945.945,0,1,1,0-1.889h2.014a.945.945,0,1,1,0,1.889Zm5.467,0a.945.945,0,1,1,0-1.889H39.831a.945.945,0,1,1,0,1.889Zm-5.467,3.53a.945.945,0,0,1,0-1.889h2.014a.945.945,0,0,1,0,1.889Zm5.467,0a.945.945,0,1,1,0-1.889H39.831a.945.945,0,1,1,0,1.889Zm-5.467,3.53a.945.945,0,0,1,0-1.889h2.014a.945.945,0,0,1,0,1.889Zm5.467,0a.945.945,0,1,1,0-1.889H39.831a.945.945,0,1,1,0,1.889Z" transform="translate(0 0)" fill-rule="evenodd"/>
    </g>
  </g>
</svg>
